<svg width="66" height="82" viewBox="0 0 66 82" fill="none" xmlns="http://www.w3.org/2000/svg">
<g clip-path="url(#clip0_47_3170)">
<path d="M63.8484 27.7008C51.6894 35.4366 52.1426 53.2106 66 60.4044C63.4638 67.7697 59.7648 74.417 53.8776 79.5958C50.2519 82.7921 46.0951 82.2594 42.0483 80.4204C36.921 78.1043 31.8715 78.1645 26.79 80.4899C25.9614 80.8651 25.0642 81.0874 24.2035 81.4163C20.7792 82.6254 17.5655 82.0417 15.0797 79.4939C3.46089 67.5937 -2.29355 53.4978 0.851491 36.6688C2.57737 27.4043 9.38475 21.2898 18.0187 20.0622C19.3747 19.8916 20.7476 19.9134 22.0977 20.1271C23.5421 20.2674 24.9532 20.651 26.2727 21.262C31.1116 23.8329 35.7536 23.5781 40.6611 21.262C45.0926 19.1636 49.817 19.2238 54.5139 20.7987C58.312 21.9554 61.6055 24.3906 63.8484 27.7008Z" fill="white"/>
<path d="M48.9426 0C50.4762 9.11162 41.4348 19.7009 33.1763 18.4734C31.5145 10.3253 40.2125 0.115806 48.9426 0Z" fill="white"/>
</g>
<defs>
<clipPath id="clip0_47_3170">
<rect width="66" height="82" fill="white"/>
</clipPath>
</defs>
</svg>
