<svg width="57" height="70" viewBox="0 0 57 70" fill="none" xmlns="http://www.w3.org/2000/svg">
<g clip-path="url(#clip0_13_3082)">
<path d="M46.3966 32.4506C47.4358 32.8941 48.3748 33.2472 49.269 33.6881C54.0933 36.0783 56.5806 40.0911 56.9446 45.3734C57.5882 54.7508 52.355 61.191 42.6458 63.1297C40.9762 63.4617 39.2775 63.6476 37.4813 63.9264V69.9683H27.6348V63.9371H20.2494V70.0027H10.3924V63.8733H0V53.9781H7.01619V16.0859H0.0263702V6.14543H10.3133V0.00805664H20.1623V6.03664H27.4977V0.00805664H37.3995V5.94366C40.0134 6.4456 42.4691 6.72444 44.814 7.39368C53.3284 9.82634 57.1635 20.1412 52.1994 27.479C51.0573 29.1654 49.1503 30.3313 47.573 31.7122C47.2008 31.9893 46.8075 32.2362 46.3966 32.4506ZM20.2837 54.1213C26.2659 53.9434 32.1321 53.9089 37.9798 53.5291C40.4935 53.3671 42.5113 51.8747 43.445 49.3358C45.3494 44.1465 42.6247 39.3581 37.2439 38.3914C36.6414 38.2713 36.0299 38.2039 35.416 38.1896C30.589 38.1684 25.7603 38.1622 20.9299 38.1711C20.7108 38.1934 20.4944 38.2369 20.2837 38.3012V54.1213ZM20.2837 29.3672C25.4456 29.3672 30.4994 29.5956 35.5188 29.2955C39.3461 29.0644 41.4008 26.5389 41.472 22.9643C41.5512 19.1002 39.8367 17.0871 35.7826 16.3249C35.1806 16.2009 34.5689 16.1307 33.9547 16.1151C29.65 16.0797 25.3462 16.0611 21.0433 16.0593C20.7856 16.0848 20.5311 16.1364 20.2837 16.2134V29.3672Z" fill="white"/>
</g>
<defs>
<clipPath id="clip0_13_3082">
<rect width="57" height="70" fill="white"/>
</clipPath>
</defs>
</svg>
