<svg width="646" height="414" viewBox="0 0 646 414" fill="none" xmlns="http://www.w3.org/2000/svg">
<g filter="url(#filter0_d_15_3330)">
<mask id="mask0_15_3330" style="mask-type:alpha" maskUnits="userSpaceOnUse" x="36" y="36" width="574" height="342">
<rect x="36" y="36" width="574" height="342" rx="30" fill="#FFD700"/>
</mask>
<g mask="url(#mask0_15_3330)">
<rect x="36" y="36" width="574" height="342" rx="30" fill="#FFD700"/>
<g style="mix-blend-mode:color-dodge">
<g style="mix-blend-mode:color-dodge">
<path d="M296.663 287.837L154.574 296.54L304.666 351.001L373.643 389.79L288.435 378.543L304.666 351.001L419.293 345.268L353.438 284.659L406.627 287.09L478.072 274.293L420.952 244.696L413.125 211.006L463.648 195.924L498.312 138.33L661.239 111.748L581.783 94.9758L498.312 138.33L613.522 186.316L463.648 195.924L430.545 160.829L413.125 211.006L475.252 205.778L420.952 244.696L541.289 203.19L498.312 138.33L514.522 69.7135L620.083 28.9874L745.709 -50" stroke="white" stroke-linecap="round" stroke-linejoin="round"/>
</g>
<g style="mix-blend-mode:color-dodge">
<path d="M242.729 254.278L158.309 256.614L199.605 230.06L242.729 254.278ZM242.729 254.278L368.524 253.25L420.952 244.698L296.663 287.839L304.8 225.057L406.627 287.092L381.773 288.867L419.293 345.27L406.627 287.092L420.952 244.698L353.438 284.661L296.663 287.839L242.729 254.278ZM242.729 254.278L304.8 225.057L420.952 244.698L413.125 211.008L459.07 179.053L430.545 160.832L498.312 138.332L514.523 69.716L737.481 41.3711L581.783 94.9782L463.648 195.926" stroke="white" stroke-linecap="round" stroke-linejoin="round"/>
</g>
<g style="mix-blend-mode:color-dodge">
<path d="M304.667 351L450.469 386.151L419.293 345.267L467.481 326.889L478.072 274.293L475.252 205.777L463.648 195.923L541.289 203.189L604.71 254.589L478.072 274.293L491.005 304.114L420.952 244.696L381.773 288.864L304.667 351ZM304.667 351L293.625 334.385L296.663 287.836L368.524 253.247L413.125 211.005" stroke="white" stroke-linecap="round" stroke-linejoin="round"/>
</g>
<g style="mix-blend-mode:color-dodge">
<path d="M467.481 326.891L531.837 346.302L419.293 345.269L416.789 401.432L304.666 351.002" stroke="white" stroke-linecap="round" stroke-linejoin="round"/>
</g>
<g style="mix-blend-mode:color-dodge">
<path d="M-7.43811 306.373L50.0543 363.029L95.5348 319.816L304.666 351.002L199.106 394.67L95.5348 319.816L296.663 287.838" stroke="white" stroke-linecap="round" stroke-linejoin="round"/>
</g>
<g style="mix-blend-mode:color-dodge">
<path d="M406.627 287.09L467.481 326.89L381.773 288.864L304.8 225.055L353.438 284.659L381.773 288.864L293.625 334.386L154.574 296.54L95.5349 319.815L-7.43802 306.372L-32.8613 349.777L95.5349 319.815L293.625 334.386L199.106 394.669L-7.43802 306.372L71.5112 431.634" stroke="white" stroke-linecap="round" stroke-linejoin="round"/>
</g>
<g style="mix-blend-mode:color-dodge">
<path d="M541.289 203.189L625.97 345.268L491.005 304.115L604.71 254.59L420.952 244.696" stroke="white" stroke-linecap="round" stroke-linejoin="round"/>
</g>
<g style="mix-blend-mode:color-dodge">
<path d="M459.07 179.051L498.312 138.331L681.739 123.474" stroke="white" stroke-linecap="round" stroke-linejoin="round"/>
</g>
<g style="mix-blend-mode:color-dodge">
<path d="M737.48 41.3696L620.083 28.9883L775 1.46323L514.523 69.7145L581.783 94.9767L537.266 28.045L742.488 -12.3779" stroke="white" stroke-linecap="round" stroke-linejoin="round"/>
</g>
<g style="mix-blend-mode:color-dodge">
<path d="M620.084 28.9873L537.266 28.0439L661.239 111.748" stroke="white" stroke-linecap="round" stroke-linejoin="round"/>
</g>
<g style="mix-blend-mode:color-dodge">
<path d="M467.481 326.889L450.469 386.151L531.837 346.301L585.089 434.104L625.97 345.267L467.481 326.889ZM467.481 326.889L491.005 304.114" stroke="white" stroke-linecap="round" stroke-linejoin="round"/>
</g>
<g style="mix-blend-mode:color-dodge">
<path d="M450.469 386.153L467.481 431.635L531.837 346.303L625.97 345.27" stroke="white" stroke-linecap="round" stroke-linejoin="round"/>
</g>
<g style="mix-blend-mode:color-dodge">
<path d="M50.0543 363.029L154.574 296.541L199.106 394.67L175.286 451L95.5348 319.815L71.5111 431.634L50.0543 363.029ZM50.0543 363.029L-76 434.104L-32.8614 349.777" stroke="white" stroke-linecap="round" stroke-linejoin="round"/>
</g>
<g style="mix-blend-mode:color-dodge">
<path d="M221.962 274.226L242.969 232.876L274.187 225.055L221.962 274.226Z" stroke="white" stroke-linecap="round" stroke-linejoin="round"/>
</g>
<g style="mix-blend-mode:color-dodge">
<path d="M47.0935 260.931L154.574 296.541L204.788 287.838L47.0935 260.931Z" stroke="white" stroke-linecap="round" stroke-linejoin="round"/>
</g>
<g style="mix-blend-mode:color-dodge">
<path d="M447.895 94.9766L402.154 145.585L430.545 160.83L447.895 94.9766Z" stroke="white" stroke-linecap="round" stroke-linejoin="round"/>
</g>
<g style="mix-blend-mode:color-dodge">
<path d="M425.024 133.401L523.461 99.2832L467.481 130.279L425.024 133.401Z" stroke="white" stroke-linecap="round" stroke-linejoin="round"/>
</g>
<g style="mix-blend-mode:color-dodge">
<path d="M314.92 159.948L325.23 195.925L336.279 181.707L314.92 159.948Z" stroke="white" stroke-linecap="round" stroke-linejoin="round"/>
</g>
<g style="mix-blend-mode:color-dodge">
<path d="M288.435 378.543L273.343 390.891" stroke="white" stroke-linecap="round" stroke-linejoin="round"/>
</g>
</g>
</g>
<g clip-path="url(#clip0_15_3330)">
<path d="M539.328 321C539.328 316.462 538.312 311.984 536.357 307.9C534.402 303.816 531.558 300.232 528.039 297.417H527.957C524.439 300.233 521.597 303.817 519.642 307.901C517.687 311.985 516.671 316.463 516.668 321C516.661 325.539 517.673 330.02 519.628 334.105C521.584 338.191 524.432 341.773 527.957 344.583H528.039C531.572 341.78 534.425 338.199 536.382 334.112C538.338 330.025 539.346 325.54 539.328 321Z" fill="#FF5F00"/>
<path d="M516.668 321C516.671 316.463 517.687 311.985 519.642 307.901C521.597 303.817 524.439 300.233 527.957 297.417C522.748 293.257 516.303 290.996 509.666 291C505.769 290.997 501.91 291.771 498.31 293.278C494.71 294.785 491.438 296.994 488.683 299.781C485.928 302.567 483.743 305.875 482.253 309.516C480.763 313.157 479.997 317.06 480 321C479.997 324.94 480.763 328.843 482.253 332.484C483.743 336.125 485.928 339.433 488.683 342.219C491.438 345.006 494.71 347.215 498.31 348.722C501.91 350.229 505.769 351.003 509.666 351C516.303 351.004 522.748 348.743 527.957 344.583C524.432 341.774 521.584 338.191 519.628 334.106C517.673 330.02 516.661 325.539 516.668 321Z" fill="#EB001B"/>
<path d="M546.334 291C539.696 290.997 533.25 293.257 528.039 297.417C531.558 300.232 534.402 303.816 536.357 307.9C538.312 311.984 539.328 316.463 539.328 321C539.346 325.541 538.338 330.025 536.382 334.112C534.425 338.199 531.572 341.78 528.039 344.583C533.25 348.743 539.696 351.003 546.334 351C550.231 351.002 554.089 350.228 557.689 348.721C561.29 347.214 564.561 345.004 567.316 342.218C570.071 339.432 572.256 336.124 573.746 332.483C575.236 328.842 576.002 324.94 576 321C575.99 313.047 572.861 305.422 567.3 299.798C561.739 294.174 554.199 291.01 546.334 291Z" fill="#F79E1B"/>
</g>
<path d="M94.92 214.56L78.68 230.576V234.16H89.88V224.64L94.36 220.16V242H89.88V238.08H74.76V230.464C74.76 230.016 74.76 229.661 74.76 229.4C74.7973 229.139 74.8533 228.915 74.928 228.728C75.0027 228.504 75.1147 228.317 75.264 228.168C75.4133 227.981 75.6 227.757 75.824 227.496L88.648 214.56H94.92ZM124.014 214.56L107.774 230.576V234.16H118.974V224.64L123.454 220.16V242H118.974V238.08H103.854V230.464C103.854 230.016 103.854 229.661 103.854 229.4C103.891 229.139 103.947 228.915 104.022 228.728C104.096 228.504 104.208 228.317 104.358 228.168C104.507 227.981 104.694 227.757 104.918 227.496L117.742 214.56H124.014ZM152.548 238.08C152.548 239.163 152.156 240.096 151.372 240.88C150.625 241.627 149.71 242 148.628 242H136.868C135.785 242 134.852 241.627 134.068 240.88C133.321 240.096 132.948 239.163 132.948 238.08V234.16H137.428V238.08H148.068V226.88H132.948V214.56H152.548V218.48H136.868V222.96H148.628C149.71 222.96 150.625 223.352 151.372 224.136C152.156 224.883 152.548 225.797 152.548 226.88V238.08ZM182.201 214.56L165.961 230.576V234.16H177.161V224.64L181.641 220.16V242H177.161V238.08H162.041V230.464C162.041 230.016 162.041 229.661 162.041 229.4C162.079 229.139 162.135 228.915 162.209 228.728C162.284 228.504 162.396 228.317 162.545 228.168C162.695 227.981 162.881 227.757 163.105 227.496L175.929 214.56H182.201ZM222.506 214.56L206.266 230.576V234.16H217.466V224.64L221.946 220.16V242H217.466V238.08H202.346V230.464C202.346 230.016 202.346 229.661 202.346 229.4C202.383 229.139 202.439 228.915 202.514 228.728C202.589 228.504 202.701 228.317 202.85 228.168C202.999 227.981 203.186 227.757 203.41 227.496L216.234 214.56H222.506ZM251.04 238.08C251.04 239.163 250.648 240.096 249.864 240.88C249.117 241.627 248.202 242 247.12 242H235.36C234.277 242 233.344 241.627 232.56 240.88C231.813 240.096 231.44 239.163 231.44 238.08V234.16H235.92V238.08H246.56V226.88H231.44V214.56H251.04V218.48H235.36V222.96H247.12C248.202 222.96 249.117 223.352 249.864 224.136C250.648 224.883 251.04 225.797 251.04 226.88V238.08ZM280.693 238.08C280.693 239.163 280.301 240.096 279.517 240.88C278.771 241.627 277.856 242 276.773 242H264.453C263.371 242 262.437 241.627 261.653 240.88C260.907 240.096 260.533 239.163 260.533 238.08V218.48C260.533 217.397 260.907 216.483 261.653 215.736C262.437 214.952 263.371 214.56 264.453 214.56H280.133V218.48H265.013V225.76H276.773C277.856 225.76 278.771 226.152 279.517 226.936C280.301 227.683 280.693 228.597 280.693 229.68V238.08ZM276.213 238.08V229.68H265.013V238.08H276.213ZM309.787 214.56L293.547 230.576V234.16H304.747V224.64L309.227 220.16V242H304.747V238.08H289.627V230.464C289.627 230.016 289.627 229.661 289.627 229.4C289.665 229.139 289.721 228.915 289.795 228.728C289.87 228.504 289.982 228.317 290.131 228.168C290.281 227.981 290.467 227.757 290.691 227.496L303.515 214.56H309.787ZM350.092 214.56L333.852 230.576V234.16H345.052V224.64L349.532 220.16V242H345.052V238.08H329.932V230.464C329.932 230.016 329.932 229.661 329.932 229.4C329.969 229.139 330.025 228.915 330.1 228.728C330.175 228.504 330.287 228.317 330.436 228.168C330.585 227.981 330.772 227.757 330.996 227.496L343.82 214.56H350.092ZM378.626 238.08C378.626 239.163 378.234 240.096 377.45 240.88C376.703 241.627 375.788 242 374.706 242H362.946C361.863 242 360.93 241.627 360.146 240.88C359.399 240.096 359.026 239.163 359.026 238.08V234.16H363.506V238.08H374.146V226.88H359.026V214.56H378.626V218.48H362.946V222.96H374.706C375.788 222.96 376.703 223.352 377.45 224.136C378.234 224.883 378.626 225.797 378.626 226.88V238.08ZM408.279 238.08C408.279 239.163 407.887 240.096 407.103 240.88C406.357 241.627 405.442 242 404.359 242H392.039C390.957 242 390.023 241.627 389.239 240.88C388.493 240.096 388.119 239.163 388.119 238.08V218.48C388.119 217.397 388.493 216.483 389.239 215.736C390.023 214.952 390.957 214.56 392.039 214.56H407.719V218.48H392.599V225.76H404.359C405.442 225.76 406.357 226.152 407.103 226.936C407.887 227.683 408.279 228.597 408.279 229.68V238.08ZM403.799 238.08V229.68H392.599V238.08H403.799ZM436.813 229.176L423.933 242H418.221L432.333 227.832V218.48H421.693V222.4H417.213V214.56H436.813V229.176ZM477.678 214.56L461.438 230.576V234.16H472.638V224.64L477.118 220.16V242H472.638V238.08H457.518V230.464C457.518 230.016 457.518 229.661 457.518 229.4C457.555 229.139 457.611 228.915 457.686 228.728C457.76 228.504 457.872 228.317 458.022 228.168C458.171 227.981 458.358 227.757 458.582 227.496L471.406 214.56H477.678ZM506.212 238.08C506.212 239.163 505.82 240.096 505.036 240.88C504.289 241.627 503.374 242 502.292 242H490.532C489.449 242 488.516 241.627 487.732 240.88C486.985 240.096 486.612 239.163 486.612 238.08V234.16H491.092V238.08H501.732V226.88H486.612V214.56H506.212V218.48H490.532V222.96H502.292C503.374 222.96 504.289 223.352 505.036 224.136C505.82 224.883 506.212 225.797 506.212 226.88V238.08ZM535.305 229.176L522.425 242H516.713L530.825 227.832V218.48H520.185V222.4H515.705V214.56H535.305V229.176ZM564.399 229.176L551.519 242H545.807L559.919 227.832V218.48H549.279V222.4H544.799V214.56H564.399V229.176Z" fill="black"/>
<path d="M78.625 321.113H71.2305V327.16H79.8203V329H68.9805V311.938H79.7031V313.789H71.2305V319.273H78.625V321.113ZM87.9203 316.32L87.9789 317.727C88.9086 316.633 90.1625 316.086 91.7406 316.086C93.5141 316.086 94.7211 316.766 95.3617 318.125C95.7836 317.516 96.3305 317.023 97.0023 316.648C97.682 316.273 98.4828 316.086 99.4047 316.086C102.186 316.086 103.6 317.559 103.647 320.504V329H101.479V320.633C101.479 319.727 101.272 319.051 100.858 318.605C100.444 318.152 99.7484 317.926 98.7719 317.926C97.9672 317.926 97.2992 318.168 96.768 318.652C96.2367 319.129 95.9281 319.773 95.8422 320.586V329H93.6625V320.691C93.6625 318.848 92.7602 317.926 90.9555 317.926C89.5336 317.926 88.5609 318.531 88.0375 319.742V329H85.8695V316.32H87.9203ZM112.884 329H110.716V316.32H112.884V329ZM110.54 312.957C110.54 312.605 110.645 312.309 110.856 312.066C111.075 311.824 111.395 311.703 111.817 311.703C112.239 311.703 112.559 311.824 112.778 312.066C112.997 312.309 113.106 312.605 113.106 312.957C113.106 313.309 112.997 313.602 112.778 313.836C112.559 314.07 112.239 314.188 111.817 314.188C111.395 314.188 111.075 314.07 110.856 313.836C110.645 313.602 110.54 313.309 110.54 312.957ZM126.093 318.266C125.765 318.211 125.409 318.184 125.027 318.184C123.605 318.184 122.64 318.789 122.132 320V329H119.964V316.32H122.073L122.109 317.785C122.82 316.652 123.827 316.086 125.132 316.086C125.554 316.086 125.874 316.141 126.093 316.25V318.266ZM139.056 329C138.931 328.75 138.83 328.305 138.752 327.664C137.744 328.711 136.541 329.234 135.142 329.234C133.892 329.234 132.865 328.883 132.06 328.18C131.263 327.469 130.865 326.57 130.865 325.484C130.865 324.164 131.365 323.141 132.365 322.414C133.373 321.68 134.787 321.312 136.607 321.312H138.716V320.316C138.716 319.559 138.49 318.957 138.037 318.512C137.584 318.059 136.916 317.832 136.033 317.832C135.259 317.832 134.611 318.027 134.088 318.418C133.564 318.809 133.302 319.281 133.302 319.836H131.123C131.123 319.203 131.345 318.594 131.791 318.008C132.244 317.414 132.853 316.945 133.619 316.602C134.392 316.258 135.24 316.086 136.162 316.086C137.623 316.086 138.767 316.453 139.595 317.188C140.423 317.914 140.853 318.918 140.884 320.199V326.035C140.884 327.199 141.033 328.125 141.33 328.812V329H139.056ZM135.459 327.348C136.138 327.348 136.783 327.172 137.392 326.82C138.002 326.469 138.443 326.012 138.716 325.449V322.848H137.017C134.361 322.848 133.033 323.625 133.033 325.18C133.033 325.859 133.259 326.391 133.713 326.773C134.166 327.156 134.748 327.348 135.459 327.348ZM150.824 313.25V316.32H153.191V317.996H150.824V325.859C150.824 326.367 150.93 326.75 151.141 327.008C151.352 327.258 151.711 327.383 152.219 327.383C152.469 327.383 152.812 327.336 153.25 327.242V329C152.68 329.156 152.125 329.234 151.586 329.234C150.617 329.234 149.887 328.941 149.395 328.355C148.902 327.77 148.656 326.938 148.656 325.859V317.996H146.348V316.32H148.656V313.25H150.824ZM164.596 329.234C162.877 329.234 161.479 328.672 160.401 327.547C159.323 326.414 158.784 324.902 158.784 323.012V322.613C158.784 321.355 159.022 320.234 159.498 319.25C159.983 318.258 160.655 317.484 161.514 316.93C162.381 316.367 163.319 316.086 164.327 316.086C165.975 316.086 167.256 316.629 168.17 317.715C169.084 318.801 169.541 320.355 169.541 322.379V323.281H160.952C160.983 324.531 161.346 325.543 162.041 326.316C162.745 327.082 163.635 327.465 164.713 327.465C165.479 327.465 166.127 327.309 166.659 326.996C167.19 326.684 167.655 326.27 168.053 325.754L169.377 326.785C168.315 328.418 166.721 329.234 164.596 329.234ZM164.327 317.867C163.452 317.867 162.717 318.188 162.123 318.828C161.53 319.461 161.162 320.352 161.022 321.5H167.373V321.336C167.311 320.234 167.014 319.383 166.483 318.781C165.952 318.172 165.233 317.867 164.327 317.867ZM183.044 325.637C183.044 325.051 182.821 324.598 182.376 324.277C181.938 323.949 181.169 323.668 180.067 323.434C178.973 323.199 178.102 322.918 177.454 322.59C176.813 322.262 176.337 321.871 176.024 321.418C175.72 320.965 175.567 320.426 175.567 319.801C175.567 318.762 176.005 317.883 176.88 317.164C177.762 316.445 178.887 316.086 180.255 316.086C181.692 316.086 182.856 316.457 183.747 317.199C184.645 317.941 185.095 318.891 185.095 320.047H182.915C182.915 319.453 182.661 318.941 182.153 318.512C181.653 318.082 181.02 317.867 180.255 317.867C179.466 317.867 178.848 318.039 178.403 318.383C177.958 318.727 177.735 319.176 177.735 319.73C177.735 320.254 177.942 320.648 178.356 320.914C178.77 321.18 179.516 321.434 180.595 321.676C181.68 321.918 182.559 322.207 183.231 322.543C183.903 322.879 184.399 323.285 184.72 323.762C185.048 324.23 185.212 324.805 185.212 325.484C185.212 326.617 184.759 327.527 183.852 328.215C182.946 328.895 181.77 329.234 180.325 329.234C179.309 329.234 178.411 329.055 177.63 328.695C176.848 328.336 176.235 327.836 175.79 327.195C175.352 326.547 175.134 325.848 175.134 325.098H177.302C177.341 325.824 177.63 326.402 178.169 326.832C178.716 327.254 179.434 327.465 180.325 327.465C181.145 327.465 181.802 327.301 182.294 326.973C182.794 326.637 183.044 326.191 183.044 325.637ZM210.939 321.465H203.779V329H201.529V311.938H212.099V313.789H203.779V319.625H210.939V321.465ZM225.625 327.746C224.781 328.738 223.543 329.234 221.91 329.234C220.559 329.234 219.527 328.844 218.816 328.062C218.113 327.273 217.758 326.109 217.75 324.57V316.32H219.918V324.512C219.918 326.434 220.699 327.395 222.262 327.395C223.918 327.395 225.02 326.777 225.566 325.543V316.32H227.734V329H225.672L225.625 327.746ZM237.58 313.25V316.32H239.948V317.996H237.58V325.859C237.58 326.367 237.686 326.75 237.897 327.008C238.108 327.258 238.467 327.383 238.975 327.383C239.225 327.383 239.569 327.336 240.006 327.242V329C239.436 329.156 238.881 329.234 238.342 329.234C237.373 329.234 236.643 328.941 236.151 328.355C235.659 327.77 235.413 326.938 235.413 325.859V317.996H233.104V316.32H235.413V313.25H237.58ZM253.919 327.746C253.075 328.738 251.837 329.234 250.204 329.234C248.852 329.234 247.821 328.844 247.11 328.062C246.407 327.273 246.052 326.109 246.044 324.57V316.32H248.212V324.512C248.212 326.434 248.993 327.395 250.555 327.395C252.212 327.395 253.313 326.777 253.86 325.543V316.32H256.028V329H253.966L253.919 327.746ZM269.062 318.266C268.734 318.211 268.378 318.184 267.995 318.184C266.573 318.184 265.609 318.789 265.101 320V329H262.933V316.32H265.042L265.077 317.785C265.788 316.652 266.796 316.086 268.101 316.086C268.523 316.086 268.843 316.141 269.062 316.25V318.266ZM279.693 329.234C277.974 329.234 276.576 328.672 275.498 327.547C274.42 326.414 273.88 324.902 273.88 323.012V322.613C273.88 321.355 274.119 320.234 274.595 319.25C275.08 318.258 275.752 317.484 276.611 316.93C277.478 316.367 278.416 316.086 279.423 316.086C281.072 316.086 282.353 316.629 283.267 317.715C284.181 318.801 284.638 320.355 284.638 322.379V323.281H276.048C276.08 324.531 276.443 325.543 277.138 326.316C277.841 327.082 278.732 327.465 279.81 327.465C280.576 327.465 281.224 327.309 281.755 326.996C282.287 326.684 282.752 326.27 283.15 325.754L284.474 326.785C283.412 328.418 281.818 329.234 279.693 329.234ZM279.423 317.867C278.548 317.867 277.814 318.188 277.22 318.828C276.627 319.461 276.259 320.352 276.119 321.5H282.47V321.336C282.408 320.234 282.111 319.383 281.58 318.781C281.048 318.172 280.33 317.867 279.423 317.867Z" fill="black"/>
</g>
<defs>
<filter id="filter0_d_15_3330" x="0" y="0" width="646" height="414" filterUnits="userSpaceOnUse" color-interpolation-filters="sRGB">
<feFlood flood-opacity="0" result="BackgroundImageFix"/>
<feColorMatrix in="SourceAlpha" type="matrix" values="0 0 0 0 0 0 0 0 0 0 0 0 0 0 0 0 0 0 127 0" result="hardAlpha"/>
<feOffset/>
<feGaussianBlur stdDeviation="18"/>
<feComposite in2="hardAlpha" operator="out"/>
<feColorMatrix type="matrix" values="0 0 0 0 0 0 0 0 0 0 0 0 0 0 0 0 0 0 0.09 0"/>
<feBlend mode="normal" in2="BackgroundImageFix" result="effect1_dropShadow_15_3330"/>
<feBlend mode="normal" in="SourceGraphic" in2="effect1_dropShadow_15_3330" result="shape"/>
</filter>
<clipPath id="clip0_15_3330">
<rect width="96" height="60" fill="white" transform="translate(480 291)"/>
</clipPath>
</defs>
</svg>
