<svg width="42" height="53" viewBox="0 0 42 53" fill="none" xmlns="http://www.w3.org/2000/svg">
<path d="M10.2195 12.4226C9.9912 8.85849 10.9996 5.82479 13.6173 3.43714C15.4859 1.69201 17.9523 0.730349 20.5085 0.750304C23.6131 0.738742 26.2323 1.90656 28.3097 4.2046C30.3872 6.50264 31.1485 9.28486 30.9419 12.4183C31.2973 12.4183 31.5964 12.4183 31.8954 12.4183C33.1191 12.4472 34.3615 12.3547 35.5606 12.5368C36.6751 12.7134 37.6958 13.2662 38.4529 14.1034C39.21 14.9405 39.6581 16.0116 39.7227 17.1387C39.9394 20.7202 40.0853 24.3045 40.2572 27.8874C40.5346 33.7034 40.8178 39.5179 41.0721 45.3352C41.1212 46.4452 41.1905 47.5885 40.9926 48.6696C40.5809 50.9228 38.515 52.5719 36.2251 52.6644C36.0807 52.6644 35.9362 52.6716 35.7917 52.6716C25.6453 52.6716 15.4993 52.6716 5.35378 52.6716C2.6609 52.6716 0.505407 50.9763 0.0878942 48.4051C-0.07391 47.4064 0.0286834 46.3556 0.0734685 45.3323C0.261277 41.0455 0.47219 36.7602 0.677335 32.4691C0.922931 27.3382 1.14252 22.2074 1.4329 17.0765C1.57737 14.5415 3.8094 12.479 6.34481 12.4241C7.61035 12.4009 8.86868 12.4226 10.2195 12.4226ZM20.5518 49.2101C25.6342 49.2101 30.7161 49.2101 35.7975 49.2101C37.0414 49.2101 37.7334 48.4874 37.6929 47.2401C37.6727 46.662 37.6525 46.0839 37.625 45.5058C37.3525 39.6889 37.078 33.8725 36.8016 28.0565C36.6383 24.5994 36.4881 21.1407 36.3089 17.685C36.241 16.3972 35.5606 15.8061 34.2864 15.8061C31.6744 15.8196 29.0615 15.8297 26.4476 15.8364L6.76809 15.8856C5.58779 15.8856 4.92471 16.4897 4.85104 17.6821C4.76291 19.1029 4.71666 20.5279 4.65021 21.9501C4.25725 30.3223 3.86383 38.696 3.46991 47.071C3.40201 48.5337 4.04777 49.2058 5.51412 49.2058L20.5518 49.2101ZM27.4718 12.3937C27.7217 9.32533 26.8015 6.80615 24.1259 5.20475C21.6483 3.72331 19.0884 3.80714 16.6916 5.42299C14.2458 7.07498 13.4368 9.50744 13.6939 12.3937H27.4718Z" fill="#1A1A1A"/>
<path d="M20.601 29.8531C18.2586 29.8615 15.9824 29.0768 14.1424 27.6267C12.3024 26.1766 11.0069 24.1464 10.4665 21.8663C10.2831 21.1061 10.3828 20.421 11.0184 19.9122C11.5732 19.4642 12.2074 19.4179 12.8503 19.6868C13.4686 19.9469 13.7243 20.4802 13.8904 21.1061C14.6258 23.8724 16.3796 25.6443 19.1765 26.2918C22.7261 27.1142 26.3436 24.8985 27.2884 21.3778C27.3433 21.1696 27.3895 20.9586 27.456 20.7534C27.5872 20.3259 27.8777 19.9652 28.2674 19.7459C28.657 19.5267 29.116 19.4656 29.5493 19.5755C29.976 19.6726 30.3485 19.9313 30.5888 20.2972C30.829 20.6631 30.9183 21.1079 30.838 21.5382C30.7316 22.1035 30.5724 22.6575 30.3627 23.1931C28.8169 27.2428 24.9755 29.8545 20.601 29.8531Z" fill="#1A1A1A"/>
</svg>
