<svg width="24" height="24" viewBox="0 0 24 24" fill="none" xmlns="http://www.w3.org/2000/svg">
<g clip-path="url(#clip0_56_8712)">
<path d="M13.4184 11.9987L23.7057 1.71278C23.7989 1.61959 23.8729 1.50892 23.9234 1.38712C23.9738 1.26532 23.9998 1.13477 23.9998 1.00293C23.9998 0.871083 23.9738 0.740533 23.9234 0.618732C23.8729 0.496932 23.7989 0.386269 23.7057 0.293071C23.6125 0.199813 23.5018 0.125836 23.38 0.0753614C23.2582 0.0248871 23.1277 -0.00109863 22.9958 -0.00109863C22.864 -0.00109863 22.7334 0.0248871 22.6116 0.0753614C22.4898 0.125836 22.3792 0.199813 22.286 0.293071L12.0027 10.5803L1.7155 0.293071C1.62241 0.199854 1.51184 0.125899 1.39015 0.0754431C1.26846 0.024987 1.13804 -0.000984294 1.0063 -0.000984294C0.874567 -0.000984294 0.744106 0.024987 0.622417 0.0754431C0.500728 0.125899 0.390191 0.199854 0.297107 0.293071C0.203849 0.386269 0.12988 0.496932 0.079406 0.618732C0.0289318 0.740533 0.00292969 0.871083 0.00292969 1.00293C0.00292969 1.13477 0.0289318 1.26532 0.079406 1.38712C0.12988 1.50892 0.203849 1.61959 0.297107 1.71278L10.583 11.9987L0.297107 22.2859C0.203849 22.3791 0.12988 22.4898 0.079406 22.6116C0.0289318 22.7334 0.00292969 22.8639 0.00292969 22.9958C0.00292969 23.1276 0.0289318 23.2582 0.079406 23.38C0.12988 23.5018 0.203849 23.6124 0.297107 23.7056C0.390186 23.7988 0.500744 23.8727 0.62245 23.9229C0.744155 23.9732 0.874616 23.999 1.0063 23.9987C1.13799 23.999 1.26842 23.9732 1.39012 23.9229C1.51183 23.8727 1.62242 23.7988 1.7155 23.7056L12.0027 13.4184L22.2886 23.7056C22.4773 23.8936 22.7328 23.999 22.9991 23.9987C23.1308 23.999 23.2613 23.9732 23.383 23.9229C23.5047 23.8727 23.6153 23.7988 23.7083 23.7056C23.8016 23.6124 23.8756 23.5018 23.926 23.38C23.9765 23.2582 24.0025 23.1276 24.0025 22.9958C24.0025 22.8639 23.9765 22.7334 23.926 22.6116C23.8756 22.4898 23.8016 22.3791 23.7083 22.2859L13.4184 11.9987Z" fill="white"/>
</g>
<defs>
<clipPath id="clip0_56_8712">
<rect width="24" height="24" fill="white"/>
</clipPath>
</defs>
</svg>
