<svg width="63" height="103" viewBox="0 0 63 103" fill="none" xmlns="http://www.w3.org/2000/svg">
<g clip-path="url(#clip0_13_3093)">
<path d="M31.5242 0C31.4948 0.0748859 31.5846 0.112329 31.5807 0.179248L31.4925 0.202354C31.4877 0.152962 31.4829 0.103561 31.4774 0.0549648C31.4774 0.0366416 31.4774 0.0183231 31.4734 0H31.5242Z" fill="#3C3C3B"/>
<path d="M31.4924 0.202305L31.5806 0.179199C32.1614 1.13519 32.747 2.09118 33.3238 3.05196C43.1496 19.4058 52.9726 35.7598 62.7926 52.1142C62.8474 52.2066 62.8943 52.3046 62.9444 52.3994C62.8351 52.4031 62.7271 52.3754 62.6329 52.3197C61.0683 51.6059 59.5042 50.8902 57.9406 50.1727C56.9766 49.7314 56.0124 49.2905 55.0478 48.8503C53.6574 48.2169 52.2671 47.5891 50.8759 46.955C49.843 46.4834 48.8102 46.003 47.7773 45.5322C45.8557 44.6569 43.9328 43.7833 42.0085 42.9112C40.808 42.3647 39.6107 41.8102 38.411 41.2621C36.5884 40.4296 34.7682 39.5939 32.94 38.7725C32.4697 38.5614 32.016 38.3073 31.5187 38.1559L31.4527 38.1487C31.4813 38.0258 31.4893 37.8991 31.4766 37.7735C31.4766 25.3674 31.4766 12.9608 31.4766 0.553644C31.4805 0.436536 31.4885 0.318618 31.4924 0.202305Z" fill="#343434"/>
<path d="M31.4924 0.202399C31.4885 0.319508 31.4805 0.436629 31.4805 0.553738C31.4805 12.9604 31.4805 25.367 31.4805 37.7736C31.4933 37.8992 31.4852 38.0259 31.4567 38.1488C31.3709 38.1807 31.2835 38.2078 31.2009 38.246C29.453 39.0427 27.7051 39.8394 25.9572 40.636C22.9317 42.0169 19.9065 43.3951 16.8816 44.7707C14.9356 45.6571 12.9906 46.5456 11.0468 47.4363C7.91536 48.865 4.78397 50.2923 1.65257 51.7183C1.10596 51.9661 0.572034 52.2433 0.0055542 52.4457C0.469543 51.661 0.929562 50.8731 1.39911 50.0916C5.41717 43.3996 9.43602 36.7077 13.4557 30.0158L30.3039 1.97337C30.6916 1.32887 31.0865 0.689162 31.4781 0.0478516L31.4924 0.202399Z" fill="#8B8B8B"/>
<path d="M0.0047705 52.4487C0.57125 52.2463 1.10515 51.9707 1.65177 51.7214C4.78475 50.2975 7.91615 48.8701 11.046 47.4393C12.9909 46.5518 14.9358 45.6633 16.8808 44.7737C19.9052 43.3928 22.9304 42.0146 25.9564 40.639C27.7043 39.8424 29.4522 39.0457 31.2001 38.2491C31.2795 38.2108 31.3701 38.1837 31.4559 38.1519L31.5218 38.1591V70.9169C31.5218 70.9965 31.5218 71.0841 31.5171 71.1686C31.4209 71.1957 31.3629 71.1208 31.2946 71.0802C20.9131 64.9252 10.5316 58.7683 0.150151 52.6096C0.0937415 52.5714 -0.0254206 52.5793 0.0047705 52.4487Z" fill="#393939"/>
<path d="M31.5171 71.1655C31.5171 71.081 31.5219 70.9974 31.5219 70.9137V38.1599C32.0192 38.3113 32.4752 38.5654 32.9432 38.7765C34.7706 39.5979 36.5916 40.4336 38.4142 41.2661C39.6139 41.8142 40.8112 42.3687 42.0117 42.9152C43.9333 43.7904 45.8562 44.6641 47.7805 45.5362C48.8134 46.007 49.8462 46.4874 50.8791 46.959C52.2687 47.5963 53.6598 48.2209 55.051 48.8543C56.0166 49.2935 56.9809 49.7343 57.9438 50.1767C59.5079 50.8926 61.072 51.6083 62.6361 52.3237C62.7303 52.3794 62.8383 52.407 62.9476 52.4034C63.0946 52.5563 62.9078 52.5691 62.8498 52.6033C62.022 53.1004 61.1901 53.5896 60.3599 54.0819C58.7751 55.0214 57.1909 55.9615 55.6072 56.9021L48.6434 61.0328L40.7603 65.7068C38.4388 67.0834 36.1172 68.4598 33.7957 69.8358C33.0362 70.2804 32.2758 70.7209 31.5171 71.1655Z" fill="#141414"/>
<path d="M62.9031 58.6587C62.2397 59.6044 61.5802 60.5516 60.9168 61.494C51.1821 75.2465 41.4476 88.9974 31.7133 102.747C31.6474 102.84 31.6339 103.001 31.4647 103C31.4694 102.884 31.4789 102.767 31.4789 102.649C31.4789 94.1597 31.4789 85.67 31.4789 77.1802C34.0102 75.683 36.5415 74.1859 39.0728 72.6887L62.6878 58.6993C62.745 58.6651 62.8054 58.6356 62.8641 58.6038L62.9031 58.6587Z" fill="#3C3C3B"/>
<path d="M31.4797 77.1804C31.4797 85.6701 31.4797 94.1598 31.4797 102.65C31.4797 102.767 31.4702 102.884 31.4654 103C31.0221 102.454 30.6392 101.865 30.2332 101.291C24.8862 93.7374 19.5416 86.1821 14.1993 78.6255C10.3783 73.2236 6.55808 67.8212 2.73865 62.4183C1.90707 61.2424 1.07524 60.0663 0.243129 58.8899C0.189897 58.815 0.144603 58.7354 0.096138 58.6573L0.133477 58.6143C0.868391 58.9951 1.56358 59.442 2.27863 59.8626C6.96142 62.6339 11.6424 65.4084 16.3214 68.1861L31.378 77.1167C31.4106 77.1342 31.4448 77.1581 31.4797 77.1804Z" fill="#8B8B8B"/>
<path d="M0.0587939 58.5935L0.026207 58.5688C0.0571925 58.5505 0.0651499 58.5632 0.0587939 58.5935Z" fill="#8B8B8B"/>
<path d="M62.9412 58.5989V58.5615L62.9738 58.5695L62.9404 58.5926L62.9412 58.5989Z" fill="#3C3C3B"/>
<path d="M0.0587997 58.5935L0.132683 58.615C0.119971 58.6285 0.108056 58.6429 0.0953437 58.6572L0.0587997 58.5935Z" fill="#8B8B8B"/>
<path d="M62.8649 58.6039C62.8896 58.5895 62.9126 58.5576 62.9444 58.5983V58.5927C62.9464 58.5993 62.9472 58.6063 62.9465 58.6133C62.9459 58.6202 62.9439 58.6269 62.9406 58.6331C62.9374 58.6392 62.933 58.6447 62.9276 58.6491C62.9222 58.6535 62.9161 58.6569 62.9094 58.6589L62.8649 58.6039Z" fill="#3C3C3B"/>
</g>
<defs>
<clipPath id="clip0_13_3093">
<rect width="63" height="103" fill="white"/>
</clipPath>
</defs>
</svg>
