<svg width="85" height="61" viewBox="0 0 85 61" fill="none" xmlns="http://www.w3.org/2000/svg">
<path d="M22.5482 60.0001H2.11255C0.756678 60.0001 -0.246362 58.3995 0.0532166 56.7191L2.13915 45.0761C2.36106 43.8546 3.21098 42.9878 4.19626 42.9878H20.4645C21.4498 42.9878 22.3041 43.8546 22.5238 45.0761L24.6075 56.7191C24.9071 58.3995 23.9041 60.0001 22.5482 60.0001Z" fill="#FFD700"/>
<path d="M53.3604 60.0001H32.9247C31.571 60.0001 30.5658 58.3995 30.8676 56.7191L32.9513 45.0761C33.1733 43.8546 34.0232 42.9878 35.0085 42.9878H51.2767C52.262 42.9878 53.1163 43.8546 53.336 45.0761L55.4197 56.7191C55.7282 58.3995 54.7229 60.0001 53.3604 60.0001Z" fill="#FFD700"/>
<path d="M82.5488 60.0123H62.111C60.7573 60.0123 59.752 58.4117 60.0538 56.7313L62.1376 45.0883C62.3595 43.8668 63.2116 43 64.1969 43H80.4651C81.4504 43 82.3048 43.8668 82.5222 45.0883L84.6059 56.7313C84.9077 58.4117 83.898 60.0123 82.5488 60.0123Z" fill="#FFD700"/>
<path d="M37.9577 39.0082H17.522C16.1661 39.0082 15.1631 37.4054 15.4649 35.7251L17.5486 24.0842C17.7705 22.8605 18.6204 21.9937 19.6057 21.9937H35.8739C36.8592 21.9937 37.7136 22.8605 37.9333 24.0842L40.017 35.7251C40.3188 37.4054 39.3136 39.0082 37.9577 39.0082Z" fill="#FFD700"/>
<path d="M53.3604 17.0146H32.9247C31.571 17.0146 30.5658 15.414 30.8676 13.7336L32.9513 2.09056C33.1733 0.869056 34.0232 0 35.0085 0H51.2767C52.262 0 53.1163 0.869056 53.336 2.09056L55.4197 13.7336C55.7282 15.4228 54.7229 17.0146 53.3604 17.0146Z" fill="#FFD700"/>
<path d="M68.7787 39.0082H48.3408C46.9871 39.0082 45.9819 37.4054 46.2837 35.7251L48.3674 24.0842C48.5893 22.8605 49.4393 21.9937 50.4245 21.9937H66.6928C67.6803 21.9937 68.5346 22.8605 68.7521 24.0842L70.8358 35.7251C71.1376 37.4054 70.1324 39.0082 68.7787 39.0082Z" fill="#FFD700"/>
</svg>
