<svg width="435" height="123" viewBox="0 0 435 123" fill="none" xmlns="http://www.w3.org/2000/svg">
<path d="M38.7353 42.1826L27.7679 5.59107C27.2209 3.76615 24.6626 3.66301 23.9551 5.43189C16.9728 22.8888 9.84557 38.0209 1.15483 58.8744C1.05334 59.1179 1.00002 59.3804 1.00002 59.6442L1.00001 121.011C1.00001 122.116 1.89544 123 3.00001 123H432C433.105 123 434 122.105 434 121V93.5V65.5136C434 64.6183 433.405 63.832 432.543 63.5888L417.594 59.3691L401.526 54.8339C401.302 54.7706 401.09 54.6686 400.901 54.5326L381.029 40.236C380.747 40.0333 380.523 39.7607 380.378 39.4452L366.786 9.76249C366.567 9.28402 366.168 8.91119 365.676 8.7248L344.378 0.658462C343.397 0.287286 342.297 0.735597 341.855 1.68599L330.004 27.1899C329.852 27.5179 329.613 27.7984 329.314 28.0016L313.965 38.4268C312.861 39.1764 311.347 38.6557 310.937 37.3858L299.999 3.44661C299.517 1.94892 297.573 1.56948 296.563 2.77557L282.16 19.9634L240.287 68.5572C239.228 69.7858 237.224 69.3097 236.831 67.7363L225.729 23.2861C225.358 21.8009 223.524 21.2661 222.413 22.319L178.947 63.5047C177.879 64.5164 176.121 64.0682 175.668 62.6687L162.84 23.0303C162.383 21.6187 160.602 21.1785 159.54 22.2148L137.184 44.032C136.548 44.6523 135.58 44.7791 134.806 44.3434L107.333 28.8759C106.24 28.2607 104.858 28.7912 104.457 29.9793L90.4296 71.5598C89.8141 73.3842 87.2288 73.3705 86.6328 71.5396L70.7548 22.7659C70.3174 21.4222 68.6623 20.9436 67.5752 21.8464L41.9289 43.147C40.8264 44.0627 39.1468 43.5555 38.7353 42.1826Z" fill="url(#paint0_linear_347_7)"/>
<path d="M434 64L401.526 54.8339C401.302 54.7706 401.09 54.6686 400.901 54.5326L381.029 40.236C380.747 40.0333 380.523 39.7607 380.378 39.4452L366.786 9.76249C366.567 9.28402 366.168 8.91119 365.676 8.7248L344.378 0.658462C343.397 0.287286 342.297 0.735597 341.855 1.68599L330.004 27.1899C329.852 27.5179 329.613 27.7984 329.314 28.0016L313.965 38.4268C312.861 39.1764 311.347 38.6557 310.937 37.3858L299.999 3.44661C299.517 1.94892 297.573 1.56948 296.563 2.77557L282.16 19.9634L240.287 68.5572C239.228 69.7858 237.224 69.3097 236.831 67.7363L225.729 23.2861C225.358 21.8009 223.524 21.2661 222.413 22.319L178.947 63.5047C177.879 64.5164 176.121 64.0682 175.668 62.6687L162.84 23.0303C162.383 21.6187 160.602 21.1785 159.54 22.2148L137.184 44.032C136.548 44.6523 135.58 44.7791 134.806 44.3434L107.333 28.8759C106.24 28.2607 104.858 28.7912 104.457 29.9793L90.4296 71.5598C89.8141 73.3842 87.2288 73.3705 86.6328 71.5396L70.7548 22.7659C70.3174 21.4222 68.6623 20.9436 67.5752 21.8464L41.9289 43.147C40.8264 44.0627 39.1468 43.5555 38.7353 42.1826L27.7679 5.59108C27.2209 3.76615 24.6626 3.66301 23.9551 5.43189C16.9314 22.9923 9.76101 38.2003 1.00002 59.2461" stroke="#CB4A4D"/>
<defs>
<linearGradient id="paint0_linear_347_7" x1="217.5" y1="0" x2="217.5" y2="123" gradientUnits="userSpaceOnUse">
<stop stop-color="#F9878A"/>
<stop offset="1" stop-color="white"/>
</linearGradient>
</defs>
</svg>
