<svg width="43" height="90" viewBox="0 0 43 90" fill="none" xmlns="http://www.w3.org/2000/svg">
<g clip-path="url(#clip0_11_2223)">
<path d="M1.40048 60.3418C3.47636 64.0153 7.03465 65.1955 10.3397 66.6167C15.4176 68.8075 18.1789 72.6974 19.4701 77.8215C20.397 81.4016 20.5794 85.1308 20.0064 88.7829C19.9394 89.2083 20.0064 89.8058 19.557 89.9681C19.1075 90.1303 18.8965 89.5722 18.6159 89.2993C16.9447 87.6887 14.8664 86.7692 12.7557 85.9282C10.6055 85.0772 8.5596 83.9875 6.6572 82.6801C1.4675 79.1001 -0.121669 73.9243 0.0347674 68.0158C0.125085 65.4071 0.584808 62.8239 1.40048 60.3418Z" fill="#FFD700"/>
<path d="M41.5945 39.7271C43.2657 45.6798 43.9088 51.5024 40.79 57.0937C38.657 60.9147 35.0391 62.9948 31.1754 64.6865C28.598 65.8102 25.9609 66.7888 23.9546 68.8665C23.1947 69.6484 23.1898 68.719 23.1103 68.3747C22.6559 66.3216 22.6335 64.2317 22.7453 62.1441C22.9054 59.1959 23.5722 56.2964 24.7169 53.5702C26.1546 50.1057 28.6377 47.6691 32.0495 46.0954C32.6852 45.8036 33.32 45.5061 33.954 45.2028C36.8021 43.8185 39.8589 42.7293 41.5945 39.7271Z" fill="#FFD700"/>
<path d="M1.38807 18.6328C3.12625 21.6449 5.88252 22.8841 8.6338 24.1381C10.7345 25.0922 12.87 26.0093 14.628 27.5559C18.0522 30.563 19.3062 34.6053 20.0015 38.8664C20.5637 42.0503 20.4564 45.3149 19.6861 48.4558C19.0405 48.2099 18.7549 47.6887 18.3428 47.3322C16.6046 45.8175 14.5188 44.9323 12.4081 44.0816C9.71146 42.9923 7.17374 41.6228 5.00598 39.6729C1.00818 36.0904 -0.119156 31.4137 0.039763 26.3191C0.136686 23.7085 0.590235 21.1229 1.38807 18.6328Z" fill="#FFD700"/>
<path d="M41.597 60.6294C42.9329 65.1708 43.5314 69.6533 42.342 74.2365C40.9241 79.6828 37.0207 82.8202 32.1811 85.1069C31.1382 85.5987 30.0581 86.0216 28.9903 86.4617C27.1801 87.1994 25.514 88.1657 24.1408 89.5844C23.6442 90.1081 23.2767 90.2434 23.1475 89.3631C22.1096 82.8325 22.8322 76.624 26.7108 71.0474C28.3472 68.6968 30.8775 67.4969 33.3854 66.3068C33.5717 66.2183 33.7703 66.1593 33.9565 66.0609C35.4066 65.3676 36.8816 64.7208 38.2523 63.8701C39.5811 63.03 40.7199 61.9266 41.597 60.6294Z" fill="#FFD700"/>
<path d="M41.5846 18.7041C42.1674 20.3442 42.5565 22.0455 42.7442 23.7742C43.3476 28.296 42.9926 32.6874 40.5268 36.6904C38.5403 39.9385 35.4166 41.8735 32.047 43.4275C29.03 44.8192 25.7746 45.7781 23.5175 48.5123C22.9141 47.6517 22.9638 46.8059 22.8818 46.024C22.3157 40.7794 23.0358 35.7363 25.5512 31.0253C26.7534 28.81 28.6075 27.0091 30.8675 25.8617C32.0346 25.247 33.219 24.6618 34.4233 24.1209C37.1721 22.8816 39.8961 21.6252 41.5846 18.7041Z" fill="#FFD700"/>
<path d="M1.88716 40.4204C3.40931 42.4637 5.61183 43.5751 7.84663 44.6348C10.0814 45.6946 12.4081 46.5822 14.3449 48.1682C17.5531 50.7893 18.9139 54.4013 19.7482 58.2616C20.4387 61.4283 20.5229 64.6953 19.9965 67.8928C19.927 68.3181 19.9816 68.9132 19.5545 69.0878C19.1274 69.2624 18.8989 68.6968 18.6134 68.4337C16.6964 66.6609 14.3077 65.7462 11.9562 64.7332C8.20172 63.1153 4.68066 61.1311 2.47317 57.5363C-0.0248345 53.462 -0.382384 48.9918 0.288055 44.384C0.422143 43.4619 0.670441 42.5522 0.864124 41.6375C1.21424 41.3105 0.928683 40.8212 1.20431 40.445C1.47993 40.0688 1.64382 40.0319 1.88716 40.4204Z" fill="#FFD700"/>
<path d="M29.5043 14.7847C29.5291 17.6886 28.5334 20.0195 27.2993 22.2619C25.8343 24.9248 24.0712 27.4107 22.3703 29.9237C21.8389 30.7056 21.1536 30.9514 20.6321 30.0662C18.2657 26.1444 15.3853 22.5128 14.0047 18.0402C12.8451 14.2856 13.384 10.8678 15.5194 7.61729C17.0739 5.24946 18.817 3.00702 20.2373 0.550664C20.5477 0.00726616 20.9326 -0.277971 21.4789 0.351486C24.4959 3.89218 27.4855 7.4501 29.0399 11.9251C29.2118 12.3856 29.3415 12.8604 29.4273 13.3438C29.4775 13.8225 29.5032 14.3034 29.5043 14.7847Z" fill="#FFD700"/>
<path d="M1.88717 40.4204C0.821911 40.2336 1.46008 41.4359 0.871582 41.6375C0.943592 41.1949 1.00071 40.7499 1.09258 40.3123C1.13976 40.086 1.14721 39.7369 1.46256 39.7664C1.77792 39.7959 1.89461 40.1106 1.88717 40.4204Z" fill="#FFD700"/>
</g>
<defs>
<clipPath id="clip0_11_2223">
<rect width="43" height="90" fill="white"/>
</clipPath>
</defs>
</svg>
