<svg width="53" height="73" viewBox="0 0 53 73" fill="none" xmlns="http://www.w3.org/2000/svg">
<path d="M0.851291 72.6289C3.45522 63.8073 5.96902 55.2766 8.61802 46.2946L0 48.6867C0.625945 46.5202 0.966466 44.7298 1.69757 43.115C1.91979 42.6936 2.23197 42.3264 2.61191 42.0395C2.99185 41.7526 3.43021 41.553 3.89586 41.455C9.7497 40.9534 11.7728 37.2674 13.0898 32.0065C15.5385 22.2371 18.7283 12.6582 21.5025 2.974C22.1034 0.867652 23.0949 -0.0902518 25.3533 0.0100505C28.6032 0.155489 31.8631 0.0100689 35.118 0.06022C37.6819 0.0903107 38.2377 0.847593 37.5216 3.32004C34.7274 12.9123 31.9215 22.5029 29.1039 32.0918C28.9888 32.4779 28.9036 32.8691 28.6983 33.6514L36.7555 31.3646C36.9157 36.2142 35.794 38.1851 31.4374 39.0778C27.6367 39.8551 25.7038 41.6806 24.9276 45.5373C23.9612 50.2214 22.3237 54.7701 20.8715 59.7351H23.9461C32.5458 59.7351 41.1421 59.7351 49.7351 59.7351C53.0551 59.7351 53.5358 60.4171 52.5894 63.6669C51.9184 65.9839 51.2023 68.2908 50.5563 70.6179C50.1157 72.2177 49.0841 73 47.4716 73C32.449 73 17.4263 73 2.40362 73C1.87564 72.9257 1.35589 72.8014 0.851291 72.6289Z" fill="white"/>
</svg>
