<svg width="222" height="30" viewBox="0 0 222 30" fill="none" xmlns="http://www.w3.org/2000/svg">
<path d="M1.28 29C0.986667 29 0.733333 28.8933 0.52 28.68C0.306667 28.4667 0.2 28.2133 0.2 27.92V2.08C0.2 1.78667 0.306667 1.53333 0.52 1.32C0.733333 1.10666 0.986667 0.999998 1.28 0.999998H9.28C9.57333 0.999998 9.82667 1.10666 10.04 1.32C10.2533 1.53333 10.36 1.78667 10.36 2.08V20.8H21.44C21.7333 20.8 21.9867 20.9067 22.2 21.12C22.4133 21.3333 22.52 21.5867 22.52 21.88V27.92C22.52 28.2133 22.4133 28.4667 22.2 28.68C21.9867 28.8933 21.7333 29 21.44 29H1.28ZM37.6056 29.4C34.9923 29.4 32.699 29 30.7256 28.2C28.779 27.4 27.2323 26.2 26.0856 24.6C24.9656 22.9733 24.3523 20.9733 24.2456 18.6C24.219 17.5067 24.2056 16.3467 24.2056 15.12C24.2056 13.8933 24.219 12.7067 24.2456 11.56C24.3523 9.21333 24.9656 7.22666 26.0856 5.6C27.2056 3.97333 28.7523 2.73333 30.7256 1.88C32.699 1.02667 34.9923 0.599998 37.6056 0.599998C40.219 0.599998 42.5123 1.02667 44.4856 1.88C46.459 2.73333 48.0056 3.97333 49.1256 5.6C50.2723 7.22666 50.8856 9.21333 50.9656 11.56C51.019 12.7067 51.0456 13.8933 51.0456 15.12C51.0456 16.3467 51.019 17.5067 50.9656 18.6C50.859 20.9733 50.2323 22.9733 49.0856 24.6C47.9656 26.2 46.419 27.4 44.4456 28.2C42.499 29 40.219 29.4 37.6056 29.4ZM37.6056 21.6C38.4856 21.6 39.1923 21.3467 39.7256 20.84C40.259 20.3067 40.539 19.48 40.5656 18.36C40.619 17.2133 40.6456 16.08 40.6456 14.96C40.6456 13.84 40.619 12.7333 40.5656 11.64C40.539 10.8933 40.3923 10.28 40.1256 9.8C39.8856 9.32 39.5523 8.97333 39.1256 8.76C38.699 8.52 38.1923 8.4 37.6056 8.4C37.0456 8.4 36.539 8.52 36.0856 8.76C35.659 8.97333 35.3123 9.32 35.0456 9.8C34.8056 10.28 34.6723 10.8933 34.6456 11.64C34.619 12.7333 34.6056 13.84 34.6056 14.96C34.6056 16.08 34.619 17.2133 34.6456 18.36C34.699 19.48 34.979 20.3067 35.4856 20.84C36.019 21.3467 36.7256 21.6 37.6056 21.6ZM67.4131 29.4C64.7198 29.4 62.3865 29 60.4131 28.2C58.4398 27.4 56.8931 26.1867 55.7731 24.56C54.6531 22.9333 54.0398 20.88 53.9331 18.4C53.9065 17.3067 53.8931 16.12 53.8931 14.84C53.8931 13.56 53.9065 12.3467 53.9331 11.2C54.0398 8.82667 54.6531 6.86667 55.7731 5.32C56.9198 3.74667 58.4931 2.57333 60.4931 1.8C62.4931 0.999999 64.7998 0.599998 67.4131 0.599998C69.5198 0.599998 71.4131 0.839999 73.0931 1.32C74.7731 1.77333 76.2131 2.41333 77.4131 3.24C78.6131 4.06667 79.5331 5.02667 80.1731 6.12C80.8131 7.18667 81.1465 8.32 81.1731 9.52C81.1731 9.76 81.0798 9.97333 80.8931 10.16C80.7331 10.32 80.5331 10.4 80.2931 10.4H71.4531C71.1598 10.4 70.9198 10.36 70.7331 10.28C70.5731 10.2 70.4265 10.0933 70.2931 9.96C70.1865 9.82667 70.0265 9.64 69.8131 9.4C69.6265 9.13333 69.3465 8.90667 68.9731 8.72C68.5998 8.50667 68.0798 8.4 67.4131 8.4C66.4265 8.4 65.6798 8.65333 65.1731 9.16C64.6665 9.64 64.3865 10.3867 64.3331 11.4C64.2531 13.6133 64.2531 15.88 64.3331 18.2C64.3865 19.4 64.6931 20.2667 65.2531 20.8C65.8131 21.3333 66.5865 21.6 67.5731 21.6C68.2398 21.6 68.8265 21.5067 69.3331 21.32C69.8398 21.1333 70.2398 20.8267 70.5331 20.4C70.8265 19.9733 70.9731 19.4267 70.9731 18.76V18.72H69.0931C68.7998 18.72 68.5465 18.6133 68.3331 18.4C68.1198 18.1867 68.0131 17.9333 68.0131 17.64V13.2C68.0131 12.9067 68.1198 12.6533 68.3331 12.44C68.5465 12.2267 68.7998 12.12 69.0931 12.12H80.0931C80.3865 12.12 80.6398 12.2267 80.8531 12.44C81.0665 12.6533 81.1731 12.9067 81.1731 13.2V18.4C81.1731 20.8 80.5865 22.8133 79.4131 24.44C78.2398 26.0667 76.6131 27.3067 74.5331 28.16C72.4798 28.9867 70.1065 29.4 67.4131 29.4ZM97.4103 29.4C94.797 29.4 92.5036 29 90.5303 28.2C88.5836 27.4 87.037 26.2 85.8903 24.6C84.7703 22.9733 84.157 20.9733 84.0503 18.6C84.0236 17.5067 84.0103 16.3467 84.0103 15.12C84.0103 13.8933 84.0236 12.7067 84.0503 11.56C84.157 9.21333 84.7703 7.22666 85.8903 5.6C87.0103 3.97333 88.557 2.73333 90.5303 1.88C92.5036 1.02667 94.797 0.599998 97.4103 0.599998C100.024 0.599998 102.317 1.02667 104.29 1.88C106.264 2.73333 107.81 3.97333 108.93 5.6C110.077 7.22666 110.69 9.21333 110.77 11.56C110.824 12.7067 110.85 13.8933 110.85 15.12C110.85 16.3467 110.824 17.5067 110.77 18.6C110.664 20.9733 110.037 22.9733 108.89 24.6C107.77 26.2 106.224 27.4 104.25 28.2C102.304 29 100.024 29.4 97.4103 29.4ZM97.4103 21.6C98.2903 21.6 98.997 21.3467 99.5303 20.84C100.064 20.3067 100.344 19.48 100.37 18.36C100.424 17.2133 100.45 16.08 100.45 14.96C100.45 13.84 100.424 12.7333 100.37 11.64C100.344 10.8933 100.197 10.28 99.9303 9.8C99.6903 9.32 99.357 8.97333 98.9303 8.76C98.5036 8.52 97.997 8.4 97.4103 8.4C96.8503 8.4 96.3436 8.52 95.8903 8.76C95.4636 8.97333 95.117 9.32 94.8503 9.8C94.6103 10.28 94.477 10.8933 94.4503 11.64C94.4236 12.7333 94.4103 13.84 94.4103 14.96C94.4103 16.08 94.4236 17.2133 94.4503 18.36C94.5036 19.48 94.7836 20.3067 95.2903 20.84C95.8236 21.3467 96.5303 21.6 97.4103 21.6Z" fill="#1A1A1A"/>
<path d="M121.738 29C121.444 29 121.191 28.8933 120.978 28.68C120.764 28.4667 120.658 28.2133 120.658 27.92V9.6H114.018C113.724 9.6 113.471 9.49333 113.258 9.28C113.044 9.06667 112.938 8.81333 112.938 8.52V2.08C112.938 1.78667 113.044 1.53333 113.258 1.32C113.471 1.10666 113.724 0.999998 114.018 0.999998H137.458C137.751 0.999998 138.004 1.10666 138.218 1.32C138.431 1.53333 138.538 1.78667 138.538 2.08V8.52C138.538 8.81333 138.431 9.06667 138.218 9.28C138.004 9.49333 137.751 9.6 137.458 9.6H130.818V27.92C130.818 28.2133 130.711 28.4667 130.498 28.68C130.284 28.8933 130.031 29 129.738 29H121.738ZM149.491 29C149.198 29 148.944 28.8933 148.731 28.68C148.518 28.4667 148.411 28.2133 148.411 27.92V20.04L139.411 2.24C139.384 2.18667 139.358 2.13333 139.331 2.08C139.331 2 139.331 1.93333 139.331 1.88C139.331 1.64 139.411 1.44 139.571 1.28C139.758 1.09333 139.971 0.999998 140.211 0.999998H147.731C148.264 0.999998 148.664 1.13333 148.931 1.4C149.198 1.66667 149.358 1.86667 149.411 2L153.411 10.04L157.411 2C157.464 1.86667 157.624 1.66667 157.891 1.4C158.158 1.13333 158.558 0.999998 159.091 0.999998H166.611C166.851 0.999998 167.051 1.09333 167.211 1.28C167.398 1.44 167.491 1.64 167.491 1.88C167.491 1.93333 167.478 2 167.451 2.08C167.451 2.13333 167.438 2.18667 167.411 2.24L158.411 20.04V27.92C158.411 28.2133 158.304 28.4667 158.091 28.68C157.878 28.8933 157.624 29 157.331 29H149.491ZM170.889 29C170.596 29 170.343 28.8933 170.129 28.68C169.916 28.4667 169.809 28.2133 169.809 27.92V2.08C169.809 1.78667 169.916 1.53333 170.129 1.32C170.343 1.10666 170.596 0.999998 170.889 0.999998H183.009C185.436 0.999998 187.543 1.36 189.329 2.08C191.143 2.77333 192.543 3.85333 193.529 5.32C194.543 6.76 195.049 8.58667 195.049 10.8C195.049 13.0133 194.543 14.8267 193.529 16.24C192.543 17.6267 191.143 18.6533 189.329 19.32C187.543 19.96 185.436 20.28 183.009 20.28H180.209V27.92C180.209 28.2133 180.103 28.4667 179.889 28.68C179.676 28.8933 179.423 29 179.129 29H170.889ZM180.009 12.88H182.809C183.236 12.88 183.649 12.72 184.049 12.4C184.449 12.0533 184.649 11.4933 184.649 10.72C184.649 10.2133 184.516 9.70667 184.249 9.2C184.009 8.69333 183.529 8.44 182.809 8.44H180.009V12.88ZM199.093 29C198.799 29 198.546 28.8933 198.333 28.68C198.119 28.4667 198.013 28.2133 198.013 27.92V2.08C198.013 1.78667 198.119 1.53333 198.333 1.32C198.546 1.10666 198.799 0.999998 199.093 0.999998H219.613C219.906 0.999998 220.159 1.10666 220.373 1.32C220.586 1.53333 220.693 1.78667 220.693 2.08V7.72C220.693 8.01333 220.586 8.26667 220.373 8.48C220.159 8.69333 219.906 8.8 219.613 8.8H207.613V11.32H218.733C219.026 11.32 219.279 11.4267 219.493 11.64C219.706 11.8533 219.813 12.1067 219.813 12.4V17.6C219.813 17.8933 219.706 18.1467 219.493 18.36C219.279 18.5733 219.026 18.68 218.733 18.68H207.613V21.2H219.933C220.226 21.2 220.479 21.3067 220.693 21.52C220.906 21.7333 221.013 21.9867 221.013 22.28V27.92C221.013 28.2133 220.906 28.4667 220.693 28.68C220.479 28.8933 220.226 29 219.933 29H199.093Z" fill="#FFD700"/>
</svg>
