<svg width="776" height="1032" viewBox="0 0 776 1032" fill="none" xmlns="http://www.w3.org/2000/svg">
<g opacity="0.4">
<path opacity="0.3" d="M265.54 808.81L187.27 887.24L190.48 890.44L270.06 810.74L271.9 752.84L371.16 653.45V601.15C373.403 600.912 375.555 600.139 377.438 598.897C379.32 597.655 380.877 595.98 381.978 594.011C383.079 592.043 383.691 589.84 383.764 587.585C383.837 585.331 383.369 583.093 382.398 581.057C381.427 579.022 379.981 577.249 378.183 575.888C376.386 574.526 374.287 573.616 372.065 573.233C369.842 572.851 367.561 573.006 365.411 573.688C363.261 574.369 361.306 575.557 359.71 577.15C357.924 578.936 356.651 581.17 356.024 583.617C355.398 586.063 355.44 588.634 356.147 591.059C356.855 593.484 358.201 595.674 360.045 597.4C361.889 599.126 364.164 600.324 366.63 600.87V651.56L267.38 750.9L265.54 808.81ZM362.84 593.9C361.276 592.336 360.303 590.278 360.086 588.077C359.869 585.876 360.422 583.668 361.651 581.829C362.88 579.99 364.708 578.634 366.825 577.992C368.941 577.35 371.215 577.461 373.258 578.308C375.302 579.154 376.988 580.683 378.031 582.633C379.074 584.584 379.408 586.836 378.976 589.005C378.545 591.174 377.374 593.127 375.665 594.53C373.955 595.933 371.812 596.7 369.6 596.7C367.065 596.699 364.634 595.692 362.84 593.9Z" fill="#1A1A1A"/>
<path opacity="0.3" d="M230.99 728L330.27 628.65V575.3L409.43 496C412.56 497.757 416.236 498.271 419.728 497.44C423.22 496.609 426.27 494.493 428.273 491.514C430.275 488.536 431.082 484.912 430.533 481.365C429.984 477.818 428.12 474.608 425.311 472.373C422.502 470.139 418.955 469.044 415.375 469.307C411.796 469.569 408.446 471.171 405.994 473.791C403.542 476.412 402.166 479.86 402.141 483.45C402.117 487.039 403.444 490.506 405.86 493.16L325.67 573.42V626.78L226.48 726.11L224.68 784L146.36 862.43L149.56 865.63L229.15 786L230.99 728ZM409.47 476.87C410.359 475.98 411.414 475.275 412.576 474.793C413.738 474.312 414.983 474.064 416.24 474.064C417.498 474.064 418.743 474.312 419.904 474.793C421.066 475.275 422.121 475.98 423.01 476.87C424.122 477.983 424.943 479.353 425.399 480.859C425.855 482.365 425.933 483.96 425.626 485.503C425.319 487.046 424.636 488.489 423.638 489.705C422.639 490.922 421.357 491.873 419.903 492.475C418.45 493.077 416.87 493.312 415.304 493.158C413.738 493.004 412.235 492.467 410.926 491.593C409.618 490.719 408.545 489.537 407.802 488.149C407.06 486.762 406.671 485.213 406.67 483.64C406.664 482.382 406.909 481.136 407.39 479.974C407.87 478.811 408.578 477.756 409.47 476.87Z" fill="#1A1A1A"/>
<path opacity="0.3" d="M456.14 628.07C456.448 628.548 456.806 628.99 457.21 629.39C458.559 630.743 460.337 631.585 462.239 631.771C464.141 631.956 466.049 631.474 467.634 630.407C469.219 629.34 470.384 627.754 470.928 625.922C471.472 624.09 471.362 622.126 470.615 620.367C469.869 618.607 468.534 617.162 466.839 616.28C465.144 615.397 463.195 615.132 461.326 615.53C459.456 615.928 457.784 616.963 456.595 618.46C455.406 619.956 454.775 621.819 454.81 623.73L409.88 640.88L312.35 738.54C310.619 737.586 308.602 737.289 306.669 737.704C304.737 738.119 303.019 739.218 301.833 740.799C300.646 742.38 300.071 744.336 300.212 746.307C300.353 748.279 301.202 750.133 302.602 751.528C304.002 752.924 305.858 753.767 307.83 753.902C309.802 754.037 311.757 753.455 313.334 752.264C314.911 751.073 316.005 749.352 316.414 747.418C316.823 745.484 316.52 743.468 315.56 741.74L412.4 644.74L456.14 628.07Z" fill="#1A1A1A"/>
<path opacity="0.3" d="M685.82 638.62C683.963 638.611 682.122 638.971 680.405 639.68C678.688 640.389 677.13 641.433 675.82 642.75C674.503 644.067 673.456 645.63 672.74 647.35L622.27 635.84L508.72 749.55L462.41 738.06L171.56 1027.83L174.76 1031.04L463.76 743.04L510.08 754.53L623.71 640.82L671.77 651.77C671.77 652.09 671.77 652.4 671.77 652.77C671.772 655.558 672.601 658.283 674.151 660.601C675.702 662.918 677.905 664.724 680.481 665.79C683.058 666.855 685.892 667.133 688.627 666.588C691.361 666.043 693.873 664.699 695.844 662.727C697.815 660.754 699.157 658.242 699.7 655.507C700.243 652.772 699.963 649.938 698.896 647.362C697.828 644.786 696.021 642.584 693.703 641.036C691.384 639.487 688.658 638.66 685.87 638.66L685.82 638.62ZM692.59 659.48C691.026 661.044 688.969 662.017 686.768 662.234C684.568 662.451 682.36 661.898 680.521 660.67C678.682 659.442 677.326 657.615 676.683 655.499C676.04 653.383 676.151 651.11 676.996 649.066C677.841 647.023 679.368 645.336 681.318 644.292C683.267 643.248 685.518 642.913 687.688 643.342C689.857 643.772 691.81 644.94 693.214 646.648C694.619 648.357 695.388 650.499 695.39 652.71C695.394 653.968 695.149 655.213 694.668 656.375C694.188 657.537 693.481 658.593 692.59 659.48Z" fill="#1A1A1A"/>
<path opacity="0.3" d="M568.96 721.09C567.705 722.349 566.895 723.984 566.653 725.745C566.412 727.507 566.751 729.299 567.62 730.85L512.01 786.53L461.73 776.32L400 838.13C398.267 837.174 396.247 836.876 394.312 837.291C392.377 837.706 390.657 838.806 389.468 840.389C388.28 841.972 387.704 843.931 387.845 845.905C387.986 847.879 388.836 849.736 390.238 851.133C391.639 852.53 393.499 853.374 395.473 853.509C397.448 853.645 399.405 853.062 400.984 851.869C402.563 850.675 403.658 848.952 404.067 847.015C404.476 845.079 404.172 843.06 403.21 841.33L463.21 781.25L513.48 791.45L570.81 734.05C572.146 734.78 573.658 735.124 575.178 735.043C576.698 734.962 578.165 734.46 579.416 733.592C580.666 732.725 581.651 731.527 582.259 730.132C582.867 728.736 583.075 727.2 582.86 725.693C582.644 724.186 582.013 722.769 581.038 721.601C580.063 720.432 578.782 719.558 577.339 719.076C575.895 718.594 574.346 718.524 572.864 718.872C571.383 719.221 570.027 719.975 568.95 721.05L568.96 721.09Z" fill="#1A1A1A"/>
<path opacity="0.3" d="M403.75 397.61C400.901 395.503 397.364 394.547 393.842 394.93C390.319 395.313 387.07 397.009 384.741 399.678C382.412 402.348 381.174 405.797 381.272 409.339C381.371 412.881 382.799 416.256 385.273 418.792C387.747 421.328 391.085 422.841 394.623 423.028C398.161 423.215 401.64 422.063 404.367 419.801C407.094 417.539 408.87 414.334 409.342 410.822C409.813 407.311 408.945 403.751 406.91 400.85L439.59 368.17L436.39 344.68L607.27 173.79L604.06 170.59L431.6 343.07L434.81 366.56L403.75 397.61ZM402.14 415.7C400.802 417.034 399.098 417.942 397.245 418.308C395.391 418.675 393.47 418.484 391.725 417.76C389.98 417.035 388.489 415.81 387.439 414.238C386.39 412.667 385.83 410.82 385.83 408.93C385.83 407.04 386.39 405.193 387.439 403.622C388.489 402.05 389.98 400.825 391.725 400.1C393.47 399.376 395.391 399.185 397.245 399.552C399.098 399.918 400.802 400.826 402.14 402.16C403.037 403.045 403.749 404.099 404.235 405.261C404.721 406.423 404.971 407.67 404.971 408.93C404.971 410.19 404.721 411.437 404.235 412.599C403.749 413.761 403.037 414.815 402.14 415.7Z" fill="#1A1A1A"/>
<path opacity="0.3" d="M1068.77 3.2L1065.56 0L1010.56 55V77.69L929.159 159.07V179.89L896.989 212.06L877.239 209.4L747.159 339.47C744.178 337.482 740.558 336.689 737.02 337.25C733.481 337.81 730.284 339.684 728.064 342.496C725.844 345.308 724.766 348.854 725.043 352.426C725.32 355.998 726.932 359.334 729.558 361.771C732.185 364.208 735.633 365.565 739.216 365.574C742.798 365.583 746.253 364.241 748.891 361.817C751.529 359.393 753.158 356.065 753.452 352.494C753.746 348.923 752.684 345.373 750.479 342.55L878.869 214.18L898.619 216.81L933.708 181.81V160.95L1015.16 79.54V56.81L1068.77 3.2ZM746.159 358.01C744.595 359.574 742.537 360.547 740.337 360.764C738.136 360.981 735.928 360.428 734.089 359.2C732.25 357.972 730.894 356.145 730.251 354.029C729.609 351.913 729.719 349.64 730.564 347.596C731.409 345.553 732.937 343.866 734.886 342.822C736.836 341.778 739.087 341.443 741.256 341.872C743.425 342.302 745.378 343.47 746.783 345.178C748.187 346.887 748.956 349.029 748.958 351.24C748.964 352.498 748.719 353.744 748.238 354.906C747.757 356.068 747.051 357.123 746.159 358.01Z" fill="#1A1A1A"/>
<path opacity="0.3" d="M717.27 639.15L713.8 675.15L694.08 694.87L655.38 701.01L629.15 727.24C626.207 725.234 622.617 724.411 619.094 724.932C615.571 725.454 612.374 727.283 610.139 730.055C607.904 732.828 606.794 736.34 607.032 739.894C607.269 743.447 608.835 746.781 611.419 749.231C614.004 751.682 617.416 753.069 620.977 753.118C624.537 753.167 627.986 751.873 630.636 749.494C633.286 747.115 634.943 743.825 635.277 740.279C635.612 736.734 634.599 733.192 632.44 730.36L657.54 705.25L696.24 699.11L718.15 677.2L721.62 641.2L966.62 396.2L963.42 393L717.27 639.15ZM628.01 745.7C626.718 747.011 625.076 747.922 623.28 748.326C621.484 748.73 619.61 748.609 617.881 747.978C616.151 747.346 614.64 746.231 613.527 744.765C612.414 743.298 611.746 741.543 611.603 739.708C611.46 737.873 611.847 736.035 612.718 734.414C613.59 732.793 614.91 731.456 616.52 730.564C618.13 729.671 619.962 729.261 621.799 729.38C623.636 729.5 625.4 730.146 626.88 731.24L628.94 733.3C630.299 735.134 630.953 737.396 630.782 739.673C630.612 741.95 629.628 744.089 628.01 745.7Z" fill="#1A1A1A"/>
<path opacity="0.3" d="M752.131 183L677.131 258L680.331 281.48L650.131 311.73C648.392 310.785 646.37 310.499 644.438 310.927C642.505 311.354 640.792 312.465 639.614 314.055C638.435 315.645 637.871 317.607 638.025 319.581C638.178 321.554 639.04 323.405 640.45 324.794C641.861 326.182 643.725 327.014 645.7 327.137C647.676 327.26 649.629 326.665 651.201 325.462C652.772 324.259 653.856 322.529 654.253 320.59C654.65 318.651 654.333 316.634 653.361 314.91L685.131 283.1L681.941 259.6L755.351 186.19L752.131 183Z" fill="#1A1A1A"/>
<path opacity="0.3" d="M525.9 281.86L473.47 334.29C471.765 333.269 469.749 332.899 467.793 333.248C465.836 333.597 464.072 334.64 462.824 336.187C461.577 337.734 460.93 339.679 461.004 341.665C461.077 343.65 461.866 345.543 463.224 346.993C464.582 348.443 466.419 349.354 468.395 349.557C470.372 349.76 472.356 349.242 473.98 348.099C475.605 346.955 476.762 345.263 477.238 343.334C477.714 341.404 477.477 339.368 476.57 337.6L527.78 286.39H550.46L631.87 205H652.69L687.77 169.9L685.1 150.15L815.1 20.15L811.89 17L681.11 147.74L680.31 148.53L682.98 168.28L650.81 200.46H629.99L548.59 281.86H525.9Z" fill="#1A1A1A"/>
<path opacity="0.3" d="M164.27 627.75H185.09L266.5 546.35H289.18L341.61 493.92C343.314 494.937 345.329 495.304 347.282 494.953C349.236 494.602 350.997 493.557 352.24 492.01C353.484 490.464 354.127 488.52 354.051 486.536C353.975 484.553 353.184 482.664 351.825 481.218C350.467 479.771 348.631 478.864 346.656 478.664C344.681 478.464 342.701 478.985 341.08 480.13C339.459 481.274 338.306 482.967 337.833 484.894C337.361 486.822 337.601 488.855 338.51 490.62L287.31 541.82H264.64L183.27 623.22H162.42L127.33 658.31L130 678.06L0 808.06L3.2 811.27L134.79 679.68L132.12 659.93L164.27 627.75Z" fill="#1A1A1A"/>
<path d="M747.749 236.838L791.77 192.793L789.925 190.978L745.253 235.731L744.214 268.258L688.423 324.083V353.456C686.438 353.663 684.603 354.609 683.284 356.106C681.966 357.604 681.259 359.542 681.306 361.536C681.352 363.53 682.149 365.434 683.536 366.868C684.924 368.302 686.8 369.161 688.793 369.275C690.786 369.389 692.749 368.75 694.291 367.483C695.833 366.217 696.842 364.416 697.116 362.441C697.39 360.465 696.91 358.459 695.77 356.821C694.631 355.183 692.917 354.034 690.968 353.602V325.141L746.71 269.345L747.749 236.838ZM693.056 357.522C694.064 358.531 694.63 359.899 694.63 361.326C694.63 362.752 694.064 364.12 693.056 365.13C692.431 365.756 691.661 366.219 690.814 366.477C689.967 366.735 689.07 366.781 688.201 366.609C687.332 366.438 686.52 366.055 685.835 365.494C685.15 364.933 684.614 364.212 684.275 363.395C683.936 362.578 683.803 361.69 683.89 360.809C683.977 359.929 684.279 359.083 684.771 358.348C685.263 357.612 685.93 357.01 686.711 356.593C687.492 356.176 688.363 355.959 689.249 355.96C689.955 355.957 690.655 356.094 691.308 356.362C691.961 356.63 692.555 357.024 693.056 357.522ZM767.171 282.183L711.381 338.008V367.973L666.845 412.532C665.091 411.554 663.033 411.272 661.081 411.742C659.128 412.212 657.424 413.399 656.308 415.067C655.191 416.735 654.744 418.762 655.056 420.744C655.367 422.727 656.414 424.52 657.988 425.766C659.562 427.012 661.548 427.62 663.551 427.47C665.554 427.319 667.426 426.421 668.796 424.953C670.166 423.486 670.933 421.557 670.944 419.55C670.955 417.543 670.209 415.606 668.855 414.123L713.925 369.03V339.056L769.677 283.27L770.716 250.753L814.737 206.698L812.94 204.903L768.201 249.666L767.171 282.183ZM666.845 423.264C666.346 423.764 665.753 424.16 665.1 424.431C664.448 424.701 663.748 424.841 663.042 424.841C662.335 424.842 661.636 424.703 660.983 424.433C660.33 424.163 659.736 423.768 659.236 423.269C658.737 422.77 658.34 422.178 658.069 421.526C657.798 420.874 657.659 420.175 657.658 419.469C657.658 418.763 657.797 418.063 658.066 417.411C658.336 416.759 658.732 416.166 659.232 415.666C659.727 415.163 660.319 414.765 660.971 414.493C661.623 414.222 662.322 414.083 663.029 414.084C664.094 414.082 665.137 414.395 666.024 414.985C666.911 415.575 667.603 416.415 668.012 417.398C668.421 418.381 668.528 419.464 668.32 420.508C668.113 421.552 667.599 422.512 666.845 423.264ZM665.194 328.954L719.635 274.488C719.101 273.516 718.936 272.384 719.171 271.301C719.405 270.217 720.023 269.255 720.911 268.591C721.8 267.927 722.898 267.605 724.004 267.686C725.111 267.766 726.151 268.244 726.933 269.03C727.716 269.816 728.188 270.857 728.262 271.963C728.337 273.069 728.009 274.165 727.34 275.049C726.67 275.933 725.704 276.546 724.618 276.774C723.533 277.002 722.401 276.831 721.432 276.293L666.593 331.138L641.344 340.773C641.359 341.393 641.248 342.009 641.018 342.585C640.788 343.16 640.442 343.683 640.003 344.121C639.358 344.765 638.536 345.204 637.642 345.382C636.747 345.559 635.82 345.468 634.977 345.119C634.134 344.77 633.414 344.179 632.907 343.421C632.401 342.663 632.13 341.772 632.13 340.861C632.13 339.949 632.401 339.058 632.907 338.3C633.414 337.542 634.134 336.952 634.977 336.603C635.82 336.254 636.747 336.162 637.642 336.34C638.536 336.517 639.358 336.956 640.003 337.6C640.228 337.826 640.43 338.073 640.606 338.338L665.194 328.954ZM511.505 332.409C513.076 332.413 514.613 331.948 515.919 331.076C517.225 330.203 518.241 328.961 518.837 327.508L547.223 333.971L611.054 270.111L637.09 276.555L800.607 113.805L798.81 112L636.304 273.711L610.268 267.288L546.417 331.176L519.41 325.024C519.41 324.85 519.41 324.665 519.41 324.491C519.41 322.925 518.945 321.394 518.075 320.091C517.204 318.789 515.966 317.774 514.518 317.175C513.07 316.576 511.477 316.419 509.94 316.725C508.403 317.03 506.991 317.784 505.882 318.892C504.774 319.999 504.02 321.41 503.714 322.946C503.408 324.482 503.565 326.074 504.165 327.521C504.764 328.968 505.78 330.204 507.083 331.074C508.386 331.944 509.919 332.409 511.486 332.409H511.505ZM507.698 320.696C508.577 319.819 509.733 319.272 510.97 319.151C512.206 319.029 513.446 319.34 514.479 320.03C515.512 320.72 516.274 321.746 516.635 322.934C516.995 324.122 516.932 325.398 516.457 326.545C515.981 327.692 515.122 328.639 514.027 329.224C512.931 329.809 511.666 329.996 510.447 329.754C509.229 329.512 508.132 328.855 507.344 327.895C506.556 326.935 506.125 325.732 506.125 324.491C506.124 323.786 506.263 323.088 506.533 322.437C506.803 321.785 507.199 321.194 507.698 320.696ZM570.666 286.093C569.869 285.312 569.385 284.267 569.302 283.155C569.218 282.043 569.542 280.938 570.213 280.047C570.885 279.156 571.857 278.539 572.949 278.31C574.042 278.082 575.18 278.258 576.153 278.806L608.374 246.541L636.634 252.276L670.361 218.527C669.818 217.554 669.645 216.418 669.873 215.328C670.102 214.238 670.717 213.268 671.605 212.595C672.494 211.922 673.595 211.593 674.707 211.668C675.819 211.742 676.867 212.216 677.657 213.001C678.447 213.787 678.927 214.831 679.008 215.942C679.088 217.052 678.765 218.155 678.096 219.046C677.428 219.937 676.46 220.557 675.37 220.792C674.281 221.026 673.143 220.859 672.167 220.322L637.459 255.071L609.2 249.336L577.939 280.611C578.48 281.581 578.65 282.714 578.42 283.8C578.19 284.886 577.574 285.853 576.687 286.521C575.799 287.189 574.7 287.514 573.591 287.435C572.483 287.356 571.44 286.88 570.656 286.093H570.666ZM670.06 467.784C671.657 468.96 673.639 469.491 675.61 469.272C677.582 469.054 679.399 468.102 680.7 466.606C682.001 465.11 682.691 463.179 682.632 461.198C682.573 459.217 681.77 457.33 680.383 455.914C678.996 454.497 677.125 453.654 675.144 453.553C673.163 453.451 671.217 454.098 669.692 455.366C668.167 456.633 667.175 458.428 666.914 460.393C666.653 462.358 667.141 464.349 668.282 465.97L649.909 484.281L651.715 497.478L555.652 593.457L557.449 595.261L654.405 498.38L652.599 485.251L670.06 467.784ZM670.963 457.625C671.843 456.742 673.003 456.192 674.244 456.069C675.485 455.945 676.731 456.255 677.769 456.946C678.806 457.637 679.572 458.667 679.935 459.859C680.298 461.051 680.237 462.333 679.76 463.484C679.284 464.636 678.423 465.587 677.323 466.175C676.223 466.764 674.954 466.953 673.73 466.71C672.507 466.468 671.406 465.809 670.614 464.846C669.823 463.882 669.39 462.675 669.389 461.429C669.385 460.72 669.522 460.019 669.792 459.364C670.063 458.709 670.46 458.115 670.963 457.615V457.625ZM394 591.467L395.797 593.262L426.727 562.385V549.644L472.486 503.921V492.228L490.568 474.15L501.678 475.654L574.793 402.595C576.465 403.707 578.495 404.149 580.479 403.833C582.463 403.517 584.254 402.467 585.498 400.89C586.741 399.314 587.345 397.327 587.189 395.326C587.033 393.325 586.128 391.456 584.656 390.091C583.183 388.727 581.25 387.966 579.241 387.961C577.232 387.956 575.295 388.707 573.816 390.064C572.336 391.421 571.422 393.286 571.256 395.286C571.09 397.286 571.683 399.276 572.919 400.858L500.765 472.966L489.665 471.462L469.912 491.17V502.815L424.153 548.538V561.328L394 591.467ZM575.308 392.183C576.186 391.306 577.342 390.759 578.579 390.638C579.815 390.516 581.056 390.827 582.089 391.517C583.122 392.206 583.883 393.233 584.244 394.421C584.604 395.609 584.542 396.885 584.066 398.032C583.59 399.179 582.732 400.126 581.636 400.711C580.54 401.296 579.275 401.483 578.057 401.241C576.838 400.999 575.741 400.342 574.953 399.382C574.165 398.422 573.734 397.219 573.734 395.977C573.733 395.273 573.872 394.575 574.142 393.923C574.412 393.272 574.808 392.681 575.308 392.183ZM582.853 354.999L584.795 334.757L595.886 323.675L617.639 320.231L632.38 305.501C634.039 306.638 636.066 307.109 638.056 306.82C640.047 306.531 641.856 305.503 643.123 303.942C644.39 302.381 645.021 300.4 644.892 298.394C644.763 296.388 643.883 294.504 642.426 293.118C640.969 291.731 639.044 290.944 637.032 290.912C635.021 290.88 633.072 291.607 631.572 292.947C630.073 294.287 629.133 296.142 628.941 298.143C628.749 300.144 629.318 302.144 630.535 303.744L616.425 317.844L594.73 321.259L582.407 333.564L580.464 353.805L442.76 491.403L444.556 493.198L582.853 354.999ZM633.031 295.147C633.758 294.41 634.682 293.897 635.692 293.67C636.702 293.443 637.757 293.511 638.73 293.866C639.702 294.221 640.552 294.849 641.178 295.673C641.804 296.497 642.18 297.484 642.26 298.516C642.34 299.548 642.122 300.581 641.631 301.492C641.139 302.403 640.397 303.154 639.49 303.655C638.584 304.156 637.553 304.386 636.519 304.317C635.486 304.249 634.494 303.885 633.662 303.269L632.506 302.114C631.743 301.083 631.376 299.812 631.472 298.533C631.568 297.254 632.122 296.052 633.031 295.147ZM513.943 541.92L555.205 500.69L553.399 487.502L571.287 469.628C570.739 468.659 570.56 467.524 570.783 466.432C571.005 465.341 571.615 464.367 572.5 463.69C573.385 463.012 574.484 462.677 575.597 462.746C576.709 462.815 577.759 463.283 578.554 464.064C579.348 464.845 579.834 465.886 579.92 466.997C580.007 468.107 579.689 469.211 579.026 470.106C578.362 471.001 577.397 471.626 576.309 471.866C575.221 472.106 574.082 471.946 573.103 471.414L556.099 488.405L557.896 501.592L515.739 543.716L513.943 541.92ZM581.649 519.214L535.89 564.937H524.237L506.154 583.006L507.65 594.107L433.69 668L431.893 666.205L504.96 593.194L503.445 582.055L523.168 562.347H534.87L580.629 516.623H593.38L622.164 487.861C621.664 486.875 621.536 485.741 621.806 484.669C622.075 483.596 622.723 482.657 623.63 482.023C624.538 481.39 625.643 481.105 626.744 481.222C627.845 481.338 628.866 481.847 629.621 482.656C630.376 483.465 630.813 484.519 630.852 485.624C630.891 486.729 630.529 487.811 629.833 488.671C629.137 489.531 628.154 490.112 627.065 490.305C625.975 490.498 624.852 490.292 623.902 489.724L594.4 519.214H581.649ZM822.739 320.444L821.243 309.353L895.203 235.45L897 237.245L823.914 310.255L825.409 321.347L805.696 341.055H794.042L748.283 386.778H735.542L706.758 415.54C707.266 416.529 707.398 417.668 707.132 418.747C706.866 419.826 706.218 420.772 705.309 421.412C704.399 422.052 703.289 422.342 702.183 422.228C701.076 422.115 700.048 421.606 699.288 420.795C698.527 419.984 698.085 418.926 698.044 417.815C698.002 416.705 698.364 415.617 699.062 414.751C699.759 413.886 700.747 413.302 701.841 413.106C702.936 412.91 704.065 413.116 705.02 413.687L734.483 384.236H747.195L792.954 338.512H804.608L822.739 320.444ZM722.985 467.26L721.043 487.502L709.963 498.574L688.21 502.029L673.468 516.759C672.16 515.859 670.608 515.382 669.02 515.391C667.23 515.388 665.491 515.991 664.086 517.101C662.682 518.211 661.694 519.764 661.285 521.506C660.875 523.248 661.068 525.077 661.831 526.696C662.594 528.315 663.882 529.628 665.487 530.422C667.092 531.217 668.918 531.445 670.669 531.071C672.42 530.696 673.993 529.741 675.132 528.36C676.271 526.979 676.908 525.253 676.941 523.464C676.974 521.675 676.401 519.927 675.313 518.505L689.424 504.406L711.177 500.961L723.49 488.647L725.433 468.415L863.137 330.817L861.341 329.022L722.985 467.26ZM672.818 527.103C672.092 527.838 671.17 528.349 670.161 528.575C669.153 528.801 668.101 528.733 667.13 528.378C666.159 528.024 665.311 527.398 664.687 526.575C664.062 525.752 663.688 524.767 663.608 523.738C663.527 522.708 663.745 521.677 664.235 520.768C664.725 519.859 665.466 519.109 666.37 518.609C667.274 518.109 668.303 517.879 669.334 517.946C670.365 518.014 671.355 518.377 672.186 518.991L673.332 520.136C674.017 521.049 674.388 522.158 674.391 523.299C674.393 524.005 674.254 524.705 673.984 525.358C673.714 526.011 673.318 526.604 672.818 527.103ZM616.57 380.034C616.57 384.815 617.989 389.488 620.647 393.463C623.305 397.438 627.083 400.537 631.504 402.366C635.924 404.196 640.788 404.674 645.48 403.742C650.173 402.809 654.483 400.507 657.866 397.126C661.249 393.746 663.553 389.439 664.487 384.75C665.42 380.061 664.941 375.201 663.11 370.784C661.279 366.367 658.179 362.592 654.201 359.936C650.222 357.28 645.545 355.863 640.761 355.863C634.347 355.868 628.197 358.416 623.661 362.948C619.126 367.48 616.576 373.625 616.57 380.034ZM640.761 358.405C645.042 358.405 649.227 359.673 652.787 362.05C656.347 364.427 659.121 367.805 660.759 371.757C662.398 375.709 662.826 380.058 661.991 384.254C661.156 388.45 659.094 392.304 656.067 395.329C653.04 398.354 649.183 400.414 644.984 401.248C640.785 402.083 636.433 401.654 632.477 400.017C628.522 398.38 625.141 395.608 622.763 392.051C620.384 388.494 619.115 384.312 619.115 380.034C619.12 374.299 621.402 368.801 625.46 364.746C629.519 360.69 635.022 358.41 640.761 358.405ZM640.761 397.52C644.218 397.52 647.598 396.496 650.472 394.577C653.347 392.657 655.587 389.93 656.91 386.738C658.234 383.546 658.58 380.034 657.905 376.646C657.231 373.258 655.566 370.146 653.121 367.703C650.677 365.26 647.562 363.597 644.171 362.923C640.78 362.249 637.266 362.595 634.072 363.917C630.878 365.239 628.147 367.477 626.227 370.35C624.306 373.222 623.281 376.599 623.281 380.054C623.281 384.686 625.122 389.129 628.401 392.404C631.679 395.68 636.125 397.52 640.761 397.52ZM640.761 365.081C643.721 365.079 646.615 365.954 649.078 367.596C651.54 369.238 653.46 371.573 654.594 374.305C655.728 377.037 656.026 380.044 655.449 382.946C654.873 385.847 653.448 388.512 651.356 390.604C649.263 392.697 646.597 394.122 643.694 394.7C640.791 395.277 637.781 394.982 635.046 393.85C632.311 392.719 629.973 390.802 628.328 388.343C626.684 385.884 625.806 382.992 625.806 380.034C625.808 376.071 627.384 372.27 630.188 369.467C632.992 366.664 636.795 365.086 640.761 365.081ZM632.526 380.034C632.516 378.405 632.991 376.809 633.89 375.45C634.789 374.09 636.072 373.028 637.576 372.397C639.08 371.767 640.737 371.597 642.338 371.909C643.938 372.221 645.41 373.001 646.567 374.15C647.723 375.299 648.512 376.765 648.834 378.363C649.156 379.96 648.996 381.617 648.374 383.124C647.752 384.63 646.696 385.918 645.341 386.824C643.986 387.731 642.392 388.214 640.761 388.215C638.585 388.215 636.498 387.354 634.955 385.822C633.412 384.289 632.539 382.208 632.526 380.034ZM610.365 413.444H619.591V422.662H610.365V413.444ZM610.365 428.815H619.591V438.033H610.365V428.815ZM610.365 444.185H619.591V453.404H610.365V444.185ZM610.365 459.556H619.591V468.755H610.365V459.556ZM636.138 422.682H626.913V413.444H636.138V422.682ZM626.913 428.834H636.138V438.052H626.913V428.834Z" fill="#1A1A1A"/>
</g>
</svg>
