<svg width="88" height="88" viewBox="0 0 88 88" fill="none" xmlns="http://www.w3.org/2000/svg">
<g clip-path="url(#clip0_13_3130)">
<path d="M15.4075 21.2325V24.4434C15.4075 35.2663 15.4126 46.0898 15.4228 56.9138C15.4228 57.7046 15.2018 57.9121 14.4301 57.9053C10.6655 57.8679 6.89859 57.8679 3.12944 57.9053C2.4342 57.9053 2.14012 57.6876 1.95313 57.0278C-1.87325 43.5144 -0.181889 30.7902 7.75645 19.1492C14.5559 9.19535 24.0173 2.97439 35.8738 0.807762C49.1004 -1.60886 61.1354 1.4234 71.6575 9.85861C79.9461 16.503 85.0864 25.1474 87.162 35.5673C88.5779 42.6947 88.1496 49.7592 86.1421 56.7387C85.8939 57.606 85.5318 57.9291 84.5765 57.9172C80.8674 57.8509 77.1566 57.8764 73.4458 57.907C72.7659 57.907 72.5211 57.7556 72.5228 57.0176C72.5488 45.3999 72.5556 33.7827 72.5432 22.1662C72.5432 21.8669 72.606 21.5506 72.3851 21.156C71.7204 21.8074 71.0762 22.4247 70.4472 23.0539C61.8176 31.6876 53.1925 40.3257 44.572 48.9684C44.1062 49.4361 43.8479 49.3732 43.4178 48.9429C34.9038 40.3954 26.3824 31.8542 17.8536 23.3192C17.1176 22.5812 16.4699 21.7546 15.7815 20.9689L15.4075 21.2325Z" fill="#F16824"/>
<path d="M6.51217 66.8542H17.3913C19.6011 66.8542 21.8109 66.8219 24.0207 66.8712C24.7517 66.8882 24.9675 66.7267 24.9624 65.9563C24.9284 58.9598 24.9403 51.9633 24.9386 44.9669V43.5876C25.3194 43.9499 25.5574 44.1659 25.7886 44.392C31.6757 50.2774 37.5572 56.1685 43.4331 62.0652C43.9312 62.5754 44.1725 62.4648 44.6094 62.0261C50.5215 56.0863 56.4438 50.1567 62.3763 44.2373C62.5344 44.0791 62.701 43.9295 62.8727 43.7662C63.1854 43.989 63.0427 44.2951 63.0427 44.5468C63.0529 51.6895 63.0529 58.8283 63.0427 65.9631C63.0427 66.6433 63.1718 66.8746 63.9113 66.8712C69.7435 66.8372 75.5757 66.8525 81.6136 66.8525C77.981 72.7231 73.3812 77.4322 67.6901 81.0869C62.0626 84.7325 55.6577 87.0044 48.9916 87.7194C29.0506 89.8997 13.4578 78.8336 6.51217 66.8542Z" fill="white"/>
</g>
<defs>
<clipPath id="clip0_13_3130">
<rect width="88" height="88" fill="white"/>
</clipPath>
</defs>
</svg>
