<svg width="87" height="82" viewBox="0 0 87 82" fill="none" xmlns="http://www.w3.org/2000/svg">
<path d="M0 0H87V67C87 75.2843 80.2843 82 72 82H15C6.71573 82 0 75.2843 0 67V0Z" fill="#E82127"/>
<path d="M24.8328 66H20.4021L13.8514 54.498V66H9.39531V47.5156H13.8514L20.3895 59.0176V47.5156H24.8328V66ZM46.915 58.167H39.9072V62.5723H48.1846V66H35.4512V47.5156H48.21V50.9561H39.9072V54.8535H46.915V58.167ZM72.1203 59.1064L74.2404 47.5156H78.6584L74.7355 66H70.1145L67.6389 55.4629L65.2141 66H60.6057L56.6701 47.5156H61.1008L63.2209 59.1064L65.76 47.5156H69.5432L72.1203 59.1064Z" fill="white"/>
</svg>
