<svg width="1920" height="1351" viewBox="0 0 1920 1351" fill="none" xmlns="http://www.w3.org/2000/svg">
<path opacity="0.3" d="M1316.67 747.724L1205.89 747.718L1205.9 752.253L1318.5 752.288L1360.74 712.675L1501.17 712.733L1538.15 675.775C1539.91 677.194 1541.98 678.173 1544.18 678.628C1546.39 679.084 1548.68 679.002 1550.85 678.391C1553.02 677.779 1555.01 676.656 1556.65 675.115C1558.3 673.574 1559.55 671.66 1560.3 669.534C1561.06 667.408 1561.29 665.132 1560.98 662.896C1560.67 660.661 1559.83 658.532 1558.53 656.687C1557.23 654.843 1555.51 653.337 1553.51 652.296C1551.51 651.256 1549.29 650.71 1547.03 650.706C1544.51 650.703 1542.03 651.38 1539.85 652.665C1537.68 653.951 1535.89 655.797 1534.68 658.012C1533.46 660.226 1532.87 662.727 1532.95 665.253C1533.03 667.779 1533.79 670.236 1535.15 672.369L1499.31 708.19L1358.92 708.103L1316.67 747.724ZM1537.4 664.759C1537.4 662.546 1538.17 660.403 1539.57 658.694C1540.97 656.985 1542.93 655.816 1545.09 655.387C1547.26 654.957 1549.51 655.294 1551.46 656.339C1553.41 657.384 1554.94 659.073 1555.79 661.118C1556.63 663.164 1556.75 665.438 1556.1 667.555C1555.46 669.672 1554.1 671.5 1552.27 672.727C1550.43 673.955 1548.22 674.506 1546.02 674.286C1543.82 674.067 1541.76 673.091 1540.2 671.525C1538.41 669.729 1537.4 667.295 1537.4 664.759Z" fill="white"/>
<path opacity="0.3" d="M1349.42 666.146L1489.83 666.245L1527.55 628.546L1639.57 628.565C1640.54 632.023 1642.77 634.99 1645.83 636.875C1648.88 638.76 1652.54 639.426 1656.06 638.739C1659.58 638.052 1662.71 636.063 1664.83 633.167C1666.95 630.272 1667.9 626.684 1667.5 623.116C1667.09 619.548 1665.36 616.262 1662.64 613.913C1659.93 611.564 1656.43 610.323 1652.84 610.439C1649.26 610.554 1645.85 612.017 1643.29 614.535C1640.73 617.054 1639.22 620.444 1639.05 624.03L1525.63 623.96L1487.9 661.666L1347.57 661.616L1305.37 701.249L1194.56 701.209L1194.56 705.737L1307.11 705.828L1349.42 666.146ZM1653.12 615.076C1654.38 615.076 1655.62 615.325 1656.79 615.807C1657.95 616.29 1659 616.996 1659.89 617.887C1660.78 618.777 1661.48 619.834 1661.96 620.997C1662.45 622.16 1662.69 623.406 1662.69 624.664C1662.69 626.238 1662.3 627.787 1661.56 629.174C1660.82 630.561 1659.74 631.743 1658.44 632.616C1657.13 633.489 1655.63 634.026 1654.06 634.178C1652.49 634.331 1650.92 634.095 1649.46 633.491C1648.01 632.887 1646.73 631.934 1645.73 630.717C1644.73 629.499 1644.05 628.055 1643.74 626.511C1643.43 624.967 1643.51 623.371 1643.97 621.865C1644.42 620.359 1645.24 618.989 1646.36 617.877C1647.24 616.984 1648.3 616.276 1649.46 615.796C1650.62 615.315 1651.86 615.07 1653.12 615.076Z" fill="white"/>
<path opacity="0.3" d="M1579.17 754.907C1579.05 755.463 1578.99 756.029 1578.99 756.598C1578.99 758.509 1579.65 760.362 1580.87 761.84C1582.08 763.318 1583.77 764.328 1585.64 764.696C1587.52 765.065 1589.46 764.769 1591.14 763.86C1592.82 762.951 1594.13 761.485 1594.85 759.714C1595.56 757.943 1595.64 755.977 1595.07 754.153C1594.49 752.33 1593.3 750.762 1591.7 749.72C1590.1 748.677 1588.18 748.225 1586.29 748.44C1584.39 748.656 1582.62 749.525 1581.3 750.9L1537.43 731.205L1399.48 731.147C1398.93 729.247 1397.71 727.609 1396.05 726.534C1394.39 725.459 1392.4 725.02 1390.45 725.296C1388.49 725.573 1386.7 726.548 1385.41 728.041C1384.11 729.533 1383.4 731.444 1383.41 733.421C1383.41 735.398 1384.12 737.308 1385.42 738.8C1386.72 740.291 1388.51 741.264 1390.47 741.539C1392.43 741.814 1394.42 741.373 1396.07 740.296C1397.73 739.219 1398.94 737.58 1399.48 735.68L1536.48 735.716L1579.17 754.907Z" fill="white"/>
<path opacity="0.3" d="M1733.92 924.99C1732.61 923.668 1731.05 922.619 1729.34 921.905C1727.63 921.19 1725.79 920.824 1723.93 920.827C1722.07 920.825 1720.22 921.188 1718.5 921.896L1690.97 878.033L1530.36 877.969L1505.76 837.065L1095.42 835.85L1095.41 840.383L1503.19 841.539L1527.8 882.45L1688.47 882.571L1714.69 924.332C1714.47 924.558 1714.25 924.777 1713.99 925.039C1712.02 927.01 1710.68 929.522 1710.13 932.256C1709.59 934.991 1709.87 937.826 1710.94 940.403C1712.01 942.98 1713.81 945.184 1716.13 946.734C1718.45 948.285 1721.17 949.114 1723.96 949.116C1726.75 949.118 1729.47 948.294 1731.79 946.746C1734.1 945.199 1735.91 942.998 1736.98 940.423C1738.04 937.847 1738.32 935.013 1737.78 932.277C1737.24 929.541 1735.89 927.027 1733.92 925.053L1733.92 924.99ZM1723.96 944.519C1721.75 944.517 1719.6 943.748 1717.9 942.343C1716.19 940.938 1715.02 938.985 1714.59 936.815C1714.15 934.646 1714.49 932.394 1715.53 930.445C1716.57 928.495 1718.26 926.967 1720.3 926.122C1722.34 925.277 1724.61 925.166 1726.73 925.809C1728.84 926.452 1730.67 927.809 1731.9 929.648C1733.13 931.487 1733.68 933.696 1733.47 935.897C1733.25 938.097 1732.28 940.155 1730.72 941.719C1729.83 942.61 1728.78 943.317 1727.62 943.797C1726.46 944.278 1725.21 944.523 1723.96 944.519Z" fill="white"/>
<path opacity="0.3" d="M1593.08 900.477C1591.3 900.478 1589.57 901.059 1588.16 902.132C1586.74 903.205 1585.72 904.712 1585.23 906.422L1506.58 906.384L1478.27 863.575L1390.97 863.534C1390.42 861.632 1389.2 859.991 1387.54 858.914C1385.88 857.837 1383.89 857.397 1381.93 857.674C1379.97 857.95 1378.18 858.926 1376.88 860.421C1375.59 861.915 1374.87 863.828 1374.88 865.808C1374.88 867.787 1375.6 869.7 1376.9 871.193C1378.2 872.686 1379.99 873.66 1381.95 873.935C1383.91 874.21 1385.9 873.768 1387.56 872.69C1389.22 871.611 1390.43 869.97 1390.97 868.067L1475.83 868.105L1504.15 910.9L1585.23 910.941C1585.65 912.403 1586.48 913.716 1587.61 914.735C1588.74 915.754 1590.13 916.438 1591.63 916.711C1593.13 916.983 1594.67 916.834 1596.09 916.279C1597.5 915.724 1598.73 914.786 1599.65 913.569C1600.56 912.352 1601.12 910.905 1601.25 909.389C1601.39 907.873 1601.1 906.348 1600.42 904.986C1599.74 903.623 1598.7 902.477 1597.41 901.674C1596.11 900.872 1594.62 900.445 1593.1 900.441L1593.08 900.477Z" fill="white"/>
<path opacity="0.3" d="M1705.29 554.854C1704.76 551.349 1702.94 548.168 1700.18 545.945C1697.42 543.721 1693.93 542.619 1690.39 542.856C1686.86 543.094 1683.55 544.654 1681.11 547.226C1678.68 549.798 1677.3 553.194 1677.26 556.738C1677.21 560.282 1678.5 563.714 1680.87 566.351C1683.24 568.988 1686.51 570.638 1690.04 570.971C1693.56 571.304 1697.08 570.297 1699.9 568.149C1702.72 566.002 1704.62 562.871 1705.23 559.381L1751.43 559.43L1765.78 540.567L2007.35 540.816L2007.35 536.282L1763.53 536.037L1749.19 554.908L1705.29 554.854ZM1691.36 566.496C1689.47 566.492 1687.63 565.927 1686.06 564.873C1684.49 563.82 1683.27 562.325 1682.55 560.577C1681.82 558.829 1681.64 556.908 1682.01 555.054C1682.38 553.201 1683.29 551.499 1684.62 550.164C1685.96 548.829 1687.66 547.92 1689.51 547.553C1691.36 547.185 1693.28 547.376 1695.03 548.099C1696.78 548.823 1698.27 550.048 1699.32 551.62C1700.37 553.192 1700.93 555.039 1700.93 556.929C1700.94 558.189 1700.7 559.438 1700.22 560.604C1699.74 561.769 1699.04 562.827 1698.15 563.717C1697.26 564.608 1696.2 565.312 1695.03 565.789C1693.87 566.266 1692.62 566.506 1691.36 566.496Z" fill="white"/>
<path opacity="0.3" d="M2208.03 746.885L2208.03 742.351L2130.28 742.269L2114.23 758.301L1999.18 758.165L1984.46 772.875L1938.98 772.827L1926.9 756.963L1743.02 756.761C1742.32 753.246 1740.32 750.122 1737.42 748.013C1734.53 745.904 1730.94 744.963 1727.39 745.379C1723.83 745.794 1720.56 747.535 1718.23 750.255C1715.9 752.975 1714.68 756.475 1714.82 760.056C1714.95 763.637 1716.43 767.038 1718.95 769.581C1721.48 772.124 1724.87 773.622 1728.45 773.778C1732.02 773.933 1735.53 772.734 1738.26 770.419C1740.99 768.105 1742.75 764.845 1743.19 761.288L1924.68 761.495L1936.77 777.337L1986.32 777.453L2001.06 762.715L2116.18 762.865L2132.25 746.805L2208.03 746.885ZM1729.21 769.153C1727 769.15 1724.85 768.381 1723.15 766.976C1721.44 765.571 1720.27 763.618 1719.84 761.448C1719.4 759.278 1719.74 757.026 1720.78 755.076C1721.82 753.126 1723.51 751.598 1725.55 750.753C1727.59 749.908 1729.86 749.797 1731.98 750.44C1734.09 751.083 1735.92 752.439 1737.15 754.279C1738.38 756.119 1738.93 758.327 1738.72 760.528C1738.5 762.73 1737.53 764.788 1735.97 766.352C1735.09 767.244 1734.03 767.951 1732.87 768.432C1731.71 768.913 1730.46 769.158 1729.21 769.153Z" fill="white"/>
<path opacity="0.3" d="M1727.79 874.531L1699.89 897.51L1672.01 897.48L1640.32 874.416L1603.24 874.377C1602.58 870.876 1600.63 867.752 1597.77 865.626C1594.91 863.501 1591.36 862.529 1587.82 862.905C1584.28 863.282 1581.01 864.978 1578.67 867.656C1576.32 870.335 1575.07 873.8 1575.17 877.361C1575.26 880.922 1576.69 884.318 1579.17 886.874C1581.65 889.429 1585.01 890.957 1588.56 891.152C1592.12 891.348 1595.61 890.197 1598.35 887.928C1601.1 885.66 1602.88 882.441 1603.36 878.911L1638.85 878.942L1670.54 902.005L1701.51 902.038L1729.42 879.059L2075.75 879.428L2075.76 874.902L1727.79 874.531ZM1589.39 886.613C1587.55 886.624 1585.74 886.105 1584.19 885.119C1582.63 884.133 1581.39 882.72 1580.62 881.05C1579.84 879.379 1579.56 877.521 1579.81 875.697C1580.06 873.873 1580.83 872.16 1582.03 870.762C1583.22 869.364 1584.8 868.34 1586.56 867.811C1588.32 867.283 1590.2 867.273 1591.97 867.782C1593.74 868.292 1595.32 869.299 1596.53 870.685C1597.75 872.07 1598.54 873.775 1598.81 875.596L1598.81 878.51C1598.47 880.768 1597.34 882.83 1595.61 884.317C1593.88 885.805 1591.67 886.62 1589.39 886.613Z" fill="white"/>
<path opacity="0.3" d="M1994.87 653.629L1888.84 653.517L1874.5 672.374L1831.77 672.364C1831.21 670.465 1829.98 668.832 1828.32 667.765C1826.65 666.698 1824.65 666.27 1822.69 666.56C1820.74 666.849 1818.95 667.836 1817.66 669.339C1816.38 670.842 1815.68 672.76 1815.69 674.74C1815.71 676.72 1816.44 678.628 1817.75 680.113C1819.06 681.599 1820.86 682.562 1822.82 682.825C1824.78 683.087 1826.77 682.632 1828.42 681.543C1830.07 680.454 1831.27 678.805 1831.81 676.898L1876.75 676.917L1891.11 658.053L1994.89 658.163L1994.87 653.629Z" fill="white"/>
<path opacity="0.3" d="M1873.52 559.459L1799.4 559.379C1798.92 557.451 1797.75 555.762 1796.13 554.623C1794.5 553.485 1792.51 552.973 1790.54 553.182C1788.56 553.392 1786.73 554.308 1785.38 555.763C1784.03 557.218 1783.25 559.113 1783.18 561.1C1783.12 563.086 1783.77 565.03 1785.02 566.573C1786.28 568.116 1788.04 569.154 1790 569.497C1791.96 569.84 1793.97 569.463 1795.67 568.437C1797.37 567.411 1798.64 565.804 1799.25 563.913L1871.64 563.99L1887.67 580.049L2002.74 580.186L2017.45 594.927L2067.05 594.966L2079.13 579.122L2262.89 579.319L2262.85 574.82L2078.01 574.594L2076.89 574.586L2064.81 590.43L2019.33 590.389L2004.62 575.647L1889.55 575.524L1873.52 559.459Z" fill="white"/>
<path opacity="0.3" d="M1373.16 548.131L1387.87 562.872L1502.95 563.002L1518.97 579.061L1593.09 579.14C1593.57 581.065 1594.74 582.751 1596.37 583.886C1597.99 585.021 1599.98 585.529 1601.95 585.317C1603.92 585.105 1605.75 584.187 1607.1 582.732C1608.45 581.277 1609.22 579.383 1609.29 577.398C1609.35 575.414 1608.69 573.474 1607.44 571.934C1606.18 570.395 1604.42 569.36 1602.46 569.021C1600.51 568.682 1598.5 569.062 1596.8 570.089C1595.1 571.117 1593.84 572.724 1593.23 574.614L1520.85 574.536L1504.83 558.485L1389.79 558.383L1375.05 543.621L1325.45 543.567L1313.38 559.412L1129.61 559.215L1129.6 563.749L1315.62 563.948L1327.69 548.104L1373.16 548.131Z" fill="white"/>
<path d="M2074.7 687.681L2138.82 687.674L2138.8 685.007L2073.69 685.057L2049.23 707.996L1967.95 708.008L1946.54 729.406C1944.95 728.11 1942.93 727.463 1940.87 727.592C1938.82 727.722 1936.9 728.619 1935.48 730.106C1934.06 731.593 1933.25 733.56 1933.21 735.615C1933.18 737.671 1933.92 739.665 1935.28 741.201C1936.65 742.736 1938.54 743.7 1940.59 743.901C1942.63 744.102 1944.68 743.526 1946.32 742.286C1947.96 741.047 1949.07 739.235 1949.44 737.212C1949.8 735.188 1949.39 733.101 1948.29 731.366L1969.03 710.633L2050.25 710.606L2074.7 687.681ZM1946.95 735.744C1946.95 737.214 1946.36 738.623 1945.32 739.662C1944.28 740.701 1942.87 741.285 1941.4 741.286C1940.49 741.287 1939.6 741.064 1938.79 740.635C1937.99 740.205 1937.3 739.584 1936.79 738.826C1936.29 738.069 1935.98 737.197 1935.89 736.29C1935.8 735.382 1935.93 734.466 1936.28 733.624C1936.63 732.781 1937.18 732.038 1937.89 731.46C1938.59 730.881 1939.43 730.486 1940.32 730.309C1941.22 730.132 1942.14 730.178 1943.01 730.443C1943.88 730.709 1944.68 731.186 1945.32 731.832C1945.84 732.345 1946.24 732.954 1946.52 733.625C1946.8 734.297 1946.95 735.017 1946.95 735.744ZM2055.77 734.87L1974.5 734.882L1952.66 756.712L1887.79 756.719C1887.23 754.728 1885.93 753.023 1884.17 751.942C1882.41 750.862 1880.3 750.485 1878.28 750.886C1876.25 751.288 1874.45 752.439 1873.23 754.11C1872.01 755.781 1871.46 757.85 1871.7 759.905C1871.94 761.96 1872.94 763.851 1874.5 765.201C1876.07 766.55 1878.09 767.26 1880.15 767.19C1882.22 767.119 1884.18 766.272 1885.65 764.818C1887.12 763.364 1887.99 761.409 1888.09 759.343L1953.74 759.336L1975.59 737.5L2056.8 737.487L2081.26 714.556L2145.39 714.541L2145.39 711.924L2080.22 711.931L2055.77 734.87ZM1879.97 764.537C1879.24 764.537 1878.52 764.394 1877.85 764.116C1877.17 763.837 1876.56 763.429 1876.05 762.914C1875.54 762.4 1875.13 761.789 1874.85 761.117C1874.57 760.444 1874.43 759.724 1874.43 758.996C1874.43 758.268 1874.57 757.548 1874.85 756.875C1875.13 756.203 1875.54 755.592 1876.05 755.077C1876.56 754.563 1877.17 754.154 1877.85 753.876C1878.52 753.597 1879.24 753.454 1879.97 753.454C1880.69 753.449 1881.41 753.589 1882.09 753.867C1882.76 754.144 1883.37 754.553 1883.88 755.069C1884.66 755.843 1885.19 756.831 1885.4 757.907C1885.62 758.984 1885.51 760.1 1885.09 761.114C1884.67 762.128 1883.96 762.995 1883.05 763.605C1882.13 764.214 1881.06 764.539 1879.97 764.537ZM1947.51 694.629L2026.81 694.622C2027.13 693.525 2027.83 692.581 2028.79 691.962C2029.75 691.344 2030.9 691.093 2032.03 691.256C2033.16 691.42 2034.2 691.986 2034.94 692.851C2035.69 693.716 2036.1 694.822 2036.09 695.965C2036.09 697.107 2035.67 698.21 2034.92 699.07C2034.17 699.931 2033.13 700.49 2032 700.646C2030.87 700.802 2029.72 700.544 2028.77 699.919C2027.81 699.295 2027.11 698.346 2026.8 697.246L1946.93 697.238L1921.55 685.858C1921.11 686.321 1920.58 686.689 1919.99 686.94C1919.4 687.192 1918.77 687.321 1918.13 687.32C1917.19 687.319 1916.27 687.04 1915.49 686.517C1914.71 685.995 1914.11 685.252 1913.75 684.384C1913.39 683.516 1913.3 682.56 1913.48 681.639C1913.66 680.718 1914.12 679.871 1914.78 679.207C1915.45 678.543 1916.29 678.091 1917.21 677.908C1918.13 677.726 1919.09 677.82 1919.96 678.18C1920.82 678.54 1921.56 679.149 1922.08 679.93C1922.61 680.712 1922.88 681.63 1922.88 682.57C1922.88 682.898 1922.85 683.224 1922.78 683.546L1947.51 694.629ZM1833.21 585.146C1834.35 586.294 1835.8 587.075 1837.39 587.391C1838.97 587.707 1840.62 587.543 1842.11 586.919L1858.05 612.313L1951.02 612.307L1965.26 635.974L2202.83 636.571L2202.83 633.947L1966.76 633.33L1952.51 609.677L1859.5 609.69L1844.34 585.527C1844.47 585.4 1844.6 585.265 1844.73 585.138C1845.87 583.997 1846.65 582.543 1846.96 580.96C1847.28 579.377 1847.12 577.736 1846.5 576.244C1845.89 574.752 1844.84 573.477 1843.5 572.579C1842.16 571.681 1840.58 571.202 1838.97 571.201C1837.36 571.2 1835.78 571.678 1834.44 572.574C1833.1 573.47 1832.05 574.745 1831.43 576.236C1830.81 577.727 1830.65 579.368 1830.96 580.951C1831.28 582.535 1832.05 583.99 1833.19 585.132L1833.21 585.146ZM1838.97 573.839C1840.25 573.84 1841.49 574.285 1842.48 575.097C1843.47 575.91 1844.14 577.04 1844.39 578.295C1844.64 579.55 1844.45 580.853 1843.84 581.981C1843.24 583.11 1842.26 583.994 1841.08 584.483C1839.9 584.972 1838.59 585.035 1837.36 584.663C1836.14 584.291 1835.08 583.506 1834.37 582.441C1833.66 581.377 1833.34 580.099 1833.47 578.825C1833.6 577.552 1834.16 576.361 1835.07 575.457C1835.58 574.943 1836.19 574.535 1836.86 574.257C1837.53 573.98 1838.25 573.838 1838.97 573.839ZM1910 594.517C1909.99 593.368 1910.4 592.254 1911.15 591.383C1911.9 590.512 1912.94 589.943 1914.07 589.783C1915.21 589.623 1916.37 589.882 1917.33 590.511C1918.29 591.141 1918.99 592.099 1919.3 593.207L1966.25 593.183L1982.63 617.955L2031.76 617.946C2032.07 616.842 2032.77 615.888 2033.74 615.261C2034.7 614.633 2035.85 614.374 2036.99 614.532C2038.12 614.689 2039.17 615.252 2039.92 616.117C2040.67 616.981 2041.09 618.09 2041.09 619.238C2041.1 620.386 2040.68 621.496 2039.93 622.364C2039.18 623.232 2038.14 623.8 2037.01 623.962C2035.87 624.124 2034.71 623.87 2033.75 623.247C2032.79 622.624 2032.08 621.673 2031.76 620.57L1981.19 620.592L1964.82 595.82L1919.28 595.824C1918.97 596.924 1918.27 597.874 1917.31 598.498C1916.35 599.121 1915.2 599.376 1914.06 599.216C1912.93 599.056 1911.9 598.492 1911.15 597.627C1910.4 596.762 1909.99 595.655 1909.99 594.51L1910 594.517ZM1849.85 799.313C1850.16 801.333 1851.21 803.164 1852.8 804.442C1854.4 805.72 1856.41 806.35 1858.45 806.209C1860.49 806.067 1862.4 805.163 1863.8 803.677C1865.2 802.191 1865.99 800.231 1866.01 798.188C1866.04 796.145 1865.29 794.168 1863.92 792.651C1862.56 791.133 1860.67 790.186 1858.64 789.998C1856.6 789.81 1854.57 790.395 1852.95 791.636C1851.33 792.877 1850.23 794.684 1849.88 796.696L1823.17 796.646L1814.86 807.577L1675.03 807.493L1675.03 810.118L1816.16 810.195L1824.42 799.314L1849.85 799.313ZM1857.91 792.57C1859.2 792.569 1860.44 793.013 1861.43 793.828C1862.43 794.642 1863.11 795.776 1863.36 797.035C1863.61 798.295 1863.42 799.603 1862.81 800.736C1862.21 801.87 1861.23 802.758 1860.04 803.25C1858.86 803.742 1857.54 803.807 1856.31 803.434C1855.08 803.061 1854.02 802.274 1853.3 801.206C1852.59 800.137 1852.27 798.855 1852.4 797.576C1852.52 796.298 1853.09 795.103 1854 794.195C1854.51 793.676 1855.12 793.264 1855.8 792.984C1856.47 792.704 1857.19 792.561 1857.92 792.563L1857.91 792.57ZM1558.91 688.242L1558.91 690.859L1603.91 690.905L1613.2 681.623L1679.81 681.659L1688.33 673.141L1714.66 673.148L1721.64 682.34L1828.08 682.398C1828.48 684.427 1829.64 686.228 1831.31 687.443C1832.98 688.659 1835.05 689.199 1837.11 688.957C1839.16 688.714 1841.05 687.707 1842.39 686.136C1843.74 684.564 1844.44 682.543 1844.37 680.476C1844.29 678.408 1843.44 676.445 1841.98 674.978C1840.52 673.51 1838.57 672.646 1836.5 672.556C1834.44 672.467 1832.41 673.159 1830.83 674.495C1829.25 675.831 1828.24 677.713 1827.98 679.767L1722.94 679.716L1715.96 670.532L1687.23 670.495L1678.74 678.978L1612.13 678.942L1602.81 688.259L1558.91 688.242ZM1836.04 675.188C1837.32 675.188 1838.56 675.633 1839.55 676.445C1840.54 677.258 1841.21 678.388 1841.46 679.643C1841.71 680.899 1841.51 682.202 1840.91 683.33C1840.31 684.458 1839.33 685.342 1838.15 685.831C1836.97 686.32 1835.65 686.384 1834.43 686.012C1833.21 685.639 1832.15 684.854 1831.44 683.789C1830.73 682.725 1830.41 681.447 1830.54 680.173C1830.66 678.9 1831.23 677.71 1832.13 676.805C1832.64 676.291 1833.25 675.883 1833.93 675.606C1834.6 675.328 1835.32 675.186 1836.04 675.188ZM1868.63 653.597L1884.8 640.266L1900.95 640.275L1919.28 653.618L1940.74 653.629C1941.12 655.667 1942.25 657.487 1943.9 658.727C1945.56 659.967 1947.63 660.537 1949.69 660.323C1951.75 660.108 1953.65 659.125 1955.02 657.57C1956.39 656.015 1957.12 654 1957.07 651.929C1957.02 649.858 1956.19 647.881 1954.75 646.392C1953.32 644.903 1951.37 644.012 1949.3 643.895C1947.23 643.779 1945.2 644.446 1943.6 645.763C1942 647.081 1940.96 648.952 1940.68 651.005L1920.14 650.994L1901.87 637.673L1883.93 637.656L1867.77 650.987L1667.31 650.877L1667.31 653.494L1868.63 653.597ZM1948.76 646.561C1949.82 646.554 1950.87 646.853 1951.77 647.424C1952.67 647.995 1953.39 648.813 1953.84 649.781C1954.28 650.748 1954.45 651.825 1954.3 652.881C1954.15 653.938 1953.71 654.931 1953.01 655.741C1952.32 656.551 1951.41 657.144 1950.39 657.45C1949.37 657.756 1948.28 657.762 1947.25 657.466C1946.23 657.171 1945.31 656.587 1944.61 655.784C1943.91 654.981 1943.45 653.993 1943.3 652.938L1943.3 651.254C1943.49 649.947 1944.15 648.753 1945.16 647.892C1946.16 647.03 1947.44 646.558 1948.76 646.561ZM1682.26 739.554L1742.33 739.586L1750.63 728.663L1776.67 728.677C1776.97 727.571 1777.67 726.614 1778.63 725.981C1779.59 725.349 1780.74 725.084 1781.88 725.235C1783.01 725.386 1784.06 725.943 1784.82 726.804C1785.58 727.665 1786 728.771 1786.01 729.919C1786.02 731.067 1785.61 732.179 1784.86 733.051C1784.12 733.923 1783.08 734.496 1781.95 734.665C1780.81 734.833 1779.65 734.585 1778.69 733.967C1777.72 733.349 1777.01 732.402 1776.69 731.301L1751.93 731.288L1743.63 742.204L1682.26 742.171L1682.26 739.554ZM1748.06 772.352L1681.45 772.315L1672.97 763.823L1646.65 763.809L1639.65 772.986L1531.99 772.92L1531.99 770.303L1638.35 770.361L1645.37 761.142L1674.08 761.157L1682.6 769.685L1749.21 769.721L1758.48 779.013L1800.38 779.036C1800.74 777.953 1801.47 777.034 1802.45 776.449C1803.43 775.864 1804.58 775.652 1805.7 775.852C1806.82 776.051 1807.84 776.65 1808.55 777.537C1809.27 778.423 1809.64 779.539 1809.6 780.678C1809.56 781.817 1809.11 782.904 1808.33 783.737C1807.55 784.571 1806.5 785.096 1805.37 785.215C1804.24 785.335 1803.1 785.041 1802.16 784.388C1801.23 783.734 1800.56 782.766 1800.29 781.66L1757.33 781.644L1748.06 772.352ZM2068.3 803.238L2075.3 794.068L2182.96 794.126L2182.96 796.744L2076.58 796.671L2069.58 805.841L2040.88 805.833L2032.4 797.34L1965.79 797.304L1956.53 788.019L1914.63 787.996C1914.27 789.087 1913.54 790.013 1912.56 790.605C1911.58 791.197 1910.42 791.415 1909.29 791.218C1908.16 791.021 1907.14 790.424 1906.42 789.535C1905.7 788.646 1905.32 787.526 1905.36 786.381C1905.4 785.236 1905.85 784.143 1906.63 783.304C1907.41 782.464 1908.46 781.935 1909.6 781.813C1910.74 781.691 1911.88 781.985 1912.82 782.64C1913.76 783.295 1914.43 784.268 1914.71 785.379L1957.61 785.396L1966.86 794.659L2033.47 794.696L2041.94 803.188L2068.3 803.238ZM1888.73 837.501L1872.56 850.832L1856.43 850.823L1838.09 837.487L1816.63 837.476C1816.34 835.867 1815.56 834.388 1814.39 833.238C1813.09 831.931 1811.39 831.102 1809.56 830.888C1807.73 830.673 1805.88 831.085 1804.31 832.055C1802.74 833.026 1801.55 834.499 1800.92 836.234C1800.3 837.969 1800.28 839.865 1800.87 841.613C1801.46 843.362 1802.62 844.859 1804.16 845.862C1805.71 846.866 1807.55 847.316 1809.39 847.139C1811.22 846.963 1812.94 846.171 1814.27 844.892C1815.6 843.612 1816.46 841.921 1816.7 840.093L1837.24 840.104L1855.57 853.447L1873.51 853.449L1889.67 840.125L2090.12 840.235L2090.12 837.618L1888.73 837.501ZM1808.62 844.537C1807.56 844.544 1806.51 844.244 1805.61 843.674C1804.72 843.104 1804 842.287 1803.55 841.322C1803.11 840.356 1802.94 839.282 1803.09 838.227C1803.24 837.173 1803.68 836.182 1804.37 835.374C1805.07 834.566 1805.98 833.973 1806.99 833.668C1808.01 833.362 1809.1 833.356 1810.12 833.651C1811.14 833.945 1812.06 834.527 1812.76 835.328C1813.46 836.129 1813.92 837.114 1814.07 838.167L1814.07 839.837C1813.9 841.001 1813.37 842.079 1812.54 842.913C1812.02 843.428 1811.41 843.837 1810.74 844.116C1810.07 844.395 1809.35 844.538 1808.62 844.537ZM1874.91 696.407C1871.42 699.89 1869.05 704.328 1868.09 709.161C1867.12 713.994 1867.61 719.004 1869.49 723.558C1871.37 728.112 1874.56 732.005 1878.66 734.746C1882.75 737.486 1887.56 738.95 1892.49 738.952C1897.41 738.955 1902.23 737.496 1906.32 734.761C1910.42 732.025 1913.61 728.135 1915.5 723.583C1917.39 719.031 1917.89 714.022 1916.93 709.188C1915.97 704.354 1913.6 699.913 1910.12 696.426C1905.45 691.756 1899.12 689.13 1892.52 689.127C1885.92 689.123 1879.58 691.741 1874.91 696.407ZM1908.27 698.278C1911.38 701.398 1913.5 705.372 1914.36 709.697C1915.22 714.023 1914.77 718.506 1913.08 722.579C1911.39 726.652 1908.54 730.133 1904.87 732.581C1901.2 735.029 1896.9 736.334 1892.49 736.332C1888.08 736.329 1883.77 735.019 1880.11 732.567C1876.45 730.115 1873.6 726.632 1871.91 722.557C1870.23 718.482 1869.79 713.998 1870.65 709.674C1871.52 705.349 1873.64 701.377 1876.76 698.261C1880.94 694.087 1886.61 691.744 1892.52 691.747C1898.43 691.751 1904.09 694.099 1908.27 698.278ZM1879.76 726.774C1882.27 729.294 1885.48 731.01 1888.97 731.707C1892.46 732.403 1896.08 732.049 1899.36 730.688C1902.65 729.327 1905.46 727.021 1907.44 724.061C1909.42 721.101 1910.48 717.62 1910.48 714.059C1910.49 710.498 1909.43 707.017 1907.46 704.055C1905.48 701.093 1902.67 698.783 1899.39 697.419C1896.1 696.054 1892.48 695.696 1888.99 696.388C1885.5 697.081 1882.29 698.794 1879.78 701.311C1876.4 704.686 1874.5 709.264 1874.5 714.04C1874.49 718.815 1876.39 723.396 1879.76 726.774ZM1903.4 703.142C1905.56 705.298 1907.03 708.044 1907.62 711.035C1908.21 714.025 1907.91 717.125 1906.74 719.942C1905.57 722.759 1903.6 725.167 1901.07 726.86C1898.53 728.554 1895.55 729.457 1892.51 729.457C1889.46 729.456 1886.48 728.551 1883.95 726.856C1881.41 725.162 1879.44 722.753 1878.28 719.936C1877.11 717.118 1876.81 714.019 1877.41 711.028C1878 708.038 1879.47 705.292 1881.63 703.137C1884.52 700.251 1888.43 698.631 1892.52 698.632C1896.6 698.633 1900.52 700.255 1903.4 703.142ZM1886.51 708.034C1887.7 706.84 1889.2 706.024 1890.85 705.688C1892.49 705.353 1894.2 705.514 1895.75 706.151C1897.31 706.788 1898.64 707.871 1899.57 709.265C1900.51 710.659 1901.01 712.3 1901.02 713.979C1901.02 715.659 1900.52 717.302 1899.59 718.701C1898.66 720.099 1897.34 721.189 1895.79 721.834C1894.24 722.478 1892.53 722.647 1890.89 722.32C1889.24 721.992 1887.73 721.183 1886.54 719.995C1884.96 718.409 1884.07 716.261 1884.06 714.02C1884.06 711.779 1884.94 709.627 1886.51 708.034ZM1846.04 716.224L1852.75 722.947L1846.03 729.663L1839.32 722.94L1846.04 716.224ZM1834.84 727.422L1841.55 734.145L1834.83 740.86L1828.12 734.137L1834.84 727.422ZM1823.64 738.619L1830.35 745.342L1823.63 752.058L1816.92 745.335L1823.64 738.619ZM1812.43 749.817L1819.14 756.54L1812.44 763.241L1805.73 756.518L1812.43 749.817ZM1858.06 741.736L1851.35 735.013L1858.08 728.283L1864.79 735.006L1858.06 741.736ZM1846.86 739.495L1853.57 746.218L1846.85 752.934L1840.14 746.21L1846.86 739.495Z" fill="white"/>
<path opacity="0.3" d="M626.95 747.724L737.729 747.718L737.723 752.253L625.12 752.288L582.88 712.675L442.446 712.733L405.466 675.775C403.713 677.194 401.645 678.173 399.436 678.628C397.227 679.084 394.942 679.002 392.772 678.391C390.603 677.779 388.611 676.656 386.966 675.115C385.321 673.574 384.069 671.66 383.316 669.534C382.563 667.408 382.331 665.132 382.64 662.896C382.948 660.661 383.787 658.532 385.087 656.687C386.388 654.843 388.111 653.337 390.112 652.296C392.114 651.256 394.335 650.71 396.59 650.706C399.115 650.703 401.594 651.38 403.767 652.665C405.94 653.951 407.727 655.797 408.942 658.012C410.156 660.226 410.753 662.727 410.67 665.253C410.587 667.779 409.827 670.236 408.47 672.369L444.311 708.19L584.704 708.103L626.95 747.724ZM406.221 664.759C406.22 662.546 405.453 660.403 404.05 658.694C402.647 656.985 400.695 655.816 398.526 655.387C396.357 654.957 394.106 655.294 392.156 656.339C390.206 657.384 388.678 659.073 387.832 661.118C386.986 663.164 386.875 665.438 387.517 667.555C388.159 669.672 389.515 671.5 391.354 672.727C393.193 673.955 395.4 674.506 397.601 674.286C399.802 674.067 401.859 673.091 403.422 671.525C405.213 669.729 406.22 667.295 406.221 664.759Z" fill="white"/>
<path opacity="0.3" d="M594.201 666.146L453.788 666.245L416.068 628.546L304.052 628.565C303.082 632.023 300.847 634.99 297.792 636.875C294.736 638.761 291.084 639.426 287.563 638.739C284.042 638.052 280.909 636.063 278.789 633.167C276.669 630.272 275.717 626.684 276.122 623.116C276.528 619.548 278.261 616.262 280.977 613.913C283.693 611.564 287.192 610.323 290.778 610.439C294.364 610.554 297.775 612.017 300.33 614.535C302.885 617.054 304.398 620.444 304.567 624.03L417.99 623.96L455.717 661.666L596.052 661.616L638.255 701.249L749.062 701.209L749.063 705.737L636.51 705.828L594.201 666.146ZM290.498 615.076C289.241 615.076 287.996 615.325 286.835 615.807C285.673 616.29 284.618 616.996 283.729 617.887C282.84 618.777 282.136 619.834 281.655 620.997C281.174 622.16 280.927 623.406 280.928 624.664C280.929 626.238 281.318 627.787 282.06 629.174C282.802 630.561 283.875 631.744 285.183 632.616C286.491 633.489 287.995 634.026 289.56 634.178C291.125 634.331 292.704 634.095 294.158 633.491C295.611 632.887 296.893 631.934 297.891 630.717C298.889 629.499 299.571 628.055 299.879 626.511C300.186 624.967 300.108 623.371 299.652 621.865C299.196 620.359 298.375 618.989 297.264 617.877C296.378 616.984 295.324 616.276 294.163 615.796C293.001 615.315 291.755 615.07 290.498 615.076Z" fill="white"/>
<path opacity="0.3" d="M364.449 754.907C364.569 755.463 364.628 756.029 364.626 756.598C364.629 758.509 363.968 760.362 362.755 761.84C361.542 763.318 359.853 764.328 357.979 764.696C356.104 765.065 354.16 764.769 352.481 763.86C350.801 762.951 349.491 761.485 348.775 759.714C348.058 757.943 347.98 755.977 348.554 754.153C349.128 752.33 350.318 750.762 351.92 749.72C353.522 748.677 355.436 748.225 357.334 748.44C359.232 748.656 360.995 749.525 362.321 750.9L406.193 731.205L544.145 731.147C544.693 729.247 545.909 727.609 547.568 726.534C549.227 725.459 551.218 725.02 553.173 725.296C555.129 725.573 556.919 726.548 558.212 728.041C559.506 729.533 560.217 731.444 560.214 733.421C560.211 735.398 559.495 737.308 558.197 738.8C556.899 740.291 555.107 741.264 553.151 741.539C551.194 741.814 549.205 741.373 547.549 740.296C545.893 739.219 544.682 737.58 544.138 735.68L407.141 735.716L364.449 754.907Z" fill="white"/>
<path opacity="0.3" d="M209.704 924.99C211.01 923.668 212.565 922.619 214.279 921.905C215.994 921.19 217.833 920.824 219.689 920.827C221.551 920.825 223.395 921.188 225.117 921.896L252.645 878.033L413.257 877.969L437.86 837.065L848.202 835.85L848.21 840.383L440.426 841.539L415.816 882.45L255.148 882.571L228.927 924.332C229.153 924.558 229.372 924.777 229.634 925.039C231.603 927.01 232.944 929.522 233.486 932.256C234.029 934.991 233.748 937.826 232.681 940.403C231.613 942.98 229.807 945.184 227.489 946.734C225.171 948.285 222.447 949.114 219.66 949.116C216.873 949.118 214.149 948.294 211.832 946.746C209.515 945.199 207.71 942.998 206.643 940.423C205.577 937.847 205.298 935.013 205.841 932.277C206.385 929.541 207.726 927.028 209.697 925.053L209.704 924.99ZM219.664 944.519C221.875 944.517 224.016 943.748 225.725 942.343C227.433 940.938 228.603 938.985 229.034 936.815C229.466 934.646 229.132 932.394 228.091 930.445C227.05 928.495 225.365 926.967 223.323 926.122C221.282 925.277 219.01 925.166 216.894 925.809C214.779 926.452 212.951 927.809 211.722 929.648C210.493 931.487 209.939 933.696 210.154 935.897C210.368 938.098 211.339 940.155 212.901 941.719C213.787 942.61 214.841 943.317 216.002 943.797C217.163 944.278 218.408 944.523 219.664 944.519Z" fill="white"/>
<path opacity="0.3" d="M350.541 900.477C352.318 900.478 354.045 901.059 355.461 902.132C356.877 903.205 357.904 904.712 358.386 906.422L437.036 906.384L465.348 863.575L552.654 863.534C553.203 861.632 554.42 859.991 556.081 858.914C557.742 857.837 559.735 857.397 561.693 857.674C563.651 857.95 565.443 858.926 566.739 860.421C568.034 861.915 568.746 863.828 568.743 865.808C568.74 867.787 568.023 869.7 566.723 871.193C565.424 872.686 563.629 873.66 561.67 873.935C559.711 874.21 557.719 873.768 556.061 872.69C554.403 871.611 553.191 869.97 552.648 868.067L467.787 868.105L439.474 910.9L358.394 910.941C357.966 912.403 357.14 913.716 356.009 914.735C354.878 915.754 353.486 916.438 351.99 916.711C350.493 916.983 348.95 916.834 347.534 916.279C346.118 915.724 344.885 914.786 343.973 913.569C343.06 912.352 342.504 910.905 342.367 909.389C342.23 907.873 342.518 906.348 343.197 904.986C343.877 903.623 344.922 902.477 346.215 901.674C347.508 900.872 348.999 900.445 350.52 900.441L350.541 900.477Z" fill="white"/>
<path opacity="0.3" d="M238.331 554.854C238.855 551.349 240.679 548.168 243.439 545.945C246.199 543.721 249.694 542.619 253.227 542.856C256.761 543.094 260.074 544.654 262.509 547.226C264.943 549.798 266.319 553.194 266.364 556.738C266.409 560.282 265.119 563.714 262.751 566.351C260.383 568.988 257.11 570.638 253.584 570.971C250.057 571.304 246.536 570.297 243.72 568.149C240.905 566.002 239.001 562.871 238.388 559.381L192.189 559.43L177.844 540.567L-63.7349 540.816L-63.7286 536.282L180.091 536.037L194.429 554.908L238.331 554.854ZM252.258 566.496C254.147 566.492 255.992 565.927 257.562 564.873C259.131 563.82 260.353 562.325 261.074 560.577C261.796 558.829 261.983 556.908 261.614 555.054C261.244 553.201 260.334 551.499 258.998 550.164C257.662 548.829 255.961 547.92 254.108 547.553C252.256 547.185 250.335 547.376 248.59 548.1C246.844 548.823 245.352 550.048 244.301 551.62C243.25 553.192 242.688 555.039 242.686 556.929C242.677 558.189 242.919 559.438 243.397 560.604C243.876 561.769 244.58 562.827 245.471 563.717C246.362 564.608 247.42 565.312 248.585 565.789C249.75 566.266 250.999 566.506 252.258 566.496Z" fill="white"/>
<path opacity="0.3" d="M-264.413 746.885L-264.407 742.351L-186.655 742.269L-170.614 758.301L-55.5561 758.164L-40.8372 772.875L4.64033 772.827L16.7172 756.963L200.6 756.761C201.3 753.246 203.298 750.122 206.195 748.013C209.092 745.904 212.676 744.963 216.233 745.379C219.79 745.794 223.058 747.535 225.388 750.255C227.718 752.975 228.937 756.475 228.803 760.056C228.67 763.637 227.193 767.038 224.667 769.581C222.141 772.124 218.752 773.622 215.174 773.778C211.596 773.933 208.092 772.734 205.359 770.419C202.627 768.105 200.868 764.844 200.431 761.288L18.9446 761.495L6.84646 777.337L-42.6953 777.453L-57.4425 762.715L-172.557 762.865L-188.626 746.805L-264.413 746.885ZM214.413 769.152C216.624 769.15 218.766 768.381 220.474 766.976C222.183 765.571 223.353 763.618 223.784 761.448C224.216 759.278 223.882 757.026 222.841 755.076C221.799 753.126 220.114 751.598 218.072 750.753C216.03 749.907 213.758 749.797 211.642 750.44C209.526 751.083 207.698 752.439 206.469 754.279C205.24 756.119 204.686 758.327 204.901 760.528C205.116 762.73 206.087 764.788 207.648 766.352C208.534 767.244 209.588 767.951 210.749 768.432C211.911 768.913 213.156 769.158 214.413 769.152Z" fill="white"/>
<path opacity="0.3" d="M215.83 874.531L243.732 897.51L271.608 897.48L303.298 874.416L340.377 874.377C341.039 870.876 342.994 867.752 345.852 865.626C348.711 863.501 352.263 862.529 355.803 862.905C359.342 863.282 362.609 864.978 364.954 867.656C367.298 870.335 368.548 873.8 368.454 877.361C368.36 880.922 366.93 884.318 364.448 886.874C361.966 889.429 358.614 890.957 355.059 891.152C351.505 891.348 348.008 890.197 345.265 887.928C342.523 885.66 340.735 882.441 340.258 878.911L304.769 878.942L273.079 902.005L242.107 902.038L214.205 879.059L-132.135 879.428L-132.136 874.902L215.83 874.531ZM354.233 886.613C356.073 886.624 357.878 886.105 359.433 885.119C360.987 884.133 362.226 882.72 363.002 881.05C363.777 879.379 364.057 877.521 363.807 875.697C363.557 873.873 362.788 872.16 361.592 870.762C360.396 869.364 358.823 868.34 357.061 867.811C355.299 867.283 353.421 867.273 351.653 867.782C349.884 868.292 348.299 869.299 347.085 870.685C345.872 872.07 345.082 873.775 344.809 875.596L344.81 878.51C345.146 880.768 346.283 882.83 348.013 884.317C349.743 885.805 351.951 886.62 354.233 886.613Z" fill="white"/>
<path opacity="0.3" d="M-51.2507 653.629L54.78 653.517L69.1188 672.374L111.849 672.364C112.41 670.465 113.637 668.832 115.305 667.765C116.973 666.698 118.969 666.27 120.926 666.56C122.883 666.849 124.669 667.836 125.956 669.339C127.242 670.842 127.942 672.76 127.927 674.74C127.912 676.72 127.183 678.628 125.874 680.113C124.564 681.599 122.763 682.562 120.802 682.825C118.841 683.087 116.851 682.632 115.2 681.543C113.549 680.454 112.346 678.805 111.815 676.898L66.8718 676.917L52.5118 658.053L-51.2711 658.163L-51.2507 653.629Z" fill="white"/>
<path opacity="0.3" d="M70.104 559.459L144.219 559.379C144.702 557.451 145.865 555.762 147.494 554.623C149.123 553.485 151.108 552.973 153.083 553.182C155.058 553.392 156.89 554.308 158.242 555.763C159.594 557.218 160.374 559.113 160.439 561.1C160.505 563.086 159.851 565.03 158.597 566.573C157.344 568.116 155.576 569.154 153.62 569.497C151.663 569.839 149.649 569.463 147.949 568.437C146.249 567.411 144.977 565.804 144.368 563.913L71.9778 563.99L55.9504 580.049L-59.1162 580.186L-73.8292 594.927L-123.432 594.966L-135.507 579.122L-319.274 579.319L-319.233 574.82L-134.391 574.594L-133.267 574.586L-121.193 590.43L-75.7101 590.389L-60.9971 575.647L54.0695 575.524L70.104 559.459Z" fill="white"/>
<path opacity="0.3" d="M570.461 548.131L555.748 562.872L440.674 563.002L424.647 579.061L350.532 579.14C350.046 581.065 348.882 582.751 347.254 583.886C345.625 585.021 343.642 585.529 341.67 585.317C339.697 585.105 337.869 584.187 336.521 582.732C335.172 581.277 334.396 579.383 334.333 577.398C334.271 575.414 334.927 573.474 336.182 571.934C337.436 570.395 339.203 569.36 341.158 569.021C343.113 568.682 345.124 569.062 346.82 570.089C348.517 571.117 349.785 572.724 350.39 574.614L422.766 574.536L438.786 558.485L553.832 558.383L568.566 543.621L618.169 543.567L630.244 559.412L814.011 559.215L814.019 563.749L628.004 563.948L615.929 548.104L570.461 548.131Z" fill="white"/>
<path d="M-131.079 687.681L-195.202 687.673L-195.183 685.007L-130.07 685.056L-105.605 707.995L-24.3346 708.007L-2.92417 729.405C-1.32931 728.109 0.694807 727.462 2.74545 727.591C4.79608 727.721 6.72289 728.618 8.14249 730.105C9.56208 731.592 10.3704 733.559 10.4066 735.614C10.4428 737.67 9.70417 739.664 8.33778 741.2C6.97135 742.735 5.07729 743.699 3.03248 743.9C0.987649 744.102 -1.058 743.525 -2.69748 742.285C-4.33698 741.046 -5.45012 739.234 -5.81536 737.211C-6.18062 735.187 -5.77122 733.1 -4.66866 731.366L-25.4142 710.632L-106.628 710.605L-131.079 687.681ZM-3.32974 735.743C-3.32704 737.213 -2.74166 738.622 -1.70208 739.661C-0.662474 740.7 0.746436 741.284 2.21563 741.285C3.12696 741.287 4.0245 741.063 4.82858 740.634C5.63266 740.204 6.31846 739.583 6.82513 738.826C7.33184 738.068 7.64374 737.196 7.73323 736.289C7.82269 735.381 7.68695 734.465 7.33805 733.623C6.98914 732.78 6.43788 732.037 5.73309 731.459C5.02831 730.88 4.19179 730.485 3.29781 730.308C2.40384 730.131 1.48 730.177 0.608225 730.443C-0.263532 730.708 -1.05628 731.185 -1.69968 731.831C-2.21512 732.344 -2.62436 732.953 -2.90406 733.624C-3.18377 734.296 -3.32843 735.016 -3.32974 735.743ZM-112.153 734.869L-30.8823 734.881L-9.04039 756.711L55.8319 756.718C56.3949 754.727 57.6862 753.022 59.4487 751.942C61.2112 750.861 63.3159 750.484 65.3438 750.885C67.3718 751.287 69.1744 752.438 70.393 754.109C71.6117 755.78 72.1569 757.849 71.9203 759.904C71.6837 761.959 70.6827 763.85 69.1163 765.2C67.5499 766.549 65.5331 767.259 63.467 767.189C61.401 767.118 59.4372 766.271 57.9665 764.817C56.4957 763.363 55.6258 761.409 55.5298 759.342L-10.12 759.335L-31.969 737.499L-113.183 737.486L-137.641 714.555L-201.771 714.54L-201.773 711.923L-136.604 711.93L-112.153 734.869ZM63.6548 764.536C64.3821 764.536 65.1023 764.393 65.7741 764.115C66.446 763.836 67.0565 763.428 67.5707 762.914C68.0849 762.399 68.4928 761.788 68.771 761.116C69.0493 760.443 69.1925 759.723 69.1925 758.995C69.1925 758.267 69.0491 757.547 68.7708 756.874C68.4925 756.202 68.0845 755.591 67.5702 755.076C67.0559 754.562 66.4454 754.153 65.7735 753.875C65.1016 753.596 64.3815 753.453 63.6542 753.453C62.9271 753.448 62.2064 753.588 61.5342 753.866C60.8621 754.143 60.2519 754.552 59.7395 755.068C58.9623 755.842 58.4325 756.83 58.2172 757.906C58.0019 758.983 58.1108 760.099 58.5303 761.113C58.9497 762.127 59.6606 762.994 60.573 763.604C61.4853 764.213 62.558 764.538 63.6548 764.536ZM-3.88848 694.628L-83.1871 694.621C-83.5068 693.524 -84.2117 692.58 -85.172 691.961C-86.1323 691.343 -87.2835 691.092 -88.4136 691.256C-89.5438 691.419 -90.577 691.985 -91.323 692.85C-92.069 693.715 -92.4776 694.821 -92.4738 695.964C-92.4699 697.106 -92.0537 698.209 -91.3019 699.069C-90.55 699.93 -89.5131 700.489 -88.3818 700.645C-87.2506 700.801 -86.1011 700.543 -85.145 699.918C-84.1889 699.294 -83.4904 698.345 -83.1782 697.245L-3.31413 697.237L22.0741 685.857C22.5146 686.32 23.0444 686.688 23.6315 686.939C24.2186 687.191 24.8506 687.32 25.4891 687.319C26.4281 687.318 27.3456 687.039 28.1258 686.516C28.906 685.994 29.5138 685.251 29.8723 684.383C30.2309 683.515 30.3241 682.559 30.1402 681.638C29.9563 680.717 29.5035 679.87 28.8391 679.206C28.1747 678.542 27.3286 678.09 26.4076 677.907C25.4866 677.725 24.5321 677.819 23.6648 678.179C22.7975 678.539 22.0564 679.148 21.5351 679.929C21.0138 680.711 20.7357 681.629 20.736 682.569C20.7371 682.897 20.7705 683.224 20.8356 683.545L-3.88848 694.628ZM110.414 585.145C109.274 586.293 107.818 587.074 106.232 587.39C104.645 587.706 103.001 587.542 101.509 586.918L85.5735 612.312L-7.40215 612.306L-21.6423 635.973L-259.206 636.57L-259.214 633.946L-23.1426 633.329L-8.88833 609.676L84.1227 609.689L99.2814 585.526C99.154 585.399 99.0196 585.264 98.8923 585.137C97.7508 583.996 96.9729 582.542 96.6571 580.959C96.3413 579.376 96.5016 577.735 97.118 576.243C97.7343 574.751 98.7789 573.476 100.12 572.578C101.46 571.681 103.037 571.201 104.65 571.2C106.264 571.199 107.841 571.677 109.183 572.573C110.525 573.469 111.571 574.744 112.19 576.235C112.808 577.726 112.971 579.367 112.657 580.95C112.344 582.534 111.568 583.989 110.428 585.131L110.414 585.145ZM104.645 573.838C103.366 573.839 102.127 574.284 101.139 575.096C100.151 575.909 99.4755 577.039 99.227 578.294C98.9785 579.549 99.1726 580.852 99.7763 581.981C100.38 583.109 101.356 583.993 102.538 584.482C103.72 584.971 105.035 585.035 106.258 584.662C107.482 584.29 108.538 583.505 109.248 582.44C109.958 581.376 110.276 580.098 110.15 578.824C110.024 577.551 109.46 576.36 108.555 575.456C108.042 574.942 107.432 574.534 106.761 574.257C106.09 573.979 105.371 573.837 104.645 573.838ZM33.6237 594.516C33.633 593.367 33.2245 592.253 32.4743 591.382C31.7241 590.511 30.6832 589.942 29.5455 589.782C28.4078 589.622 27.2507 589.881 26.2896 590.511C25.3285 591.14 24.6289 592.098 24.3209 593.206L-22.6334 593.182L-39.0074 617.954L-88.1387 617.945C-88.4527 616.841 -89.1547 615.887 -90.1156 615.26C-91.0765 614.632 -92.2314 614.373 -93.3678 614.531C-94.5042 614.688 -95.5455 615.251 -96.2999 616.116C-97.0543 616.981 -97.471 618.089 -97.4733 619.237C-97.4756 620.385 -97.0633 621.495 -96.3124 622.363C-95.5615 623.231 -94.5224 623.799 -93.3867 623.961C-92.2509 624.123 -91.0949 623.869 -90.1315 623.246C-89.1682 622.623 -88.4623 621.672 -88.144 620.569L-37.5707 620.591L-21.1967 595.819L24.3369 595.823C24.6512 596.923 25.3527 597.873 26.3119 598.497C27.2712 599.12 28.4235 599.375 29.556 599.215C30.6885 599.055 31.7249 598.491 32.4738 597.626C33.2228 596.761 33.6337 595.654 33.6307 594.509L33.6237 594.516ZM93.7685 799.312C93.4632 801.333 92.4092 803.163 90.816 804.441C89.2228 805.719 87.2074 806.349 85.1705 806.208C83.1336 806.066 81.2245 805.162 79.8231 803.676C78.4217 802.19 77.6305 800.23 77.607 798.187C77.5835 796.144 78.3294 794.167 79.6963 792.65C81.0632 791.132 82.9509 790.185 84.984 789.997C87.0171 789.809 89.0466 790.394 90.6687 791.635C92.2908 792.876 93.3868 794.683 93.7385 796.695L120.449 796.645L128.755 807.576L268.586 807.492L268.595 810.117L127.456 810.194L119.2 799.313L93.7685 799.312ZM85.7061 792.569C84.4223 792.568 83.1779 793.012 82.185 793.827C81.1922 794.641 80.5123 795.775 80.2613 797.034C80.0103 798.294 80.2038 799.602 80.8087 800.736C81.4136 801.869 82.3924 802.757 83.5784 803.249C84.7644 803.741 86.0842 803.806 87.3127 803.433C88.5412 803.061 89.6025 802.273 90.3155 801.205C91.0285 800.136 91.3492 798.854 91.2229 797.575C91.0967 796.297 90.5312 795.102 89.623 794.194C89.1098 793.675 88.4985 793.263 87.8248 792.983C87.1512 792.703 86.4285 792.56 85.699 792.562L85.7061 792.569ZM384.712 688.241L384.714 690.858L339.71 690.904L330.423 681.622L263.812 681.658L255.289 673.14L228.96 673.147L221.976 682.339L115.542 682.397C115.136 684.426 113.982 686.227 112.309 687.442C110.636 688.658 108.567 689.198 106.513 688.956C104.46 688.713 102.573 687.706 101.228 686.135C99.8825 684.563 99.178 682.543 99.2543 680.475C99.3307 678.407 100.182 676.444 101.639 674.977C103.097 673.509 105.053 672.645 107.119 672.555C109.184 672.466 111.208 673.158 112.787 674.494C114.366 675.83 115.384 677.712 115.639 679.766L220.68 679.715L227.657 670.531L256.39 670.494L264.878 678.977L331.489 678.941L340.811 688.258L384.712 688.241ZM107.578 675.187C106.299 675.187 105.06 675.632 104.072 676.444C103.085 677.257 102.409 678.387 102.16 679.642C101.912 680.898 102.106 682.201 102.71 683.329C103.313 684.457 104.289 685.341 105.471 685.83C106.653 686.319 107.968 686.383 109.191 686.011C110.415 685.638 111.472 684.853 112.181 683.788C112.891 682.724 113.21 681.446 113.083 680.172C112.957 678.899 112.393 677.709 111.488 676.804C110.975 676.29 110.366 675.882 109.695 675.605C109.024 675.327 108.304 675.185 107.578 675.187ZM74.9857 653.596L58.8184 640.265L42.6746 640.274L24.3418 653.617L2.88262 653.628C2.50484 655.666 1.37415 657.486 -0.284344 658.726C-1.94282 659.966 -4.0074 660.536 -6.06693 660.322C-8.12647 660.107 -10.0299 659.124 -11.3981 657.569C-12.7664 656.014 -13.499 654 -13.4503 651.928C-13.4015 649.857 -12.5749 647.88 -11.1349 646.391C-9.69502 644.902 -7.74744 644.011 -5.68012 643.894C-3.61278 643.778 -1.57732 644.445 0.0209293 645.762C1.61918 647.08 2.66297 648.951 2.94443 651.004L23.4847 650.993L41.7539 637.672L59.686 637.655L75.8533 650.986L276.309 650.876L276.31 653.494L74.9857 653.596ZM-5.13768 646.56C-6.20367 646.553 -7.24919 646.852 -8.1496 647.423C-9.05 647.994 -9.76731 648.812 -10.216 649.78C-10.6646 650.747 -10.8257 651.824 -10.68 652.88C-10.5343 653.937 -10.088 654.93 -9.39428 655.74C-8.70056 656.55 -7.7887 657.143 -6.76742 657.449C-5.74613 657.755 -4.6585 657.761 -3.63423 657.465C-2.60997 657.17 -1.69228 656.586 -0.990559 655.783C-0.288851 654.98 0.167271 653.992 0.323411 652.937L0.322249 651.253C0.125953 649.946 -0.533493 648.752 -1.53578 647.891C-2.53809 647.029 -3.81643 646.557 -5.13768 646.56ZM261.357 739.553L201.291 739.585L192.993 728.662L166.953 728.676C166.645 727.57 165.949 726.613 164.991 725.98C164.034 725.348 162.88 725.083 161.743 725.234C160.606 725.385 159.561 725.942 158.802 726.803C158.043 727.664 157.621 728.77 157.612 729.918C157.604 731.066 158.01 732.178 158.756 733.05C159.502 733.922 160.538 734.495 161.673 734.664C162.808 734.832 163.965 734.584 164.932 733.966C165.899 733.348 166.61 732.401 166.934 731.3L191.687 731.287L199.993 742.203L261.359 742.17L261.357 739.553ZM195.561 772.351L262.172 772.315L270.648 763.822L296.97 763.808L303.974 772.985L411.63 772.919L411.628 770.302L305.266 770.36L298.247 761.141L269.536 761.156L261.025 769.684L194.414 769.72L185.14 779.012L143.239 779.035C142.884 777.952 142.15 777.033 141.173 776.448C140.195 775.863 139.039 775.651 137.917 775.851C136.796 776.051 135.784 776.649 135.068 777.536C134.352 778.422 133.981 779.538 134.021 780.677C134.062 781.816 134.512 782.903 135.29 783.736C136.067 784.57 137.119 785.095 138.252 785.214C139.385 785.334 140.522 785.04 141.456 784.387C142.39 783.734 143.056 782.765 143.333 781.659L186.287 781.643L195.561 772.351ZM-124.68 803.237L-131.677 794.067L-239.34 794.126L-239.338 796.743L-132.961 796.67L-125.964 805.84L-97.2603 805.832L-88.7843 797.339L-22.1732 797.303L-12.9061 788.018L28.9944 787.995C29.3461 789.086 30.0796 790.012 31.0599 790.604C32.0401 791.196 33.201 791.414 34.3288 791.217C35.4566 791.02 36.4753 790.423 37.1974 789.534C37.9195 788.645 38.2963 787.525 38.2584 786.38C38.2205 785.235 37.7704 784.142 36.9911 783.303C36.2118 782.463 35.1557 781.934 34.0174 781.812C32.879 781.69 31.7351 781.984 30.7961 782.639C29.8572 783.295 29.1866 784.267 28.9077 785.378L-13.9894 785.395L-23.2353 794.658L-89.8464 794.695L-98.3223 803.187L-124.68 803.237ZM54.8915 837.5L71.0588 850.831L87.1886 850.822L105.528 837.486L126.988 837.475C127.283 835.866 128.064 834.387 129.225 833.237C130.526 831.93 132.23 831.101 134.061 830.887C135.892 830.672 137.741 831.084 139.309 832.054C140.877 833.025 142.07 834.498 142.695 836.233C143.32 837.968 143.341 839.864 142.752 841.612C142.164 843.361 141.002 844.858 139.456 845.861C137.909 846.865 136.068 847.315 134.234 847.139C132.399 846.962 130.677 846.17 129.349 844.891C128.021 843.611 127.164 841.92 126.919 840.092L106.378 840.103L88.0457 853.446L70.1135 853.448L53.9533 840.124L-146.502 840.234L-146.504 837.617L54.8915 837.5ZM135.001 844.536C136.065 844.543 137.108 844.243 138.006 843.673C138.904 843.103 139.62 842.286 140.067 841.321C140.515 840.355 140.675 839.281 140.53 838.226C140.384 837.172 139.939 836.181 139.247 835.373C138.555 834.565 137.645 833.972 136.626 833.667C135.607 833.361 134.521 833.355 133.499 833.65C132.477 833.944 131.561 834.526 130.86 835.327C130.159 836.128 129.703 837.114 129.547 838.166L129.548 839.836C129.716 841 130.254 842.078 131.084 842.912C131.598 843.427 132.208 843.837 132.88 844.115C133.553 844.394 134.273 844.537 135.001 844.536ZM68.7107 696.406C72.1954 699.889 74.57 704.327 75.5341 709.16C76.4983 713.993 76.0087 719.003 74.1272 723.557C72.2458 728.111 69.057 732.005 64.9641 734.745C60.8712 737.485 56.0581 738.949 51.1333 738.951C46.2085 738.954 41.3934 737.495 37.2967 734.76C33.2 732.024 30.0058 728.134 28.118 723.582C26.2302 719.03 25.7336 714.021 26.691 709.187C27.6484 704.353 30.0168 699.912 33.4967 696.425C38.1657 691.755 44.4963 689.129 51.0986 689.126C57.7009 689.122 64.0352 691.74 68.7107 696.406ZM35.3499 698.277C32.236 701.397 30.1167 705.371 29.26 709.697C28.4033 714.022 28.8476 718.505 30.5369 722.578C32.2261 726.651 35.0843 730.132 38.7501 732.58C42.416 735.028 46.7247 736.333 51.1315 736.331C55.5383 736.328 59.8452 735.018 63.5076 732.566C67.17 730.114 70.0234 726.631 71.7069 722.556C73.3905 718.481 73.8286 713.997 72.9659 709.673C72.1032 705.348 69.9783 701.376 66.8601 698.26C62.6761 694.086 57.0082 691.743 51.1005 691.746C45.1928 691.75 39.5281 694.098 35.3499 698.277ZM63.8618 726.773C61.3472 729.293 58.1424 731.009 54.6526 731.706C51.1629 732.402 47.5448 732.048 44.2561 730.687C40.9674 729.326 38.1557 727.02 36.1766 724.06C34.1975 721.1 33.1398 717.619 33.1373 714.058C33.1348 710.497 34.1877 707.016 36.1627 704.054C38.1377 701.092 40.9462 698.782 44.233 697.418C47.5198 696.053 51.1373 695.695 54.628 696.388C58.1188 697.08 61.326 698.793 63.844 701.31C67.2207 704.685 69.1196 709.264 69.1229 714.039C69.1262 718.814 67.2337 723.395 63.8618 726.773ZM40.2162 703.141C38.0617 705.297 36.5947 708.043 36.0007 711.034C35.4066 714.024 35.7122 717.124 36.8789 719.941C38.0455 722.758 40.0207 725.166 42.5547 726.859C45.0887 728.553 48.0676 729.457 51.1146 729.456C54.1616 729.455 57.1399 728.55 59.6726 726.856C62.2053 725.161 64.1788 722.752 65.3434 719.935C66.5079 717.117 66.8112 714.018 66.2149 711.027C65.6186 708.037 64.1495 705.291 61.9935 703.136C59.1026 700.25 55.186 698.63 51.1031 698.631C47.0203 698.632 43.1049 700.254 40.2162 703.141ZM57.1057 708.033C55.9249 706.839 54.4164 706.023 52.7715 705.687C51.1266 705.352 49.4193 705.513 47.8661 706.15C46.3128 706.787 44.9836 707.871 44.0468 709.264C43.11 710.658 42.6079 712.299 42.6041 713.979C42.6003 715.658 43.095 717.301 44.0255 718.7C44.956 720.098 46.2803 721.188 47.8306 721.833C49.381 722.477 51.0875 722.646 52.7339 722.319C54.3803 721.991 55.8925 721.182 57.0786 719.994C58.6611 718.408 59.5522 716.26 59.5573 714.019C59.5624 711.778 58.681 709.626 57.1057 708.033ZM97.5771 716.223L90.8669 722.946L97.5864 729.662L104.297 722.939L97.5771 716.223ZM108.781 727.421L102.071 734.144L108.79 740.859L115.5 734.136L108.781 727.421ZM119.985 738.618L113.275 745.341L119.994 752.057L126.704 745.334L119.985 738.618ZM131.189 749.816L124.479 756.539L131.184 763.241L137.894 756.517L131.189 749.816ZM85.5646 741.735L92.2748 735.012L85.5411 728.282L78.831 735.005L85.5646 741.735ZM96.7592 739.494L90.049 746.217L96.7685 752.933L103.479 746.21L96.7592 739.494Z" fill="white"/>
</svg>
