<svg width="484" height="1016" viewBox="0 0 484 1016" fill="none" xmlns="http://www.w3.org/2000/svg">
<g opacity="0.35">
<path opacity="0.3" d="M-180.878 711.514L-81.5054 612.397L-81.4868 559.082L-2.25303 479.968C0.877884 481.729 4.55647 482.249 8.05047 481.424C11.5444 480.599 14.5976 478.49 16.602 475.517C18.6065 472.543 19.4153 468.923 18.8674 465.378C18.3196 461.832 16.4552 458.621 13.6455 456.383C10.8358 454.145 7.28677 453.045 3.70498 453.302C0.123233 453.558 -3.22867 455.153 -5.68334 457.768C-8.13805 460.383 -9.51554 463.826 -9.54162 467.413C-9.56771 471 -8.24049 474.467 -5.82412 477.123L-86.0888 557.196L-86.1074 610.521L-185.39 709.618L-187.211 767.467L-265.604 845.713L-262.403 848.917L-182.739 769.473L-180.878 711.514ZM-2.20633 460.85C-1.31674 459.963 -0.260527 459.259 0.901962 458.78C2.06445 458.301 3.31038 458.055 4.56859 458.058C5.8268 458.06 7.07256 458.309 8.23471 458.793C9.39687 459.276 10.4526 459.983 11.3416 460.873C12.4538 461.987 13.2743 463.358 13.7303 464.863C14.1864 466.369 14.2638 467.963 13.9559 469.505C13.6479 471.046 12.9641 472.488 11.9649 473.701C10.9657 474.915 9.68201 475.863 8.2274 476.463C6.77282 477.062 5.1922 477.294 3.62551 477.138C2.05883 476.981 0.554409 476.441 -0.754581 475.566C-2.06354 474.691 -3.1367 473.507 -3.87902 472.12C-4.62133 470.732 -5.00989 469.183 -5.01032 467.611C-5.01565 466.354 -4.77043 465.109 -4.28904 463.948C-3.80762 462.788 -3.09964 461.734 -2.20633 460.85Z" fill="#1A1A1A"/>
<path opacity="0.3" d="M44.3568 611.978C44.6645 612.456 45.0233 612.898 45.4268 613.299C46.7759 614.653 48.5544 615.496 50.457 615.685C52.3596 615.874 54.2678 615.395 55.8541 614.332C57.4404 613.269 58.6059 611.687 59.1507 609.858C59.6956 608.029 59.5857 606.067 58.84 604.308C58.0943 602.549 56.7593 601.104 55.064 600.219C53.3686 599.335 51.4187 599.067 49.5487 599.461C47.6788 599.855 46.0053 600.887 44.8155 602.38C43.6257 603.872 42.9937 605.732 43.0279 607.641L-1.92328 624.696L-99.5203 722.081C-101.251 721.125 -103.269 720.825 -105.203 721.237C-107.136 721.648 -108.854 722.743 -110.042 724.32C-111.229 725.897 -111.806 727.85 -111.665 729.819C-111.524 731.789 -110.676 733.642 -109.276 735.039C-107.876 736.435 -106.019 737.28 -104.047 737.418C-102.074 737.557 -100.119 736.979 -98.5409 735.791C-96.9628 734.604 -95.8681 732.887 -95.4582 730.956C-95.0484 729.025 -95.351 727.011 -96.3103 725.283L0.596247 628.556L44.3568 611.978Z" fill="#1A1A1A"/>
<path opacity="0.3" d="M274.026 623.044C272.167 623.032 270.326 623.389 268.608 624.094C266.891 624.799 265.331 625.839 264.021 627.152C262.703 628.466 261.655 630.025 260.938 631.741L210.457 620.161L96.8314 733.539L50.5109 721.985L-240.531 1010.91L-237.331 1014.12L51.8596 726.961L98.1901 738.515L211.895 625.137L259.967 636.154C259.966 636.474 259.966 636.784 259.966 637.153C259.967 639.938 260.795 642.661 262.345 644.978C263.896 647.296 266.098 649.103 268.675 650.171C271.252 651.24 274.088 651.522 276.824 650.982C279.559 650.443 282.072 649.105 284.044 647.138C286.016 645.172 287.359 642.665 287.904 639.934C288.448 637.203 288.169 634.372 287.102 631.797C286.035 629.223 284.228 627.021 281.91 625.47C279.591 623.919 276.865 623.089 274.075 623.084L274.026 623.044ZM280.79 643.89C279.226 645.449 277.167 646.418 274.966 646.631C272.765 646.844 270.556 646.288 268.717 645.059C266.878 643.829 265.522 642.001 264.88 639.887C264.237 637.773 264.349 635.502 265.195 633.463C266.041 631.423 267.569 629.741 269.52 628.702C271.47 627.663 273.722 627.331 275.892 627.764C278.062 628.197 280.015 629.367 281.419 631.075C282.824 632.784 283.592 634.925 283.594 637.133C283.597 638.389 283.351 639.633 282.87 640.793C282.389 641.953 281.682 643.005 280.79 643.89Z" fill="#1A1A1A"/>
<path opacity="0.3" d="M157.102 705.119C155.847 706.374 155.036 708.005 154.794 709.764C154.551 711.523 154.89 713.313 155.759 714.863L100.113 770.376L49.8222 760.095L-11.9471 821.719C-13.6802 820.761 -15.7007 820.461 -17.6365 820.872C-19.5724 821.283 -21.2934 822.379 -22.4825 823.958C-23.6717 825.536 -24.2491 827.492 -24.1084 829.463C-23.9677 831.435 -23.1184 833.291 -21.7168 834.688C-20.3152 836.086 -18.4557 836.932 -16.4806 837.071C-14.5055 837.209 -12.5478 836.63 -10.9679 835.441C-9.38802 834.252 -8.29228 832.533 -7.8824 830.6C-7.47253 828.667 -7.77612 826.65 -8.7373 824.92L51.3009 765.021L101.582 775.292L158.948 718.065C160.284 718.796 161.797 719.142 163.317 719.063C164.837 718.985 166.305 718.486 167.557 717.622C168.808 716.758 169.793 715.563 170.402 714.171C171.011 712.778 171.219 711.244 171.004 709.739C170.789 708.234 170.159 706.818 169.184 705.649C168.209 704.48 166.928 703.605 165.484 703.122C164.04 702.638 162.49 702.565 161.008 702.91C159.526 703.256 158.17 704.007 157.092 705.079L157.102 705.119Z" fill="#1A1A1A"/>
<path opacity="0.3" d="M-7.85642 381.183C-10.7058 379.074 -14.2446 378.112 -17.7687 378.489C-21.2927 378.866 -24.5437 380.554 -26.8747 383.218C-29.2058 385.882 -30.4461 389.326 -30.3488 392.865C-30.2515 396.404 -28.8238 399.778 -26.3497 402.317C-23.8756 404.855 -20.5365 406.372 -16.9968 406.565C-13.4571 406.757 -9.97627 405.612 -7.24685 403.357C-4.51743 401.102 -2.73953 397.902 -2.26688 394.394C-1.79423 390.886 -2.66146 387.328 -4.69607 384.426L28.0106 351.828L24.8173 328.352L195.837 157.89L192.626 154.687L20.0256 326.735L23.2289 350.211L-7.85642 381.183ZM-9.47349 399.256C-10.8127 400.586 -12.5173 401.491 -14.3719 401.854C-16.2266 402.217 -18.1482 402.023 -19.894 401.296C-21.6397 400.569 -23.1314 399.342 -24.1805 397.77C-25.2297 396.198 -25.7893 394.352 -25.7886 392.464C-25.788 390.576 -25.2271 388.731 -24.1768 387.162C-23.1266 385.594 -21.6341 384.372 -19.8878 383.651C-18.1415 382.93 -16.2198 382.743 -14.3654 383.112C-12.511 383.482 -10.8071 384.391 -9.46877 385.727C-8.57189 386.612 -7.85986 387.667 -7.37402 388.829C-6.88819 389.991 -6.63822 391.237 -6.63866 392.496C-6.6391 393.755 -6.88993 395 -7.37658 396.161C-7.86322 397.321 -8.57599 398.373 -9.47349 399.256Z" fill="#1A1A1A"/>
<path opacity="0.3" d="M483.444 161.819L480.234 158.616L425.19 213.476L425.182 236.146L343.718 317.319L343.71 338.121L311.515 370.209L291.757 367.517L161.574 497.256C158.593 495.264 154.971 494.466 151.431 495.02C147.891 495.574 144.691 497.44 142.47 500.247C140.248 503.053 139.168 506.593 139.443 510.163C139.719 513.732 141.331 517.068 143.958 519.507C146.585 521.946 150.034 523.309 153.618 523.324C157.202 523.338 160.659 522.004 163.299 519.587C165.939 517.169 167.57 513.846 167.865 510.279C168.161 506.712 167.1 503.163 164.894 500.338L293.386 372.296L313.144 374.957L348.262 340.047L348.269 319.205L429.784 238.003L429.792 215.292L483.444 161.819ZM160.567 515.778C159.002 517.337 156.943 518.306 154.741 518.519C152.54 518.733 150.331 518.177 148.492 516.947C146.652 515.717 145.296 513.888 144.654 511.773C144.011 509.658 144.123 507.387 144.969 505.347C145.815 503.307 147.344 501.623 149.295 500.584C151.246 499.544 153.498 499.213 155.668 499.646C157.838 500.079 159.791 501.249 161.196 502.958C162.6 504.667 163.369 506.809 163.37 509.018C163.375 510.275 163.13 511.52 162.648 512.68C162.167 513.84 161.459 514.893 160.567 515.778Z" fill="#1A1A1A"/>
<path opacity="0.3" d="M217.576 552.539L214.092 588.5L194.357 608.168L155.638 614.237L129.388 640.399C126.445 638.39 122.854 637.561 119.329 638.076C115.805 638.592 112.605 640.414 110.368 643.18C108.131 645.946 107.02 649.453 107.256 653.004C107.492 656.554 109.058 659.887 111.643 662.34C114.227 664.793 117.64 666.185 121.203 666.239C124.765 666.294 128.215 665.007 130.867 662.635C133.519 660.262 135.178 656.978 135.514 653.437C135.85 649.895 134.837 646.355 132.679 643.522L157.798 618.477L196.516 612.408L218.443 590.555L221.927 554.594L467.115 310.233L463.915 307.03L217.576 552.539ZM128.241 658.84C126.948 660.148 125.305 661.056 123.508 661.456C121.711 661.856 119.837 661.732 118.107 661.098C116.377 660.465 114.866 659.348 113.753 657.881C112.64 656.414 111.972 654.66 111.83 652.826C111.687 650.992 112.075 649.157 112.947 647.539C113.82 645.92 115.141 644.587 116.752 643.698C118.363 642.809 120.196 642.402 122.034 642.525C123.871 642.648 125.635 643.296 127.116 644.392L129.176 646.453C130.535 648.288 131.189 650.549 131.017 652.823C130.846 655.098 129.86 657.233 128.241 658.84Z" fill="#1A1A1A"/>
<path opacity="0.3" d="M266.766 246.455L191.701 321.272L194.895 344.74L164.668 374.916C162.929 373.968 160.906 373.68 158.973 374.104C157.039 374.527 155.324 375.634 154.145 377.221C152.965 378.808 152.4 380.768 152.553 382.74C152.706 384.712 153.567 386.563 154.978 387.953C156.389 389.343 158.254 390.178 160.23 390.304C162.206 390.43 164.161 389.839 165.734 388.64C167.306 387.44 168.392 385.713 168.79 383.776C169.187 381.839 168.871 379.823 167.899 378.099L199.696 346.366L196.513 322.879L269.986 249.648L266.766 246.455Z" fill="#1A1A1A"/>
<path opacity="0.3" d="M114.38 265.493L61.9108 317.783C60.2056 316.761 58.1886 316.387 56.2315 316.732C54.2744 317.077 52.5089 318.117 51.2603 319.66C50.0118 321.203 49.3642 323.145 49.4369 325.129C49.5097 327.113 50.2978 329.005 51.6561 330.456C53.0144 331.907 54.8515 332.82 56.8288 333.026C58.8062 333.233 60.7906 332.719 62.4166 331.579C64.0426 330.439 65.2006 328.751 65.6774 326.824C66.1541 324.897 65.9174 322.863 65.0109 321.095L116.259 270.022L138.948 270.06L220.418 188.887L241.246 188.922L276.352 153.916L273.688 134.181L403.785 4.52727L400.574 1.37495L269.698 131.766L268.897 132.554L271.561 152.289L239.367 184.383L218.539 184.348L137.079 265.531L114.38 265.493Z" fill="#1A1A1A"/>
<path d="M328.814 245.587L374.181 200.312L372.28 198.44L326.243 244.444L325.161 277.934L267.664 335.318L267.654 365.563C265.608 365.773 263.718 366.744 262.358 368.283C260.999 369.822 260.271 371.817 260.318 373.871C260.365 375.924 261.185 377.885 262.614 379.364C264.043 380.843 265.976 381.732 268.029 381.853C270.082 381.973 272.105 381.318 273.694 380.017C275.283 378.715 276.323 376.863 276.606 374.829C276.889 372.796 276.395 370.729 275.221 369.04C274.048 367.352 272.282 366.165 270.275 365.717L270.285 336.412L327.732 279.057L328.814 245.587ZM272.424 369.758C273.463 370.799 274.045 372.208 274.045 373.677C274.044 375.146 273.461 376.553 272.422 377.591C271.778 378.235 270.984 378.711 270.112 378.975C269.239 379.239 268.315 379.284 267.42 379.106C266.525 378.928 265.688 378.532 264.982 377.954C264.277 377.375 263.725 376.632 263.376 375.79C263.027 374.948 262.891 374.033 262.981 373.127C263.07 372.22 263.382 371.35 263.89 370.594C264.397 369.837 265.083 369.218 265.888 368.79C266.693 368.362 267.591 368.14 268.503 368.142C269.231 368.141 269.951 368.283 270.624 368.56C271.297 368.837 271.909 369.244 272.424 369.758ZM348.807 292.312L291.31 349.696L291.299 380.55L245.402 426.354C243.596 425.345 241.476 425.051 239.464 425.531C237.452 426.011 235.696 427.23 234.545 428.946C233.395 430.662 232.933 432.748 233.254 434.79C233.574 436.832 234.652 438.68 236.273 439.966C237.894 441.252 239.94 441.881 242.003 441.73C244.066 441.578 245.996 440.656 247.408 439.148C248.819 437.639 249.61 435.654 249.622 433.588C249.634 431.521 248.867 429.525 247.473 427.997L293.92 381.644L293.931 350.78L351.388 293.435L352.47 259.955L397.837 214.67L395.986 212.818L349.879 258.832L348.807 292.312ZM245.398 437.405C244.884 437.919 244.273 438.326 243.6 438.603C242.928 438.881 242.207 439.023 241.479 439.022C240.752 439.022 240.031 438.878 239.358 438.599C238.686 438.32 238.074 437.911 237.56 437.397C237.045 436.882 236.636 436.272 236.358 435.6C236.079 434.928 235.935 434.208 235.935 433.481C235.935 432.754 236.078 432.034 236.356 431.363C236.635 430.692 237.043 430.082 237.557 429.568C238.068 429.052 238.678 428.642 239.349 428.364C240.021 428.085 240.742 427.943 241.47 427.946C242.568 427.945 243.641 428.27 244.555 428.879C245.469 429.488 246.181 430.354 246.602 431.367C247.023 432.38 247.133 433.495 246.919 434.57C246.705 435.645 246.175 436.632 245.398 437.405ZM243.731 340.294L299.837 284.306C299.287 283.304 299.117 282.139 299.359 281.023C299.601 279.908 300.239 278.918 301.154 278.236C302.069 277.554 303.201 277.225 304.341 277.31C305.48 277.394 306.552 277.888 307.358 278.698C308.163 279.509 308.649 280.582 308.726 281.721C308.802 282.86 308.464 283.988 307.774 284.897C307.084 285.806 306.088 286.435 304.97 286.668C303.851 286.902 302.686 286.724 301.687 286.167L245.171 342.544L219.156 352.422C219.171 353.06 219.057 353.695 218.819 354.287C218.582 354.879 218.226 355.417 217.774 355.867C217.109 356.529 216.262 356.979 215.34 357.161C214.418 357.342 213.463 357.246 212.595 356.885C211.727 356.525 210.985 355.915 210.463 355.134C209.942 354.352 209.663 353.434 209.664 352.496C209.664 351.557 209.943 350.64 210.465 349.861C210.988 349.081 211.73 348.474 212.598 348.116C213.466 347.759 214.422 347.666 215.343 347.85C216.265 348.035 217.112 348.488 217.776 349.152C218.007 349.385 218.215 349.64 218.396 349.913L243.731 340.294ZM85.3965 343.583C87.0151 343.59 88.5984 343.115 89.944 342.218C91.2897 341.322 92.3368 340.045 92.9518 338.55L122.193 345.254L187.976 279.61L214.797 286.29L383.313 118.995L381.463 117.134L213.987 283.361L187.167 276.701L121.364 342.375L93.543 335.993C93.543 335.814 93.5431 335.624 93.5432 335.444C93.5437 333.831 93.0655 332.254 92.1689 330.912C91.2723 329.57 89.9977 328.522 88.5062 327.903C87.0146 327.283 85.3732 327.119 83.7895 327.431C82.2057 327.743 80.7508 328.517 79.6087 329.655C78.4666 330.793 77.6886 332.245 77.373 333.826C77.0575 335.407 77.2186 337.047 77.8359 338.537C78.4533 340.028 79.4992 341.303 80.8414 342.202C82.1836 343.1 83.7619 343.581 85.3766 343.583L85.3965 343.583ZM81.4789 331.517C82.3844 330.614 83.5756 330.054 84.8495 329.931C86.1233 329.808 87.4011 330.13 88.4651 330.842C89.5291 331.554 90.3134 332.612 90.6844 333.836C91.0555 335.06 90.9902 336.374 90.4999 337.554C90.0095 338.734 89.1244 339.708 87.9953 340.308C86.8661 340.909 85.5629 341.1 84.3076 340.848C83.0523 340.596 81.9226 339.918 81.1111 338.928C80.2995 337.939 79.8562 336.699 79.8568 335.421C79.8561 334.695 79.999 333.977 80.2774 333.307C80.5558 332.637 80.9641 332.028 81.4789 331.517ZM146.361 295.996C145.541 295.19 145.042 294.114 144.957 292.969C144.872 291.823 145.206 290.687 145.898 289.77C146.589 288.853 147.591 288.22 148.717 287.986C149.843 287.753 151.015 287.936 152.017 288.502L185.224 255.336L214.335 261.29L249.093 226.598C248.534 225.596 248.356 224.426 248.592 223.304C248.828 222.182 249.462 221.184 250.378 220.493C251.293 219.801 252.428 219.464 253.574 219.543C254.719 219.622 255.798 220.111 256.612 220.922C257.426 221.732 257.92 222.808 258.003 223.951C258.085 225.095 257.752 226.23 257.063 227.146C256.374 228.063 255.376 228.7 254.254 228.939C253.131 229.179 251.959 229.005 250.954 228.45L215.185 264.169L186.073 258.215L153.857 290.364C154.413 291.364 154.589 292.53 154.351 293.648C154.114 294.767 153.479 295.761 152.564 296.447C151.65 297.133 150.517 297.466 149.375 297.383C148.233 297.3 147.159 296.808 146.351 295.996L146.361 295.996ZM248.694 483.252C250.339 484.465 252.38 485.015 254.412 484.794C256.443 484.573 258.315 483.596 259.656 482.057C260.997 480.519 261.708 478.532 261.649 476.492C261.589 474.452 260.762 472.508 259.334 471.047C257.905 469.586 255.978 468.715 253.937 468.607C251.897 468.499 249.891 469.162 248.319 470.465C246.748 471.767 245.725 473.613 245.456 475.636C245.186 477.658 245.689 479.709 246.864 481.381L227.928 500.203L229.784 513.795L130.784 612.455L132.634 614.316L232.555 514.729L230.699 501.207L248.694 483.252ZM249.628 472.793C250.536 471.886 251.731 471.321 253.009 471.196C254.288 471.071 255.571 471.392 256.64 472.106C257.709 472.819 258.497 473.881 258.871 475.109C259.245 476.337 259.18 477.656 258.689 478.841C258.198 480.027 257.31 481.004 256.177 481.608C255.044 482.212 253.736 482.404 252.476 482.152C251.216 481.901 250.081 481.22 249.266 480.227C248.451 479.234 248.006 477.99 248.006 476.707C248.002 475.977 248.143 475.255 248.422 474.581C248.7 473.908 249.11 473.296 249.628 472.783L249.628 472.793ZM-35.7525 610.125L-33.9023 611.977L-2.02642 580.237L-2.02185 567.118L45.1364 520.117L45.1406 508.077L63.7757 489.494L75.2205 491.062L150.572 415.963C152.294 417.111 154.385 417.569 156.429 417.247C158.473 416.926 160.319 415.847 161.601 414.226C162.882 412.605 163.505 410.56 163.345 408.5C163.185 406.439 162.254 404.513 160.737 403.105C159.22 401.697 157.229 400.91 155.159 400.902C153.09 400.893 151.094 401.663 149.569 403.058C148.044 404.453 147.102 406.371 146.93 408.43C146.758 410.49 147.369 412.539 148.641 414.171L74.281 488.293L62.8463 486.725L42.4897 506.984L42.4856 518.974L-4.67268 565.975L-4.67727 579.144L-35.7525 610.125ZM151.106 405.243C152.011 404.34 153.202 403.78 154.476 403.657C155.75 403.534 157.028 403.856 158.092 404.568C159.156 405.28 159.94 406.338 160.311 407.562C160.682 408.786 160.617 410.1 160.127 411.28C159.636 412.46 158.751 413.434 157.622 414.034C156.493 414.635 155.19 414.826 153.934 414.574C152.679 414.322 151.549 413.644 150.738 412.654C149.926 411.665 149.483 410.425 149.484 409.147C149.483 408.421 149.626 407.702 149.904 407.032C150.182 406.362 150.591 405.754 151.106 405.243ZM158.893 366.968L160.901 346.129L172.33 334.738L194.742 331.229L209.934 316.087C211.643 317.261 213.73 317.749 215.781 317.455C217.832 317.161 219.696 316.106 221.002 314.501C222.307 312.895 222.959 310.857 222.827 308.791C222.694 306.725 221.788 304.784 220.288 303.354C218.788 301.924 216.804 301.11 214.732 301.074C212.66 301.038 210.651 301.782 209.106 303.159C207.561 304.537 206.592 306.445 206.394 308.505C206.195 310.565 206.781 312.625 208.034 314.275L193.492 328.768L171.14 332.248L158.44 344.896L156.432 365.735L14.5167 507.176L16.3669 509.028L158.893 366.968ZM210.608 305.427C211.357 304.669 212.309 304.143 213.35 303.911C214.391 303.679 215.477 303.751 216.479 304.118C217.481 304.486 218.357 305.133 219.001 305.983C219.646 306.833 220.032 307.85 220.115 308.912C220.197 309.975 219.971 311.038 219.465 311.975C218.959 312.913 218.193 313.685 217.26 314.199C216.326 314.713 215.263 314.948 214.199 314.876C213.134 314.803 212.112 314.427 211.255 313.791L210.065 312.6C209.279 311.537 208.901 310.228 209.001 308.911C209.101 307.594 209.671 306.358 210.608 305.427ZM87.8326 559.317L130.357 516.934L128.501 503.352L146.936 484.979C146.371 483.979 146.187 482.811 146.417 481.687C146.647 480.564 147.276 479.562 148.188 478.866C149.099 478.17 150.232 477.827 151.378 477.9C152.524 477.972 153.606 478.456 154.424 479.262C155.242 480.067 155.742 481.141 155.831 482.284C155.92 483.428 155.592 484.564 154.908 485.484C154.224 486.404 153.23 487.046 152.109 487.292C150.988 487.537 149.815 487.37 148.806 486.82L131.282 504.286L133.128 517.868L89.6828 561.168L87.8326 559.317ZM157.593 536.054L110.435 583.055L98.4293 583.035L79.7942 601.607L81.3309 613.041L5.10908 688.998L3.25886 687.146L78.56 612.097L77.0032 600.624L97.3297 580.365L109.385 580.385L156.544 533.384L169.68 533.407L199.344 503.842C198.829 502.825 198.698 501.657 198.976 500.553C199.254 499.45 199.922 498.483 200.857 497.833C201.791 497.182 202.931 496.891 204.064 497.013C205.198 497.134 206.251 497.661 207.028 498.495C207.805 499.329 208.255 500.415 208.295 501.553C208.334 502.691 207.961 503.805 207.244 504.689C206.527 505.573 205.514 506.169 204.392 506.366C203.269 506.564 202.112 506.349 201.134 505.763L170.729 536.076L157.593 536.054ZM406.04 331.805L404.503 320.382L480.725 244.415L482.575 246.266L407.254 321.316L408.791 332.739L388.474 352.998L376.469 352.978L329.31 399.978L316.184 399.956L286.52 429.521C287.043 430.54 287.179 431.713 286.904 432.824C286.63 433.934 285.962 434.908 285.025 435.565C284.088 436.222 282.944 436.519 281.804 436.4C280.664 436.281 279.605 435.756 278.822 434.919C278.039 434.083 277.584 432.993 277.542 431.849C277.499 430.705 277.872 429.586 278.591 428.696C279.311 427.806 280.328 427.206 281.456 427.006C282.584 426.807 283.747 427.021 284.73 427.61L315.095 397.337L328.191 397.359L375.349 350.358L387.355 350.378L406.04 331.805ZM303.219 482.805L301.211 503.644L289.792 515.025L267.38 518.544L252.188 533.686C250.841 532.757 249.242 532.263 247.606 532.269C245.761 532.264 243.97 532.881 242.522 534.022C241.075 535.163 240.057 536.759 239.635 538.552C239.212 540.345 239.41 542.229 240.195 543.898C240.981 545.566 242.308 546.921 243.961 547.741C245.614 548.562 247.495 548.8 249.299 548.418C251.103 548.035 252.724 547.054 253.898 545.634C255.072 544.214 255.729 542.438 255.764 540.596C255.798 538.754 255.208 536.954 254.088 535.488L268.63 520.994L291.042 517.485L303.732 504.827L305.74 483.998L447.655 342.557L445.805 340.705L303.219 482.805ZM251.514 544.336C250.766 545.091 249.816 545.616 248.777 545.847C247.738 546.078 246.654 546.006 245.654 545.639C244.654 545.272 243.781 544.626 243.138 543.778C242.495 542.93 242.109 541.915 242.027 540.855C241.945 539.795 242.169 538.734 242.674 537.798C243.179 536.863 243.943 536.092 244.875 535.579C245.806 535.065 246.866 534.83 247.929 534.902C248.991 534.973 250.011 535.348 250.867 535.982L252.047 537.163C252.752 538.104 253.134 539.247 253.136 540.422C253.138 541.149 252.995 541.869 252.717 542.541C252.438 543.213 252.03 543.823 251.514 544.336ZM193.62 392.805C193.618 397.728 195.078 402.542 197.815 406.64C200.552 410.737 204.443 413.934 208.996 415.826C213.549 417.717 218.56 418.218 223.395 417.266C228.229 416.314 232.671 413.951 236.157 410.476C239.644 407.001 242.019 402.57 242.982 397.744C243.946 392.918 243.454 387.912 241.569 383.361C239.684 378.81 236.492 374.918 232.394 372.176C228.297 369.434 223.479 367.966 218.55 367.958C211.942 367.952 205.605 370.565 200.931 375.224C196.257 379.883 193.627 386.206 193.62 392.805ZM218.549 370.576C222.96 370.583 227.271 371.897 230.937 374.35C234.604 376.804 237.461 380.287 239.147 384.359C240.834 388.431 241.274 392.91 240.412 397.229C239.55 401.548 237.424 405.513 234.305 408.622C231.185 411.731 227.21 413.846 222.884 414.698C218.558 415.55 214.074 415.101 210 413.409C205.926 411.716 202.444 408.856 199.995 405.189C197.546 401.522 196.239 397.214 196.241 392.809C196.248 386.904 198.601 381.247 202.784 377.078C206.966 372.91 212.636 370.571 218.549 370.576ZM218.535 410.852C222.097 410.858 225.579 409.809 228.541 407.838C231.503 405.867 233.812 403.062 235.176 399.778C236.541 396.494 236.899 392.878 236.205 389.388C235.511 385.898 233.797 382.691 231.28 380.171C228.762 377.652 225.554 375.934 222.061 375.234C218.568 374.534 214.947 374.884 211.656 376.24C208.365 377.595 205.551 379.896 203.571 382.85C201.592 385.804 200.534 389.28 200.533 392.837C200.531 397.607 202.427 402.184 205.803 405.563C209.179 408.941 213.759 410.844 218.535 410.852ZM218.547 377.45C221.596 377.453 224.578 378.36 227.114 380.055C229.65 381.749 231.627 384.157 232.794 386.972C233.962 389.787 234.267 392.884 233.672 395.87C233.078 398.857 231.609 401.599 229.453 403.749C227.296 405.9 224.549 407.363 221.558 407.953C218.566 408.543 215.466 408.233 212.649 407.063C209.831 405.893 207.424 403.916 205.73 401.381C204.037 398.846 203.133 395.867 203.134 392.821C203.138 388.74 204.763 384.83 207.653 381.948C210.542 379.066 214.46 377.448 218.547 377.45ZM210.057 392.833C210.048 391.155 210.538 389.513 211.464 388.114C212.391 386.716 213.713 385.624 215.263 384.978C216.812 384.332 218.52 384.16 220.168 384.484C221.817 384.808 223.333 385.613 224.525 386.798C225.716 387.983 226.528 389.494 226.859 391.14C227.19 392.785 227.024 394.491 226.383 396.041C225.742 397.591 224.654 398.916 223.257 399.847C221.861 400.777 220.218 401.273 218.538 401.27C216.297 401.266 214.147 400.377 212.558 398.796C210.969 397.215 210.07 395.071 210.057 392.833ZM187.215 427.195L196.719 427.211L196.716 436.703L187.211 436.687L187.215 427.195ZM187.209 443.022L196.714 443.038L196.71 452.53L187.206 452.514L187.209 443.022ZM187.204 458.849L196.708 458.865L196.705 468.357L187.2 468.341L187.204 458.849ZM187.198 474.675L196.703 474.692L196.699 484.164L187.195 484.148L187.198 474.675ZM213.764 436.752L204.259 436.736L204.263 427.224L213.767 427.24L213.764 436.752ZM204.257 443.071L213.762 443.087L213.758 452.579L204.254 452.563L204.257 443.071Z" fill="#1A1A1A"/>
</g>
</svg>
