<svg width="23" height="22" viewBox="0 0 23 22" fill="none" xmlns="http://www.w3.org/2000/svg">
<path d="M15.8052 7.25547L21.5957 8.10612C21.7698 8.13162 21.9333 8.20539 22.0677 8.31902C22.2021 8.43265 22.302 8.5816 22.3561 8.74907C22.4102 8.91655 22.4164 9.0958 22.3739 9.26658C22.3313 9.43736 22.2419 9.5929 22.1156 9.71546L17.917 13.7946C17.8074 13.9011 17.7253 14.0324 17.6777 14.1776C17.63 14.3227 17.6182 14.4772 17.6434 14.6279L18.6234 20.3984C18.6534 20.5719 18.6342 20.7503 18.568 20.9135C18.5019 21.0766 18.3913 21.218 18.2489 21.3215C18.1065 21.4251 17.938 21.4868 17.7624 21.4995C17.5868 21.5121 17.4111 21.4753 17.2554 21.3933L12.0792 18.6573C11.9438 18.5862 11.7932 18.5492 11.6402 18.5492C11.4873 18.5492 11.3367 18.5862 11.2012 18.6573L6.01518 21.371C5.85946 21.4523 5.68411 21.4884 5.50891 21.4754C5.33372 21.4624 5.16565 21.4007 5.02366 21.2972C4.88167 21.1938 4.77142 21.0527 4.70534 20.8899C4.63925 20.7271 4.61996 20.5492 4.64965 20.376L5.64458 14.608C5.67022 14.4575 5.65895 14.303 5.61172 14.1579C5.5645 14.0127 5.48274 13.8813 5.37347 13.7747L1.20722 9.6806C1.08155 9.55762 0.992772 9.4019 0.950932 9.23111C0.909091 9.06033 0.915861 8.88124 0.970455 8.7141C1.02505 8.54695 1.12529 8.39841 1.25987 8.28525C1.39445 8.1721 1.55801 8.0989 1.73204 8.07381L7.525 7.24297C7.67652 7.22152 7.82052 7.16351 7.94449 7.07378C8.06846 6.98406 8.16864 6.86537 8.23636 6.72814L10.8356 1.48244C10.914 1.32529 11.0347 1.19311 11.1841 1.10072C11.3335 1.00833 11.5056 0.959351 11.6813 0.959351C11.8569 0.959351 12.0291 1.00833 12.1785 1.10072C12.3278 1.19311 12.4485 1.32529 12.527 1.48244L15.1088 6.73567C15.1745 6.87196 15.2721 6.99033 15.3934 7.08083C15.5146 7.17133 15.6559 7.23126 15.8052 7.25547Z" fill="#FFD700"/>
</svg>
