<svg width="83" height="83" viewBox="0 0 83 83" fill="none" xmlns="http://www.w3.org/2000/svg">
<path d="M43.6478 0.934509C43.7948 0.954944 43.9418 0.984314 44.09 0.993254C47.068 1.18355 50.0561 1.27935 53.0238 1.57821C60.626 2.34953 68.124 3.93026 75.3902 6.29351C77.7265 7.05087 80.0232 7.92702 82.3378 8.74952C82.4656 8.7955 82.5857 8.8568 82.8056 8.95259L80.5242 13.5977C79.2985 13.1021 78.1508 12.6206 76.9916 12.171C71.2901 9.959 65.3815 8.32204 59.3541 7.2846C55.5645 6.63121 51.7392 6.20473 47.8987 6.00742C44.0645 5.80904 40.2303 5.79754 36.396 5.97294C27.6962 6.3778 19.1906 7.88871 10.9342 10.6806C8.479 11.5108 6.0775 12.5133 3.65938 13.4367L3.21461 13.6117L0.934509 8.92703C2.07711 8.4979 3.13408 8.08922 4.19872 7.70351C9.33953 5.8165 14.6183 4.32844 19.9881 3.25258C22.7884 2.70212 25.6116 2.25893 28.44 1.85534C32.1528 1.34654 35.8928 1.05994 39.6398 0.997089C39.8005 0.985776 39.9604 0.966171 40.1191 0.938345L43.6478 0.934509Z" fill="#E82127"/>
<path d="M15.539 24.073C11.2191 22.1777 7.37722 19.7664 4.58206 15.8442C5.07412 15.6207 5.50866 15.4138 5.9496 15.2222C11.2945 12.9029 16.8503 11.2783 22.5646 10.1838C25.8406 9.56611 29.1495 9.13712 32.4748 8.89897C33.1292 8.85044 33.5599 8.99987 33.9919 9.53756C36.5007 12.65 39.0544 15.7267 41.5926 18.8149C41.6706 18.9107 41.7524 19.0014 41.8648 19.1304C41.9773 19.0027 42.077 18.8992 42.1677 18.7894C44.8014 15.5854 47.433 12.3788 50.0624 9.16973C50.1319 9.06785 50.2287 8.98766 50.3417 8.9384C50.4548 8.88914 50.5795 8.87282 50.7015 8.89132C52.6403 9.07523 54.5855 9.20038 56.518 9.44305C60.2689 9.92391 63.9812 10.6691 67.627 11.673C71.434 12.6992 75.1524 14.0291 78.7463 15.6501C78.8677 15.7063 78.9866 15.7689 79.1527 15.8532C76.3716 19.7536 72.5335 22.1764 68.2175 24.0692C68.1434 23.6707 68.0897 23.331 68.0156 22.9964C67.6232 21.2083 66.556 20.0001 64.8856 19.2926C63.5807 18.7476 62.1943 18.423 60.7829 18.3321C58.4287 18.1699 56.0681 18.1099 53.71 17.9962C53.4046 17.9809 53.2857 18.0639 53.2282 18.3858C52.3489 23.3829 51.4602 28.3792 50.5621 33.3746C49.7493 37.9418 48.9398 42.509 48.1338 47.0761C47.3278 51.6433 46.5123 56.2092 45.6875 60.7738C44.8517 65.4746 44.0175 70.1767 43.1851 74.8801C42.7608 77.2735 42.33 79.6657 41.8597 82.0655C41.7115 81.2481 41.5636 80.4307 41.4162 79.6133C40.7499 75.907 40.0841 72.2006 39.4186 68.4943C38.737 64.6781 38.0528 60.8611 37.366 57.0432C36.652 53.0541 35.9363 49.0655 35.2188 45.0774C34.5082 41.113 33.798 37.1487 33.0883 33.1844C32.3785 29.22 31.6679 25.2557 30.9564 21.2914C30.7762 20.2849 30.5871 19.2798 30.412 18.2734C30.3801 18.0857 30.3289 17.986 30.1129 17.9873C26.9765 18.0141 23.8363 18.0052 20.7536 18.6974C20.0359 18.8602 19.3354 19.0907 18.6613 19.3858C16.78 20.2058 15.8496 21.7294 15.594 23.718C15.5748 23.8035 15.562 23.8929 15.539 24.073Z" fill="#E82127"/>
</svg>
